<svg width="53" height="40" viewBox="0 0 53 40" fill="none" xmlns="http://www.w3.org/2000/svg">
<path d="M49.9411 27.6133C50.1524 26.3541 50.1524 25.0681 49.9411 23.8089L52.0376 22.4782C52.2814 22.3264 52.387 22.0138 52.3057 21.7191C51.7613 19.7901 50.8268 18.0397 49.608 16.593C49.4211 16.3697 49.1204 16.3161 48.8766 16.468L46.7802 17.7986C45.8944 16.9681 44.8787 16.3251 43.7817 15.8964V13.2351C43.7817 12.9315 43.5867 12.6635 43.3185 12.601C41.5065 12.1545 39.6619 12.1724 37.9392 12.601C37.6711 12.6635 37.4761 12.9315 37.4761 13.2351V15.8964C36.3791 16.3251 35.3633 16.9681 34.4776 17.7986L32.3811 16.468C32.1455 16.3161 31.8367 16.3697 31.6498 16.593C30.4309 18.0397 29.4965 19.7901 28.952 21.7191C28.8708 22.0138 28.9845 22.3264 29.2202 22.4782L31.3167 23.8089C31.1054 25.0681 31.1054 26.3541 31.3167 27.6133L29.2202 28.944C28.9764 29.0958 28.8708 29.4083 28.952 29.7031C29.4965 31.6321 30.4309 33.3735 31.6498 34.8292C31.8367 35.0525 32.1374 35.1061 32.3811 34.9542L34.4776 33.6236C35.3633 34.4541 36.3791 35.0971 37.4761 35.5258V38.1871C37.4761 38.4907 37.6711 38.7586 37.9392 38.8212C39.7513 39.2677 41.5959 39.2498 43.3185 38.8212C43.5867 38.7586 43.7817 38.4907 43.7817 38.1871V35.5258C44.8787 35.0971 45.8944 34.4541 46.7802 33.6236L48.8766 34.9542C49.1123 35.1061 49.4211 35.0525 49.608 34.8292C50.8268 33.3825 51.7613 31.6321 52.3057 29.7031C52.387 29.4083 52.2732 29.0958 52.0376 28.944L49.9411 27.6133ZM40.637 30.0424C38.4593 30.0424 36.696 28.0956 36.696 25.7111C36.696 23.3266 38.4674 21.3798 40.637 21.3798C42.8066 21.3798 44.5781 23.3266 44.5781 25.7111C44.5781 28.0956 42.8147 30.0424 40.637 30.0424ZM8.13359 17.1378C11.002 17.1378 13.3341 14.5747 13.3341 11.4222C13.3341 8.2697 11.002 5.70663 8.13359 5.70663C5.26516 5.70663 2.93304 8.2697 2.93304 11.4222C2.93304 14.5747 5.26516 17.1378 8.13359 17.1378ZM26.3355 19.9955C26.4899 19.9955 26.6362 19.9509 26.7906 19.942C27.465 18.004 28.4564 16.1822 29.7402 14.6551C30.3416 13.9406 31.1948 13.5298 32.0886 13.5298C32.6493 13.5298 33.2019 13.6906 33.6813 14.0031L34.3232 14.4139C34.3882 14.3693 34.4532 14.3336 34.5182 14.2889C35.0871 12.985 35.4283 11.5383 35.4283 10.0022C35.4283 4.47421 31.3573 0 26.3274 0C21.2975 0 17.2345 4.46528 17.2345 9.9933C17.2345 15.5213 21.3056 19.9955 26.3355 19.9955ZM34.8839 37.3655C34.697 37.2583 34.5101 37.1333 34.3313 37.0172C33.665 37.4459 33.0881 37.8924 32.0967 37.8924C31.211 37.8924 30.3578 37.4816 29.7484 36.7671C28.2613 34.9989 27.1237 32.8466 26.4818 30.5515C25.6123 27.4704 28.5051 26.113 28.5782 26.0594C28.5701 25.8272 28.5701 25.595 28.5782 25.3628L27.9363 24.952C27.6275 24.7555 27.3675 24.5055 27.14 24.2286C26.8718 24.2465 26.6118 24.2822 26.3436 24.2822C24.3447 24.2822 22.4757 23.7464 20.7774 22.8533H20.103C14.9268 22.8533 10.7339 27.4615 10.7339 33.1413V35.7133C10.7339 38.0799 12.4809 40 14.6343 40H35.3877C35.0871 39.4642 34.8839 38.8569 34.8839 38.1871V37.3655ZM14.3986 21.6566C13.456 20.6296 12.164 19.9955 10.7339 19.9955H5.53331C2.66488 19.9955 0.332764 22.5586 0.332764 25.7111V28.5689C0.332764 30.1496 1.49476 31.4267 2.93304 31.4267H8.28798C8.79991 27.1936 11.1239 23.6303 14.3986 21.6566Z" fill="#FEFEFE"/>
</svg>
