<svg width="251" height="56" viewBox="0 0 251 56" fill="none" xmlns="http://www.w3.org/2000/svg">
<g clip-path="url(#clip0_35_428)">
<path d="M84.2807 18.7437V0H92.6664C94.1396 0 95.3767 0.192197 96.3777 0.57659C97.385 0.960983 98.1436 1.50401 98.6536 2.20568C99.1698 2.90735 99.4279 3.7341 99.4279 4.68594C99.4279 5.3754 99.2705 6.00385 98.9558 6.57129C98.6473 7.13873 98.2129 7.61464 97.6526 7.99904C97.0923 8.37733 96.4375 8.63969 95.6883 8.78613V8.96917C96.5194 8.99968 97.2748 9.20408 97.9548 9.58237C98.6347 9.95456 99.1761 10.4701 99.579 11.1291C99.9819 11.782 100.183 12.5507 100.183 13.4355C100.183 14.4605 99.9064 15.3727 99.3524 16.172C98.8047 16.9713 98.024 17.5997 97.0104 18.0573C95.9968 18.5149 94.7881 18.7437 93.3841 18.7437H84.2807ZM89.5312 14.6802H91.9865C92.8679 14.6802 93.5289 14.5215 93.9696 14.2042C94.4103 13.8809 94.6307 13.4049 94.6307 12.7765C94.6307 12.3372 94.5268 11.965 94.319 11.6599C94.1113 11.3548 93.8154 11.123 93.4314 10.9644C93.0536 10.8057 92.5972 10.7264 92.0621 10.7264H89.5312V14.6802ZM89.5312 7.57803H91.6843C92.1439 7.57803 92.55 7.50787 92.9025 7.36753C93.2551 7.2272 93.5289 7.02585 93.7241 6.76349C93.9256 6.49502 94.0263 6.16859 94.0263 5.7842C94.0263 5.20456 93.8123 4.7622 93.3841 4.45713C92.956 4.14595 92.4146 3.99037 91.7599 3.99037H89.5312V7.57803Z" fill="#FEFEFE"/>
<path d="M109.107 19C107.534 19 106.186 18.698 105.066 18.0939C103.945 17.4838 103.086 16.6357 102.488 15.5496C101.89 14.4575 101.59 13.1914 101.59 11.7514C101.59 10.3115 101.89 9.04849 102.488 7.96243C103.086 6.87026 103.945 6.02216 105.066 5.41811C106.186 4.80796 107.534 4.50289 109.107 4.50289C110.681 4.50289 112.029 4.80796 113.149 5.41811C114.27 6.02216 115.129 6.87026 115.727 7.96243C116.325 9.04849 116.624 10.3115 116.624 11.7514C116.624 13.1914 116.325 14.4575 115.727 15.5496C115.129 16.6357 114.27 17.4838 113.149 18.0939C112.029 18.698 110.681 19 109.107 19ZM109.145 15.2659C109.586 15.2659 109.967 15.1225 110.288 14.8357C110.609 14.549 110.858 14.1402 111.034 13.6093C111.21 13.0785 111.298 12.447 111.298 11.7148C111.298 10.9766 111.21 10.3451 111.034 9.82033C110.858 9.2895 110.609 8.8807 110.288 8.59393C109.967 8.30716 109.586 8.16378 109.145 8.16378C108.679 8.16378 108.28 8.30716 107.946 8.59393C107.612 8.8807 107.357 9.2895 107.181 9.82033C107.005 10.3451 106.917 10.9766 106.917 11.7148C106.917 12.447 107.005 13.0785 107.181 13.6093C107.357 14.1402 107.612 14.549 107.946 14.8357C108.28 15.1225 108.679 15.2659 109.145 15.2659Z" fill="#FEFEFE"/>
<path d="M125.728 19C124.154 19 122.807 18.698 121.686 18.0939C120.565 17.4838 119.706 16.6357 119.108 15.5496C118.51 14.4575 118.211 13.1914 118.211 11.7514C118.211 10.3115 118.51 9.04849 119.108 7.96243C119.706 6.87026 120.565 6.02216 121.686 5.41811C122.807 4.80796 124.154 4.50289 125.728 4.50289C127.302 4.50289 128.649 4.80796 129.77 5.41811C130.89 6.02216 131.75 6.87026 132.348 7.96243C132.946 9.04849 133.245 10.3115 133.245 11.7514C133.245 13.1914 132.946 14.4575 132.348 15.5496C131.75 16.6357 130.89 17.4838 129.77 18.0939C128.649 18.698 127.302 19 125.728 19ZM125.766 15.2659C126.206 15.2659 126.587 15.1225 126.908 14.8357C127.229 14.549 127.478 14.1402 127.654 13.6093C127.831 13.0785 127.919 12.447 127.919 11.7148C127.919 10.9766 127.831 10.3451 127.654 9.82033C127.478 9.2895 127.229 8.8807 126.908 8.59393C126.587 8.30716 126.206 8.16378 125.766 8.16378C125.3 8.16378 124.9 8.30716 124.566 8.59393C124.233 8.8807 123.978 9.2895 123.801 9.82033C123.625 10.3451 123.537 10.9766 123.537 11.7148C123.537 12.447 123.625 13.0785 123.801 13.6093C123.978 14.1402 124.233 14.549 124.566 14.8357C124.9 15.1225 125.3 15.2659 125.766 15.2659Z" fill="#FEFEFE"/>
<path d="M140.044 15.4123L140.082 9.40848H140.762L144.275 4.68594H150.13L144.237 12.0443H142.764L140.044 15.4123ZM135.36 18.7437V0H140.573V18.7437H135.36ZM144.312 18.7437L140.988 13.1792L144.388 9.59152L150.281 18.7437H144.312Z" fill="#FEFEFE"/>
<path d="M162.368 19C160.884 19 159.614 18.7113 158.557 18.134C157.501 17.5508 156.69 16.7402 156.126 15.7021C155.563 14.6582 155.281 13.4481 155.281 12.0718C155.281 10.6955 155.563 9.48834 156.126 8.45028C156.69 7.40638 157.501 6.59576 158.557 6.01842C159.614 5.43524 160.884 5.14365 162.368 5.14365C163.851 5.14365 165.122 5.43524 166.178 6.01842C167.235 6.59576 168.045 7.40638 168.609 8.45028C169.173 9.48834 169.454 10.6955 169.454 12.0718C169.454 13.4481 169.173 14.6582 168.609 15.7021C168.045 16.7402 167.235 17.5508 166.178 18.134C165.122 18.7113 163.851 19 162.368 19ZM162.403 15.4309C162.819 15.4309 163.178 15.2939 163.48 15.0198C163.783 14.7457 164.018 14.355 164.184 13.8476C164.35 13.3402 164.433 12.7366 164.433 12.0368C164.433 11.3312 164.35 10.7276 164.184 10.2261C164.018 9.71869 163.783 9.32796 163.48 9.05387C163.178 8.77977 162.819 8.64272 162.403 8.64272C161.964 8.64272 161.587 8.77977 161.273 9.05387C160.958 9.32796 160.718 9.71869 160.551 10.2261C160.385 10.7276 160.302 11.3312 160.302 12.0368C160.302 12.7366 160.385 13.3402 160.551 13.8476C160.718 14.355 160.958 14.7457 161.273 15.0198C161.587 15.2939 161.964 15.4309 162.403 15.4309Z" fill="#FEFEFE"/>
<path d="M179.64 5.3186V8.81768H170.487V5.3186H179.64ZM172.232 18.7551V4.9337C172.232 3.82566 172.434 2.90715 172.838 2.17818C173.241 1.4492 173.811 0.903929 174.547 0.542358C175.283 0.180786 176.15 0 177.147 0C177.77 0 178.375 0.0466548 178.963 0.139964C179.557 0.233273 179.996 0.314918 180.281 0.384899L179.568 3.84899C179.39 3.7965 179.183 3.75568 178.945 3.72652C178.708 3.69153 178.5 3.67403 178.322 3.67403C177.859 3.67403 177.547 3.77026 177.387 3.96271C177.227 4.15516 177.147 4.40884 177.147 4.72376V18.7551H172.232Z" fill="#FEFEFE"/>
<path d="M93.3694 54.5853L84.2807 24.2513H93.6101L97.8234 42.9138H98.0642L103.06 24.2513H110.403L115.399 42.9731H115.64L119.853 24.2513H129.182L120.094 54.5853H112.088L106.852 37.6409H106.611L101.375 54.5853H93.3694Z" fill="#FEFEFE"/>
<path d="M132.011 54.5853V31.8348H140.318V54.5853H132.011ZM136.164 29.465C135.041 29.465 134.078 29.0996 133.275 28.3689C132.473 27.6382 132.071 26.7594 132.071 25.7325C132.071 24.7056 132.473 23.8267 133.275 23.096C134.078 22.3653 135.041 22 136.164 22C137.298 22 138.261 22.3653 139.054 23.096C139.856 23.8267 140.257 24.7056 140.257 25.7325C140.257 26.7594 139.856 27.6382 139.054 28.3689C138.261 29.0996 137.298 29.465 136.164 29.465Z" fill="#FEFEFE"/>
<path d="M152.856 24.2513V54.5853H144.55V24.2513H152.856Z" fill="#FEFEFE"/>
<path d="M165.454 54.8815C163.809 54.8815 162.294 54.4569 160.91 53.6077C159.536 52.7585 158.432 51.4699 157.6 49.7419C156.777 48.0139 156.366 45.8366 156.366 43.2101C156.366 40.465 156.797 38.2334 157.66 36.5153C158.532 34.7971 159.656 33.5381 161.03 32.7383C162.415 31.9385 163.869 31.5386 165.394 31.5386C166.538 31.5386 167.541 31.7361 168.404 32.1311C169.266 32.5162 169.989 33.0346 170.57 33.6863C171.152 34.3281 171.594 35.0341 171.895 35.8043H172.015V24.2513H180.321V54.5853H172.075V50.8528H171.895C171.574 51.623 171.112 52.3142 170.51 52.9264C169.918 53.5287 169.196 54.0076 168.343 54.3631C167.501 54.7087 166.538 54.8815 165.454 54.8815ZM168.524 48.6014C169.286 48.6014 169.938 48.3842 170.48 47.9497C171.032 47.5054 171.453 46.8833 171.744 46.0835C172.045 45.2738 172.196 44.316 172.196 43.2101C172.196 42.0844 172.045 41.1216 171.744 40.3218C171.453 39.5121 171.032 38.895 170.48 38.4704C169.938 38.0359 169.286 37.8187 168.524 37.8187C167.762 37.8187 167.11 38.0359 166.568 38.4704C166.036 38.895 165.625 39.5121 165.334 40.3218C165.053 41.1216 164.913 42.0844 164.913 43.2101C164.913 44.3357 165.053 45.3034 165.334 46.1131C165.625 46.9129 166.036 47.5301 166.568 47.9645C167.11 48.3891 167.762 48.6014 168.524 48.6014Z" fill="#FEFEFE"/>
<path d="M195.474 55C193.006 55 190.88 54.5359 189.094 53.6077C187.318 52.6697 185.949 51.3268 184.986 49.579C184.033 47.8214 183.556 45.7181 183.556 43.2693C183.556 40.9192 184.038 38.8653 185.001 37.1077C185.964 35.3501 187.323 33.9825 189.079 33.0049C190.834 32.0274 192.906 31.5386 195.293 31.5386C197.039 31.5386 198.619 31.8052 200.033 32.3384C201.448 32.8716 202.657 33.6468 203.66 34.6638C204.663 35.671 205.435 36.8954 205.977 38.3371C206.519 39.7787 206.79 41.4031 206.79 43.2101V45.1059H186.145V40.6032H199.146C199.136 39.9515 198.965 39.3788 198.634 38.8851C198.313 38.3815 197.877 37.9915 197.325 37.715C196.783 37.4286 196.166 37.2855 195.474 37.2855C194.802 37.2855 194.185 37.4286 193.623 37.715C193.061 37.9915 192.61 38.3766 192.269 38.8703C191.938 39.364 191.762 39.9417 191.742 40.6032V45.4614C191.742 46.1921 191.898 46.8438 192.209 47.4165C192.52 47.9892 192.966 48.4385 193.548 48.7644C194.13 49.0902 194.832 49.2531 195.655 49.2531C196.226 49.2531 196.748 49.1741 197.22 49.0162C197.701 48.8582 198.112 48.6311 198.453 48.3348C198.795 48.0287 199.045 47.6634 199.206 47.2388H206.79C206.529 48.8187 205.912 50.1912 204.939 51.3564C203.966 52.5117 202.677 53.4102 201.072 54.0521C199.477 54.684 197.611 55 195.474 55Z" fill="#FEFEFE"/>
<path d="M210.179 54.5853V31.8348H218.245V36.1598H218.485C218.907 34.5601 219.574 33.39 220.487 32.6495C221.41 31.9089 222.488 31.5386 223.722 31.5386C224.083 31.5386 224.439 31.5682 224.79 31.6275C225.151 31.6768 225.498 31.7509 225.829 31.8496V38.8259C225.417 38.6876 224.911 38.5839 224.309 38.5148C223.707 38.4457 223.19 38.4111 222.759 38.4111C221.946 38.4111 221.214 38.5938 220.562 38.9592C219.92 39.3146 219.413 39.8182 219.042 40.4699C218.671 41.1118 218.485 41.8671 218.485 42.7361V54.5853H210.179Z" fill="#FEFEFE"/>
<path d="M249.679 39.2406H242.035C241.995 38.7765 241.829 38.3766 241.538 38.0408C241.247 37.7051 240.871 37.4484 240.41 37.2706C239.958 37.083 239.457 36.9892 238.905 36.9892C238.193 36.9892 237.581 37.1176 237.069 37.3743C236.557 37.6311 236.307 37.9964 236.317 38.4704C236.307 38.8061 236.452 39.1171 236.753 39.4035C237.064 39.6899 237.661 39.912 238.544 40.07L243.238 40.8995C245.606 41.3241 247.367 42.0399 248.52 43.0471C249.684 44.0444 250.271 45.3824 250.281 47.061C250.271 48.6804 249.779 50.0875 248.806 51.2823C247.843 52.4672 246.524 53.3855 244.849 54.0373C243.183 54.6791 241.282 55 239.146 55C235.614 55 232.851 54.289 230.854 52.8671C228.868 51.4452 227.76 49.5691 227.529 47.2388H235.775C235.885 47.9596 236.246 48.5175 236.858 48.9125C237.48 49.2976 238.263 49.4901 239.206 49.4901C239.968 49.4901 240.595 49.3618 241.087 49.105C241.588 48.8483 241.844 48.4829 241.854 48.009C241.844 47.5745 241.623 47.2289 241.192 46.9722C240.771 46.7154 240.109 46.5081 239.206 46.3501L235.113 45.6391C232.755 45.2343 230.99 44.4641 229.816 43.3285C228.642 42.193 228.061 40.7316 228.071 38.9443C228.061 37.3645 228.482 36.0265 229.335 34.9304C230.197 33.8245 231.426 32.9852 233.021 32.4125C234.626 31.8299 236.527 31.5386 238.724 31.5386C242.065 31.5386 244.698 32.2199 246.624 33.5826C248.56 34.9452 249.578 36.8312 249.679 39.2406Z" fill="#FEFEFE"/>
<g clip-path="url(#clip1_35_428)">
<path d="M11.8715 10.178C11.6175 10.178 11.366 10.2311 11.1313 10.3343C10.8967 10.4376 10.6836 10.5888 10.5041 10.7795C10.3247 10.9702 10.1824 11.1965 10.0855 11.4456C9.98867 11.6946 9.93904 11.9615 9.93952 12.2309V32.7422C9.93952 39.5487 15.1283 45.0673 21.5255 45.0673C27.9239 45.0673 33.1115 39.5487 33.1115 32.7422V18.3858C33.1115 17.2531 32.2463 16.3342 31.1795 16.3342C30.9257 16.3345 30.6744 16.3879 30.4401 16.4913C30.2057 16.5946 29.9929 16.7459 29.8137 16.9366C29.6345 17.1272 29.4924 17.3535 29.3957 17.6024C29.299 17.8512 29.2494 18.1179 29.2499 18.3871V32.6671C29.2499 37.2616 25.7843 40.9665 21.5255 40.9665C17.2667 40.9665 13.8011 37.2629 13.8011 32.6684V12.2309C13.8011 11.0969 12.9371 10.178 11.8715 10.178ZM40.8335 1.94722e-07C38.5777 -0.000425447 36.3707 0.696966 34.4829 2.00675C32.5951 3.31653 31.1085 5.18184 30.2051 7.37418C29.6459 8.72709 30.6083 10.2404 32.0003 10.2404C32.3811 10.2375 32.7529 10.1176 33.0707 9.89505C33.3885 9.67253 33.6386 9.357 33.7907 8.98673C35.0075 6.10654 37.7063 4.102 40.8311 4.102C45.0959 4.102 48.5651 7.83364 48.5651 12.418V32.7727C48.5651 33.3163 48.7687 33.8377 49.1312 34.2221C49.4936 34.6065 49.9852 34.8225 50.4977 34.8225C51.0103 34.8225 51.5018 34.6065 51.8643 34.2221C52.2267 33.8377 52.4303 33.3163 52.4303 32.7727V12.3009C52.4303 5.50709 47.2367 1.94722e-07 40.8311 1.94722e-07H40.8335Z" fill="#FEFEFE"/>
<path d="M40.7903 10.2455C39.7223 10.2455 38.8547 11.1644 38.8547 12.2945V32.7651C38.8547 39.5602 44.0567 45.066 50.4731 45.066C56.8883 45.066 62.0903 39.5576 62.0903 32.7651V30.7313C62.0903 29.6011 61.2227 28.6822 60.1547 28.6822C59.0867 28.6822 58.2191 29.6011 58.2191 30.7313V32.6913C58.2191 37.2782 54.7439 41.0085 50.4731 41.0085C46.2011 41.0085 42.7271 37.2756 42.7271 32.6913V12.2945C42.7271 11.1644 41.8595 10.2455 40.7903 10.2455ZM0.280701 12.3022C0.280701 5.50836 5.4683 0 11.8655 0C18.2639 0 23.4515 5.50709 23.4515 12.3022V32.7727C23.4339 33.3033 23.2227 33.806 22.8625 34.1748C22.5024 34.5435 22.0213 34.7496 21.5207 34.7496C21.0201 34.7496 20.539 34.5435 20.1789 34.1748C19.8187 33.806 19.6075 33.3033 19.5899 32.7727V12.4205C19.5899 7.83618 16.1243 4.10327 11.8655 4.10327C7.6067 4.10327 4.1423 7.83364 4.1423 12.4205V16.3864C4.12466 16.917 3.91351 17.4196 3.55334 17.7884C3.19318 18.1572 2.71211 18.3632 2.2115 18.3632C1.71089 18.3632 1.22983 18.1572 0.869657 17.7884C0.50949 17.4196 0.298342 16.917 0.280701 16.3864L0.280701 12.3009L0.280701 12.3022ZM2.0747 24.5802C1.0547 24.6527 0.280701 25.6073 0.280701 26.6967V33.586C0.280701 39.3145 2.4047 44.5964 5.8547 48.5227C6.2219 48.9402 6.7187 49.1489 7.2143 49.1489C7.7111 49.1489 8.1743 48.9542 8.5415 48.5635C8.88563 48.198 9.08288 47.7054 9.09183 47.189C9.10078 46.6726 8.92074 46.1726 8.5895 45.794C5.71875 42.5662 4.12151 38.2956 4.1255 33.8584V26.6242C4.1255 25.4927 3.2627 24.5751 2.2019 24.5751L2.0747 24.5802ZM64.9295 0.00636364H64.7987C64.5345 0.0121308 64.2708 0.0346559 64.0091 0.0738182C63.9971 0.0738182 63.9887 0.0763636 63.9767 0.0789091C62.3668 0.322457 60.8937 1.17371 59.828 2.4764C58.7622 3.77909 58.1752 5.44579 58.1747 7.17055V20.4795C58.1747 21.6096 59.0387 22.5273 60.1043 22.5273C60.1475 22.5273 60.1919 22.5273 60.2339 22.5235C61.2587 22.4509 62.0339 21.4989 62.0339 20.4107V7.25964C62.0339 5.60891 63.2291 4.186 64.7855 4.10455C65.5173 4.06392 66.2359 4.32165 66.7943 4.82491C66.8231 4.85164 66.8519 4.87582 66.8819 4.90509C66.9119 4.93564 66.9455 4.96618 66.9743 4.99927C67.0091 5.03618 67.0439 5.07564 67.0787 5.11636C67.1111 5.15455 67.1423 5.19273 67.1723 5.23218C67.2035 5.27164 67.2323 5.31236 67.2611 5.35309C67.2827 5.38364 67.3043 5.41291 67.3235 5.44345C67.3619 5.50327 67.3991 5.56436 67.4315 5.62545C67.4471 5.65218 67.4603 5.67891 67.4735 5.70564C67.5095 5.77564 67.5431 5.84691 67.5767 5.92073L67.6007 5.98182C67.6753 6.16603 67.7316 6.35798 67.7687 6.55455C67.7867 6.64364 67.7999 6.73273 67.8095 6.82564L67.8131 6.87654C67.8215 6.97327 67.8275 7.06873 67.8275 7.168V33.8036C67.8275 34.7264 67.7579 35.6338 67.6235 36.5184C67.5776 36.8115 67.5923 37.1118 67.6667 37.3983C67.741 37.6848 67.8733 37.9507 68.0542 38.1776C68.2352 38.4045 68.4605 38.587 68.7145 38.7123C68.9686 38.8376 69.2453 38.9029 69.5255 38.9035H69.5339C70.4819 38.9035 71.2931 38.1704 71.4407 37.1725C71.6045 36.0653 71.6863 34.9461 71.6855 33.8253V7.16927C71.688 5.31987 71.0134 3.54167 69.8039 2.20945C68.6743 0.95637 67.1532 0.182294 65.5247 0.0318182L65.4515 0.0254545C65.3188 0.0159872 65.186 0.00919814 65.0531 0.00509091C65.0135 0.00509091 64.9727 0 64.9319 0L64.9295 0.00636364Z" fill="#FEFEFE"/>
<path d="M36.0095 42.9902C35.1071 42.9902 34.2575 43.4446 33.7175 44.2121L33.7091 44.2248C30.7139 48.4846 25.9343 51.2464 20.5595 51.2464C18.9679 51.2474 17.3847 51.0013 15.8603 50.5159C15.6803 50.4573 15.5003 50.4306 15.3179 50.4306C14.8175 50.4306 14.3279 50.6431 13.9619 51.0288C12.9359 52.1208 13.3799 53.9764 14.7659 54.4295C16.6007 55.029 18.5459 55.3128 20.5535 55.3128H20.6015C23.6819 55.3064 26.5967 54.6102 29.2079 53.2955C31.8187 51.9805 34.1357 50.091 36.0047 47.7528C37.9045 50.1304 40.2714 52.039 42.9395 53.3448C45.6076 54.6507 48.5126 55.3224 51.4511 55.3128C55.9355 55.3128 60.0767 53.8071 63.4355 51.1866C63.5435 51.1026 63.6383 51.0097 63.7211 50.9142L63.7247 50.9091C63.9371 50.7373 64.1447 50.563 64.3487 50.3822L64.3847 50.3517C64.5707 50.1862 64.7519 50.0208 64.9319 49.8502C64.9643 49.8197 64.9991 49.7879 65.0315 49.7548C65.1827 49.6097 65.3291 49.4621 65.4755 49.3119L65.6531 49.1337C65.7779 49.0039 65.8991 48.8702 66.0191 48.7366C66.0839 48.6653 66.1511 48.5953 66.2171 48.5202L66.2351 48.5011C66.6227 48.0595 66.9959 47.6039 67.3475 47.1291C68.3459 45.7877 67.4615 43.8162 65.8547 43.8162H65.7983C65.2139 43.8162 64.6667 44.109 64.3043 44.599C64.0177 44.9808 63.7167 45.3502 63.4019 45.7062L63.3959 45.7113C62.9351 46.2319 62.4443 46.7219 61.9283 47.1788L61.8983 47.2042C61.8095 47.2831 61.7183 47.3582 61.6295 47.4371L61.5695 47.4881L61.3127 47.6981L61.2311 47.7617L60.9827 47.9539C60.9515 47.9793 60.9203 48.0022 60.8903 48.0239C60.8087 48.0862 60.7259 48.1461 60.6443 48.2046L60.5411 48.2784L60.2951 48.449L60.1847 48.5228C60.1038 48.5783 60.0222 48.6326 59.9399 48.6857L59.8235 48.7595L59.5787 48.9122L59.4587 48.9848C59.3759 49.0357 59.2931 49.0841 59.2103 49.1311L59.0903 49.1986L58.8359 49.3411L58.7195 49.4022C58.6307 49.4493 58.5443 49.4951 58.4555 49.5397L58.3595 49.5868C58.0403 49.7446 57.7139 49.8922 57.3839 50.0284L57.2939 50.0666C57.2147 50.0984 57.1343 50.1302 57.0539 50.1595C56.9975 50.1803 56.9415 50.2024 56.8859 50.2257L56.6651 50.3059L56.4755 50.3733L56.2595 50.4459L56.0591 50.5108C55.9886 50.533 55.9178 50.5542 55.8467 50.5744L55.6379 50.6368C55.5683 50.6571 55.4963 50.675 55.4267 50.6941C55.2851 50.7299 55.1435 50.7655 55.0019 50.801L54.7799 50.8519L54.5723 50.8977C54.4967 50.9142 54.4187 50.9282 54.3443 50.9422C54.2759 50.955 54.2063 50.969 54.1367 50.9804L53.9039 51.0186C53.8355 51.0288 53.7683 51.0415 53.6999 51.0491C53.6183 51.0619 53.5367 51.0721 53.4575 51.0822L53.2583 51.1077L53.0063 51.1331L52.8131 51.1522L52.5455 51.1726C52.4843 51.1764 52.4255 51.1828 52.3631 51.1853C52.2647 51.1904 52.1639 51.1955 52.0655 51.1981C52.0127 51.1981 51.9623 51.2031 51.9107 51.2057C51.7607 51.2095 51.6071 51.2121 51.4547 51.2121C46.0871 51.2121 41.3135 48.4591 38.3159 44.2146L38.3063 44.2337L38.2943 44.2146C38.0293 43.8363 37.6849 43.5286 37.2883 43.3161C36.8917 43.1036 36.4538 42.992 36.0095 42.9902Z" fill="#FEFEFE"/>
</g>
</g>
<defs>
<clipPath id="clip0_35_428">
<rect width="250" height="56" fill="white" transform="translate(0.280701)"/>
</clipPath>
<clipPath id="clip1_35_428">
<rect width="72" height="56" fill="white" transform="translate(0.280701)"/>
</clipPath>
</defs>
</svg>
