<svg width="107" height="64" viewBox="0 0 107 64" fill="none" xmlns="http://www.w3.org/2000/svg">
<path d="M35.758 46.9078C35.758 49.3307 34.9826 51.2085 33.4318 52.5411C32.8393 53.0504 32.913 52.866 32.5526 53.1798C38.0815 55.198 43.0287 57.7448 46.346 60.8781C48.5029 57.8549 51.7219 51.8638 51.7219 47.1391C51.7219 43.5213 50.7936 40.4569 48.9398 37.9404C47.0859 35.4266 44.4239 33.7086 40.9592 32.789C44.0307 31.6243 46.3542 29.8154 47.9378 27.3622C49.5186 24.909 50.3104 21.952 50.3104 18.4856C50.3104 12.4779 48.0825 7.89369 43.6294 4.73566C39.1763 1.57764 32.6755 0 24.1325 0L0.280762 0L0.40089 38.4938L16.2884 38.491H27.5071C33.0059 38.5213 35.758 41.3269 35.758 46.9078ZM16.2857 27.9129L16.2857 12.4146H24.1297C27.7173 12.4146 30.3166 13.0368 31.9274 14.2841C33.5383 15.5286 34.3437 17.566 34.3437 20.3964C34.3437 22.8578 33.5983 24.7163 32.1103 25.9773C30.6196 27.2383 28.1269 27.8853 24.6321 27.9156L16.2857 27.9156V27.9129Z" fill="#FEFEFE"/>
<path d="M72.3479 9.36523C71.4026 10.451 71.4247 12.6307 71.4247 14.1022C71.4247 15.8218 72.3479 17.3788 74.1944 18.7731C76.0408 20.1703 79.2887 21.6115 83.9353 23.0996C88.5818 24.5876 92.3991 26.1914 95.3844 27.9082C102.649 32.0803 106.281 37.8342 106.281 45.1698C106.281 51.0312 104.064 55.6331 99.633 58.9785C95.2048 62.3267 89.1236 63.9994 81.3978 63.9994C75.9496 63.9994 71.0156 63.0266 66.6012 61.0756C62.1841 59.1273 58.8588 56.4571 56.6282 53.0676C54.3975 49.6781 53.2808 45.7733 53.2808 41.3532H69.534C69.534 44.9438 70.4655 47.5893 72.3286 49.2923C74.1916 50.9953 77.2156 51.8468 81.4006 51.8468C84.079 51.8468 86.1936 51.2709 87.7498 50.1218C89.3033 48.9699 90.0828 47.3523 90.0828 45.2663C90.0828 42.9046 89.2452 41.0611 87.5674 39.7439C85.8896 38.4239 82.943 37.0598 78.7249 35.6462C74.5067 34.2353 71.0598 32.8684 68.3814 31.5485C59.6715 27.2827 55.3152 21.4213 55.3152 13.9645C55.3152 12.3496 55.5336 10.8202 55.9454 9.37074L72.3479 9.36523Z" fill="#FEFEFE"/>
</svg>
