<svg width="30" height="32" viewBox="0 0 30 32" fill="none" xmlns="http://www.w3.org/2000/svg">
<path d="M9.62042 3.55894C9.14905 3.55894 8.69699 3.74619 8.36368 4.0795C8.03037 4.41281 7.84312 4.86487 7.84312 5.33624C7.84312 5.8076 8.03037 6.25967 8.36368 6.59297C8.69699 6.92628 9.14905 7.11353 9.62042 7.11353C10.0918 7.11353 10.5438 6.92628 10.8772 6.59297C11.2105 6.25967 11.3977 5.8076 11.3977 5.33624C11.3977 4.86487 11.2105 4.41281 10.8772 4.0795C10.5438 3.74619 10.0918 3.55894 9.62042 3.55894ZM4.59068 3.55894C4.95787 2.51828 5.63881 1.61713 6.53966 0.979715C7.4405 0.342299 8.51687 0 9.62042 0C10.724 0 11.8003 0.342299 12.7012 0.979715C13.602 1.61713 14.283 2.51828 14.6502 3.55894H27.3934C27.8647 3.55894 28.3168 3.74619 28.6501 4.0795C28.9834 4.41281 29.1706 4.86487 29.1706 5.33624C29.1706 5.8076 28.9834 6.25967 28.6501 6.59297C28.3168 6.92628 27.8647 7.11353 27.3934 7.11353H14.6502C14.283 8.15419 13.602 9.05534 12.7012 9.69276C11.8003 10.3302 10.724 10.6725 9.62042 10.6725C8.51687 10.6725 7.4405 10.3302 6.53966 9.69276C5.63881 9.05534 4.95787 8.15419 4.59068 7.11353H2.51124C2.03987 7.11353 1.58781 6.92628 1.25451 6.59297C0.921198 6.25967 0.733948 5.8076 0.733948 5.33624C0.733948 4.86487 0.921198 4.41281 1.25451 4.0795C1.58781 3.74619 2.03987 3.55894 2.51124 3.55894H4.59068ZM20.2842 14.2227C19.8128 14.2227 19.3608 14.41 19.0274 14.7433C18.6941 15.0766 18.5069 15.5286 18.5069 16C18.5069 16.4714 18.6941 16.9234 19.0274 17.2567C19.3608 17.59 19.8128 17.7773 20.2842 17.7773C20.7555 17.7773 21.2076 17.59 21.5409 17.2567C21.8742 16.9234 22.0615 16.4714 22.0615 16C22.0615 15.5286 21.8742 15.0766 21.5409 14.7433C21.2076 14.41 20.7555 14.2227 20.2842 14.2227ZM15.2544 14.2227C15.6216 13.182 16.3026 12.2809 17.2034 11.6435C18.1043 11.0061 19.1806 10.6638 20.2842 10.6638C21.3877 10.6638 22.4641 11.0061 23.3649 11.6435C24.2658 12.2809 24.9467 13.182 25.3139 14.2227H27.3934C27.8647 14.2227 28.3168 14.41 28.6501 14.7433C28.9834 15.0766 29.1706 15.5286 29.1706 16C29.1706 16.4714 28.9834 16.9234 28.6501 17.2567C28.3168 17.59 27.8647 17.7773 27.3934 17.7773H25.3139C24.9467 18.818 24.2658 19.7191 23.3649 20.3565C22.4641 20.9939 21.3877 21.3362 20.2842 21.3362C19.1806 21.3362 18.1043 20.9939 17.2034 20.3565C16.3026 19.7191 15.6216 18.818 15.2544 17.7773H2.51124C2.03987 17.7773 1.58781 17.59 1.25451 17.2567C0.921198 16.9234 0.733948 16.4714 0.733948 16C0.733948 15.5286 0.921198 15.0766 1.25451 14.7433C1.58781 14.41 2.03987 14.2227 2.51124 14.2227H15.2544ZM9.62042 24.8865C9.14905 24.8865 8.69699 25.0737 8.36368 25.407C8.03037 25.7403 7.84312 26.1924 7.84312 26.6638C7.84312 27.1351 8.03037 27.5872 8.36368 27.9205C8.69699 28.2538 9.14905 28.4411 9.62042 28.4411C10.0918 28.4411 10.5438 28.2538 10.8772 27.9205C11.2105 27.5872 11.3977 27.1351 11.3977 26.6638C11.3977 26.1924 11.2105 25.7403 10.8772 25.407C10.5438 25.0737 10.0918 24.8865 9.62042 24.8865ZM4.59068 24.8865C4.95787 23.8458 5.63881 22.9447 6.53966 22.3072C7.4405 21.6698 8.51687 21.3275 9.62042 21.3275C10.724 21.3275 11.8003 21.6698 12.7012 22.3072C13.602 22.9447 14.283 23.8458 14.6502 24.8865H27.3934C27.8647 24.8865 28.3168 25.0737 28.6501 25.407C28.9834 25.7403 29.1706 26.1924 29.1706 26.6638C29.1706 27.1351 28.9834 27.5872 28.6501 27.9205C28.3168 28.2538 27.8647 28.4411 27.3934 28.4411H14.6502C14.283 29.4817 13.602 30.3829 12.7012 31.0203C11.8003 31.6577 10.724 32 9.62042 32C8.51687 32 7.4405 31.6577 6.53966 31.0203C5.63881 30.3829 4.95787 29.4817 4.59068 28.4411H2.51124C2.03987 28.4411 1.58781 28.2538 1.25451 27.9205C0.921198 27.5872 0.733948 27.1351 0.733948 26.6638C0.733948 26.1924 0.921198 25.7403 1.25451 25.407C1.58781 25.0737 2.03987 24.8865 2.51124 24.8865H4.59068Z" fill="#FEFEFE"/>
</svg>
