<svg width="32" height="32" viewBox="0 0 32 32" fill="none" xmlns="http://www.w3.org/2000/svg">
<path d="M17.832 0.672252C16.804 -0.224084 15.196 -0.224084 14.168 0.672252L1.25195 11.9342C0.4528 12.631 0 13.6005 0 14.6147V28.3111C0 30.3483 1.79085 32 4 32H8C10.2091 32 12 30.3483 12 28.3111V22.1629C12 21.4838 12.597 20.9333 13.3333 20.9333H18.6667C19.403 20.9333 20 21.4838 20 22.1629V28.3111C20 30.3483 21.7909 32 24 32H28C30.2091 32 32 30.3483 32 28.3111V14.6147C32 13.6005 31.5472 12.631 30.748 11.9342L17.832 0.672252Z" fill="#FEFEFE"/>
</svg>
