<svg xmlns="http://www.w3.org/2000/svg" width="233" height="144" viewBox="0 0 233 144" fill="none">
<path d="M0.00835056 71.1288C0.00835056 37.6288 25.5084 5.62884 61.8083 1.12884C76.9083 -0.771158 93.0084 4.02884 106.108 10.1288C106.108 10.1288 107.308 9.22884 109.308 8.12884C135.508 -5.77116 174.208 -2.27116 194.408 21.9288C195.108 22.7288 196.208 23.3288 196.808 24.2288C198.108 26.1288 201.408 27.9288 198.308 30.5288C195.908 32.6288 193.208 35.9288 189.608 31.7288C182.408 23.1288 173.508 16.7288 162.908 12.8288C148.008 7.32884 133.208 8.02884 118.608 13.9288C117.308 14.4288 114.308 15.8288 114.308 15.8288C114.308 15.8288 117.108 17.9288 118.108 18.6288C119.408 19.5288 122.408 21.7288 122.408 21.7288C123.608 23.0288 126.308 24.6288 124.608 26.4288C122.608 28.7288 120.208 31.1288 116.508 28.2288C109.908 22.9288 103.508 17.3288 95.5084 14.1288C74.4084 5.42884 54.5084 7.92884 35.4084 20.4288C13.7084 34.5288 3.10835 67.0288 11.8084 92.4288C21.2084 119.929 51.6084 137.929 81.4084 133.029C83.6084 132.629 85.7084 131.829 87.8084 131.229C92.4084 129.929 94.7084 133.529 96.7084 136.229C98.1084 138.129 95.1084 138.429 93.9084 138.829C80.2084 143.629 66.3083 144.029 52.5084 139.829C34.4083 134.329 18.9083 125.029 9.40835 107.829C3.20835 96.4288 -0.191649 84.2288 0.00835056 71.1288Z" fill="#000000"/>
<path d="M114.908 67.0289C122.708 67.0289 130.608 67.1289 138.408 66.9289C141.308 66.8289 142.408 67.8289 142.308 70.7289C141.608 90.2289 137.208 108.229 122.208 122.129C115.808 128.029 116.008 128.229 124.108 130.729C145.308 137.229 164.308 133.429 180.908 118.529C182.908 116.729 185.308 115.529 187.208 113.429C189.808 110.629 192.208 112.429 194.608 114.529C197.108 116.629 196.808 118.229 194.808 120.429C177.308 139.129 156.108 146.329 130.708 141.929C109.208 138.129 91.6084 128.629 81.1084 109.029C72.6084 93.1289 69.0084 76.1289 72.5084 57.8289C75.2084 44.1289 81.4084 32.7289 90.7084 22.6289C94.2084 18.8289 96.8084 22.1289 99.3084 23.7289C101.708 25.2289 99.8084 26.5289 98.5084 27.8289C80.5084 46.2289 75.3084 67.5289 83.8084 92.0289C87.9084 103.729 94.0084 114.029 104.708 120.929C106.808 122.229 108.008 122.329 110.108 120.629C122.708 110.029 130.708 97.0289 132.908 80.4289C133.408 76.9289 132.108 76.4289 129.108 76.4289C116.508 76.5289 103.808 76.2289 91.2084 76.6289C86.4084 76.7289 87.2084 74.0289 86.9084 71.2289C86.6084 67.9289 88.0084 66.8289 91.3084 66.9289C99.2084 67.1289 107.108 67.0289 114.908 67.0289Z" fill="#000000"/>
<path d="M204.908 91.8288C207.708 90.2288 210.508 88.7288 213.908 89.0288C215.408 89.1288 216.908 89.1288 217.408 90.8288C217.908 92.7288 216.808 93.8288 215.208 94.5288C212.108 95.8288 209.208 97.4288 206.008 98.4288C202.408 99.5288 200.808 101.029 202.308 104.929C202.908 106.329 203.308 108.329 201.908 109.429C200.708 110.329 199.308 109.029 198.008 108.529C191.908 106.229 185.808 103.929 179.708 101.529C177.808 100.729 176.008 99.6288 174.308 98.5288C171.608 96.8288 170.308 94.2288 171.408 91.1288C172.508 88.1288 175.108 88.0288 177.808 88.1288C185.708 88.5288 190.708 93.6288 195.908 98.6288C196.408 99.1288 197.308 100.129 197.608 99.9288C198.608 99.4288 198.208 98.2288 198.108 97.4288C196.708 90.0288 190.608 84.9288 182.808 84.2288C175.708 83.6288 168.908 81.9288 163.508 76.9288C161.708 75.2288 159.208 73.6288 160.808 70.4288C162.208 67.5288 164.808 66.2288 167.908 66.6288C170.408 67.0288 172.808 67.9288 175.208 68.6288C176.708 69.6288 178.208 70.6288 179.708 71.6288C180.408 72.4288 181.108 73.1288 181.808 73.9288C182.708 74.9288 184.008 76.6288 184.908 75.7288C185.608 75.1288 183.608 73.8288 182.708 72.8288C182.508 72.6288 182.208 72.5288 181.908 72.3288C181.508 72.0288 181.208 71.7288 180.808 71.5288C179.208 70.2288 177.708 68.9288 176.108 67.6288C172.808 64.2288 169.508 60.8288 166.008 57.5288C159.508 51.3288 156.308 39.5288 159.508 33.1288C160.308 31.5288 161.008 29.8288 163.208 30.0288C165.208 30.1288 166.408 31.3288 167.208 33.0288C169.108 37.4288 171.708 41.3288 171.608 46.8288C171.408 57.1288 178.208 64.3288 184.408 71.7288C184.808 72.2288 185.408 72.7288 185.908 72.2288C186.208 71.8288 186.208 71.0288 186.108 70.4288C185.408 66.7288 184.608 62.9288 183.808 59.2288C183.108 55.9288 182.808 52.6288 184.808 49.5288C185.808 47.9288 186.608 45.9288 189.008 46.3288C191.308 46.6288 192.408 48.3288 193.408 50.3288C196.708 57.0288 195.208 63.6288 193.808 70.3288C192.708 75.6288 192.208 80.8288 195.208 85.7288C196.608 91.7288 198.008 92.6288 201.808 89.9288C201.808 90.5288 201.808 91.2288 201.808 91.8288C201.908 92.6288 200.408 93.8288 201.608 94.1288C203.208 94.4288 204.108 92.8288 204.908 91.8288ZM195.208 104.429C195.608 104.629 196.108 105.129 196.508 105.029C197.008 104.929 196.908 104.529 196.408 104.229C196.108 103.929 195.808 103.529 195.508 103.229C194.108 101.029 192.208 99.4288 189.808 98.3288C188.408 96.9288 186.608 96.1288 184.708 95.7288C183.808 95.4288 182.808 95.1288 181.908 94.8288C181.608 94.9288 181.208 95.0288 180.908 95.0288C181.208 95.2288 181.508 95.4288 181.808 95.6288C182.108 95.9288 182.508 96.1288 182.808 96.4288C184.708 97.3288 186.708 98.2288 188.608 99.1288C190.408 100.529 192.208 101.929 194.008 103.329C194.508 103.829 194.808 104.129 195.208 104.429ZM170.808 58.5288C170.908 58.4288 171.108 58.3288 171.108 58.2288C170.908 57.9288 170.708 57.6288 170.508 57.2288L169.408 55.3288C168.008 51.6288 166.808 48.4288 166.808 48.4288C166.708 47.7288 165.808 45.3288 165.608 44.8288C165.308 43.9288 165.108 42.7288 163.808 42.5288C163.808 43.4288 163.608 44.1288 163.708 45.0288C163.808 45.6288 164.108 46.5288 164.108 46.5288C164.208 46.8288 164.508 47.7288 164.508 47.7288C165.508 50.5288 168.808 56.3288 170.808 58.5288ZM206.908 93.8288C206.008 94.1288 204.808 94.4288 205.608 95.5288C206.208 96.3288 207.308 95.7288 207.908 94.8288C208.508 94.5288 209.008 94.1288 208.408 93.6288C208.108 93.3288 207.408 93.7288 206.908 93.8288ZM172.508 75.3288C173.708 75.7288 174.908 76.1288 176.008 76.5288C178.008 77.3288 180.008 78.2288 181.908 79.0288C182.508 79.2288 183.108 79.5288 183.708 79.7288C184.608 80.5288 186.508 81.7288 186.708 81.0288C187.208 78.9288 184.708 79.5288 183.708 78.6288C183.108 78.4288 182.508 78.1288 181.908 77.9288C180.608 76.9288 179.208 76.1288 177.408 76.4288C176.408 75.0288 174.908 74.7288 173.308 74.4288C172.408 73.6288 171.308 72.9288 170.708 74.4288C170.508 75.3288 171.608 75.4288 172.508 75.3288ZM189.808 65.8288C189.808 66.8288 189.708 67.8288 189.708 68.9288C189.708 69.5288 189.708 70.1288 189.708 70.7288C189.708 71.7288 189.708 72.7288 189.708 73.7288C189.708 74.3288 189.308 75.3288 190.608 74.7288C192.508 69.2288 191.508 63.5288 191.008 58.0288C190.908 56.3288 189.608 56.4288 189.608 58.4288C189.608 60.0288 189.608 61.5288 189.608 63.1288C189.608 63.5288 189.608 63.8288 189.608 64.2288C189.708 64.6288 189.808 65.2288 189.808 65.8288Z" fill="#000000"/>
<path d="M200.508 91.9289C196.708 94.6289 196.808 91.7289 195.408 85.7289C196.008 86.5289 196.608 87.2289 197.208 88.0289C197.208 88.9289 197.808 89.9289 198.508 89.6289C200.008 88.9289 199.008 87.5289 199.008 86.3289C199.108 85.3289 199.108 84.2289 199.208 83.1289C199.408 83.1289 201.208 82.9289 201.408 82.9289C201.408 85.1289 201.408 85.1289 201.408 86.1289C201.408 87.1289 201.808 88.1289 202.008 88.0289C202.308 88.0289 202.808 85.1289 202.408 82.6289L202.908 81.1289C203.308 81.1289 203.708 81.3289 204.108 81.3289C204.408 81.7289 204.608 82.3289 204.908 82.4289C206.508 82.9289 206.008 81.4289 206.008 80.8289C205.708 76.4289 205.308 72.0289 205.108 67.5289C204.908 63.9289 206.008 60.8289 210.308 61.3289C214.608 61.8289 214.908 64.8289 213.908 68.4289C213.408 70.0289 213.708 71.9289 213.708 73.6289C213.208 74.3289 212.008 75.0289 213.208 75.7289C213.708 76.0289 214.608 74.7289 214.408 73.6289C217.708 69.3289 221.108 65.0289 227.208 64.6289C229.108 64.5289 230.808 64.7289 231.908 66.3289C233.208 68.3289 231.308 69.5289 230.308 70.8289C228.308 73.5289 225.408 74.3289 222.408 74.5289C219.908 74.7289 217.908 75.8289 215.608 76.7289C214.508 77.1289 213.008 77.8289 213.808 78.8289C214.408 79.5289 216.408 78.9289 217.308 77.7289C221.108 76.9289 223.708 78.9289 226.108 81.4289C226.808 82.1289 226.608 83.4289 225.808 84.0289C222.908 86.4289 219.508 86.0289 216.208 85.3289C208.108 83.6289 206.508 84.0289 203.708 89.8289C203.608 90.3289 201.908 92.3289 201.608 93.0289L200.908 91.8289C200.708 91.7289 200.708 91.9289 200.508 91.9289ZM222.008 69.6289C221.308 70.1289 220.008 70.6289 220.908 71.6289C221.708 72.5289 222.608 71.5289 223.208 70.9289C224.108 70.6289 225.308 70.0289 224.608 69.1289C223.908 67.9289 222.808 68.8289 222.008 69.6289ZM216.108 81.1289C215.208 81.3289 213.908 81.5289 212.708 81.7289C213.808 82.9289 215.208 82.2289 216.408 82.3289C217.608 82.4289 218.908 82.1289 220.108 81.9289C219.108 80.6289 217.608 81.5289 216.108 81.1289ZM208.608 73.5289C208.908 74.3289 208.208 75.9289 209.208 75.8289C210.508 75.7289 210.108 74.0289 210.208 73.0289C210.308 72.1289 210.508 70.7289 209.108 71.0289C208.108 71.2289 208.808 72.6289 208.608 73.5289Z" fill="#000000"/>
<path d="M201.708 75.5288C203.908 75.8288 203.908 80.9288 204.208 81.2288C204.308 82.4288 203.508 82.0288 203.108 81.3288L202.508 82.6288C202.408 78.5288 201.008 75.4288 201.508 83.0288C201.308 83.0288 199.508 83.3288 199.308 83.3288C199.408 81.2288 199.508 76.8288 200.708 75.7288C200.908 75.5288 201.108 75.2288 201.708 75.5288Z" fill="#000000"/>
<path d="M202.808 89.8289C202.608 89.9289 202.308 89.9289 202.108 89.9289C202.308 89.9289 202.508 89.8289 202.808 89.8289Z" fill="#000000"/>
</svg>