<svg width="233" height="144" viewBox="0 0 233 144" fill="none" xmlns="http://www.w3.org/2000/svg">
<g clip-path="url(#clip0_42_2336)">
<path d="M-3.62657e-06 71.1C-3.62657e-06 37.6 25.5 5.59997 61.8 1.09997C76.9 -0.800028 93 3.99997 106.1 10.1C106.1 10.1 107.3 9.19997 109.3 8.09997C135.5 -5.80003 174.2 -2.30003 194.4 21.9C195.1 22.7 196.2 23.3 196.8 24.2C198.1 26.1 201.4 27.9 198.3 30.5C195.9 32.6 193.2 35.9 189.6 31.7C182.4 23.1 173.5 16.7 162.9 12.8C148 7.29997 133.2 7.99997 118.6 13.9C117.3 14.4 114.3 15.8 114.3 15.8C114.3 15.8 117.1 17.9 118.1 18.6C119.4 19.5 122.4 21.7 122.4 21.7C123.6 23 126.3 24.6 124.6 26.4C122.6 28.7 120.2 31.1 116.5 28.2C109.9 22.9 103.5 17.3 95.5 14.1C74.4 5.39997 54.5 7.89997 35.4 20.4C13.7 34.5 3.1 67 11.8 92.4C21.2 119.9 51.6 137.9 81.4 133C83.6 132.6 85.7 131.8 87.8 131.2C92.4 129.9 94.7 133.5 96.7 136.2C98.1 138.1 95.1 138.4 93.9 138.8C80.2 143.6 66.3 144 52.5 139.8C34.4 134.3 18.9 125 9.4 107.8C3.2 96.4 -0.200004 84.2 -3.62657e-06 71.1Z" fill="#E5E9E7"/>
<path d="M114.9 66.9999C122.7 66.9999 130.6 67.0999 138.4 66.8999C141.3 66.7999 142.4 67.7999 142.3 70.6999C141.6 90.1999 137.2 108.2 122.2 122.1C115.8 128 116 128.2 124.1 130.7C145.3 137.2 164.3 133.4 180.9 118.5C182.9 116.7 185.3 115.5 187.2 113.4C189.8 110.6 192.2 112.4 194.6 114.5C197.1 116.6 196.8 118.2 194.8 120.4C177.3 139.1 156.1 146.3 130.7 141.9C109.2 138.1 91.6 128.6 81.1 109C72.6 93.0999 69 76.0999 72.5 57.7999C75.2 44.0999 81.4 32.6999 90.7 22.5999C94.2 18.7999 96.8 22.0999 99.3 23.6999C101.7 25.1999 99.8 26.4999 98.5 27.7999C80.5 46.1999 75.3 67.4999 83.8 91.9999C87.9 103.7 94 114 104.7 120.9C106.8 122.2 108 122.3 110.1 120.6C122.7 110 130.7 96.9999 132.9 80.3999C133.4 76.8999 132.1 76.3999 129.1 76.3999C116.5 76.4999 103.8 76.1999 91.2 76.5999C86.4 76.6999 87.2 73.9999 86.9 71.1999C86.6 67.8999 88 66.7999 91.3 66.8999C99.2 67.0999 107.1 66.9999 114.9 66.9999Z" fill="#E5E9E7"/>
<path d="M204.9 91.8C207.7 90.2 210.5 88.7 213.9 89C215.4 89.1 216.9 89.1 217.4 90.8C217.9 92.7 216.8 93.8 215.2 94.5C212.1 95.8 209.2 97.4 206 98.4C202.4 99.5 200.8 101 202.3 104.9C202.9 106.3 203.3 108.3 201.9 109.4C200.7 110.3 199.3 109 198 108.5C191.9 106.2 185.8 103.9 179.7 101.5C177.8 100.7 176 99.6 174.3 98.5C171.6 96.8 170.3 94.2 171.4 91.1C172.5 88.1 175.1 88 177.8 88.1C185.7 88.5 190.7 93.6 195.9 98.6C196.4 99.1 197.3 100.1 197.6 99.9C198.6 99.4 198.2 98.2 198.1 97.4C196.7 90 190.6 84.9 182.8 84.2C175.7 83.6 168.9 81.9 163.5 76.9C161.7 75.2 159.2 73.6 160.8 70.4C162.2 67.5 164.8 66.2 167.9 66.6C170.4 67 172.8 67.9 175.2 68.6C176.7 69.6 178.2 70.6 179.7 71.6C180.4 72.4 181.1 73.1 181.8 73.9C182.7 74.9 184 76.6 184.9 75.7C185.6 75.1 183.6 73.8 182.7 72.8C182.5 72.6 182.2 72.5 181.9 72.3C181.5 72 181.2 71.7 180.8 71.5C179.2 70.2 177.7 68.9 176.1 67.6C172.8 64.2 169.5 60.8 166 57.5C159.5 51.3 156.3 39.5 159.5 33.1C160.3 31.5 161 29.8 163.2 30C165.2 30.1 166.4 31.3 167.2 33C169.1 37.4 171.7 41.3 171.6 46.8C171.4 57.1 178.2 64.3 184.4 71.7C184.8 72.2 185.4 72.7 185.9 72.2C186.2 71.8 186.2 71 186.1 70.4C185.4 66.7 184.6 62.9 183.8 59.2C183.1 55.9 182.8 52.6 184.8 49.5C185.8 47.9 186.6 45.9 189 46.3C191.3 46.6 192.4 48.3 193.4 50.3C196.7 57 195.2 63.6 193.8 70.3C192.7 75.6 192.2 80.8 195.2 85.7C196.6 91.7 198 92.6 201.8 89.9C201.8 90.5 201.8 91.2 201.8 91.8C201.9 92.6 200.4 93.8 201.6 94.1C203.2 94.4 204.1 92.8 204.9 91.8ZM195.2 104.4C195.6 104.6 196.1 105.1 196.5 105C197 104.9 196.9 104.5 196.4 104.2C196.1 103.9 195.8 103.5 195.5 103.2C194.1 101 192.2 99.4 189.8 98.3C188.4 96.9 186.6 96.1 184.7 95.7C183.8 95.4 182.8 95.1 181.9 94.8C181.6 94.9 181.2 95 180.9 95C181.2 95.2 181.5 95.4 181.8 95.6C182.1 95.9 182.5 96.1 182.8 96.4C184.7 97.3 186.7 98.2 188.6 99.1C190.4 100.5 192.2 101.9 194 103.3C194.5 103.8 194.8 104.1 195.2 104.4ZM170.8 58.5C170.9 58.4 171.1 58.3 171.1 58.2C170.9 57.9 170.7 57.6 170.5 57.2L169.4 55.3C168 51.6 166.8 48.4 166.8 48.4C166.7 47.7 165.8 45.3 165.6 44.8C165.3 43.9 165.1 42.7 163.8 42.5C163.8 43.4 163.6 44.1 163.7 45C163.8 45.6 164.1 46.5 164.1 46.5C164.2 46.8 164.5 47.7 164.5 47.7C165.5 50.5 168.8 56.3 170.8 58.5ZM206.9 93.8C206 94.1 204.8 94.4 205.6 95.5C206.2 96.3 207.3 95.7 207.9 94.8C208.5 94.5 209 94.1 208.4 93.6C208.1 93.3 207.4 93.7 206.9 93.8ZM172.5 75.3C173.7 75.7 174.9 76.1 176 76.5C178 77.3 180 78.2 181.9 79C182.5 79.2 183.1 79.5 183.7 79.7C184.6 80.5 186.5 81.7 186.7 81C187.2 78.9 184.7 79.5 183.7 78.6C183.1 78.4 182.5 78.1 181.9 77.9C180.6 76.9 179.2 76.1 177.4 76.4C176.4 75 174.9 74.7 173.3 74.4C172.4 73.6 171.3 72.9 170.7 74.4C170.5 75.3 171.6 75.4 172.5 75.3ZM189.8 65.8C189.8 66.8 189.7 67.8 189.7 68.9C189.7 69.5 189.7 70.1 189.7 70.7C189.7 71.7 189.7 72.7 189.7 73.7C189.7 74.3 189.3 75.3 190.6 74.7C192.5 69.2 191.5 63.5 191 58C190.9 56.3 189.6 56.4 189.6 58.4C189.6 60 189.6 61.5 189.6 63.1C189.6 63.5 189.6 63.8 189.6 64.2C189.7 64.6 189.8 65.2 189.8 65.8Z" fill="#E5E9E7"/>
<path d="M200.5 91.9C196.7 94.6 196.8 91.7 195.4 85.7C196 86.5 196.6 87.2 197.2 88C197.2 88.9 197.8 89.9 198.5 89.6C200 88.9 199 87.5 199 86.3C199.1 85.3 199.1 84.2 199.2 83.1C199.4 83.1 201.2 82.9 201.4 82.9C201.4 85.1 201.4 85.1 201.4 86.1C201.4 87.1 201.8 88.1 202 88C202.3 88 202.8 85.1 202.4 82.6L202.9 81.1C203.3 81.1 203.7 81.3 204.1 81.3C204.4 81.7 204.6 82.3 204.9 82.4C206.5 82.9 206 81.4 206 80.8C205.7 76.4 205.3 72 205.1 67.5C204.9 63.9 206 60.8 210.3 61.3C214.6 61.8 214.9 64.8 213.9 68.4C213.4 70 213.7 71.9 213.7 73.6C213.2 74.3 212 75 213.2 75.7C213.7 76 214.6 74.7 214.4 73.6C217.7 69.3 221.1 65 227.2 64.6C229.1 64.5 230.8 64.7 231.9 66.3C233.2 68.3 231.3 69.5 230.3 70.8C228.3 73.5 225.4 74.3 222.4 74.5C219.9 74.7 217.9 75.8 215.6 76.7C214.5 77.1 213 77.8 213.8 78.8C214.4 79.5 216.4 78.9 217.3 77.7C221.1 76.9 223.7 78.9 226.1 81.4C226.8 82.1 226.6 83.4 225.8 84C222.9 86.4 219.5 86 216.2 85.3C208.1 83.6 206.5 84 203.7 89.8C203.6 90.3 201.9 92.3 201.6 93L200.9 91.8C200.7 91.7 200.7 91.9 200.5 91.9ZM222 69.6C221.3 70.1 220 70.6 220.9 71.6C221.7 72.5 222.6 71.5 223.2 70.9C224.1 70.6 225.3 70 224.6 69.1C223.9 67.9 222.8 68.8 222 69.6ZM216.1 81.1C215.2 81.3 213.9 81.5 212.7 81.7C213.8 82.9 215.2 82.2 216.4 82.3C217.6 82.4 218.9 82.1 220.1 81.9C219.1 80.6 217.6 81.5 216.1 81.1ZM208.6 73.5C208.9 74.3 208.2 75.9 209.2 75.8C210.5 75.7 210.1 74 210.2 73C210.3 72.1 210.5 70.7 209.1 71C208.1 71.2 208.8 72.6 208.6 73.5Z" fill="#E5E9E7"/>
<path d="M201.7 75.5C203.9 75.8 203.9 80.9 204.2 81.2C204.3 82.4 203.5 82 203.1 81.3L202.5 82.6C202.4 78.5 201 75.4 201.5 83C201.3 83 199.5 83.3 199.3 83.3C199.4 81.2 199.5 76.8 200.7 75.7C200.9 75.5 201.1 75.2 201.7 75.5Z" fill="#E5E9E7"/>
<path d="M202.8 89.8C202.6 89.9 202.3 89.9 202.1 89.9C202.3 89.9 202.5 89.8 202.8 89.8Z" fill="#E5E9E7"/>
</g>
<defs>
<clipPath id="clip0_42_2336">
<rect width="232.4" height="143.2" fill="white"/>
</clipPath>
</defs>
</svg>
