<svg width="995" height="952" viewBox="0 0 995 952" fill="none" xmlns="http://www.w3.org/2000/svg">
<path d="M502.512 1.16225C511.342 0.872248 520.061 0.972249 528.651 1.45225C537.241 2.11225 545.701 3.13225 554.021 4.51225C562.321 6.04225 570.461 7.89225 578.421 10.0322C586.351 12.2822 594.082 14.7822 601.602 17.5122C609.052 20.2622 616.261 23.2022 623.211 26.2922C630.061 29.3522 636.621 32.5122 642.861 35.7622C648.981 38.9122 654.741 42.1222 660.141 45.3622C667.801 50.0322 680.821 59.2222 686.111 63.7222C694.061 72.2822 701.381 85.1123 702.441 89.5723C703.761 98.9823 705.971 114.842 707.561 120.882C710.301 127.262 719.261 141.302 725.931 148.972C731.481 154.272 737.841 159.792 745.051 165.532C753.191 171.372 762.211 177.432 772.091 183.682C782.841 190.032 794.381 196.562 806.651 203.262C819.571 210.042 833.041 216.982 846.941 224.072C861.111 231.222 875.421 238.502 889.701 245.892C903.771 253.332 917.461 260.882 930.541 268.512C942.881 276.182 954.261 283.932 964.461 291.742C973.431 299.582 980.921 307.472 986.771 315.422C991.041 323.382 993.481 331.382 994.041 339.412C992.921 347.462 989.921 355.542 985.091 363.632C978.781 371.742 970.881 379.872 961.531 388.012C951.231 396.152 939.931 404.312 927.881 412.482C915.651 420.652 903.231 428.832 890.941 437.012C879.341 445.192 868.461 453.372 858.571 461.542C850.171 469.722 843.251 477.892 838.001 486.042C834.781 494.202 833.481 502.232 834.091 510.152C836.741 518.062 841.161 525.852 847.181 533.502C854.861 541.152 863.752 548.652 873.602 556.022C884.432 563.372 895.681 570.572 907.071 577.612C918.621 584.632 929.751 591.482 940.221 598.172C950.081 604.832 958.801 611.312 966.221 617.622C972.441 623.892 977.071 629.992 980.001 635.892C981.431 641.772 981.091 647.472 979.001 652.982C975.371 658.472 970.081 663.792 963.251 668.942C955.101 674.092 945.641 679.082 935.031 683.922C923.481 688.802 911.101 693.562 898.071 698.202C884.571 702.922 870.741 707.572 856.751 712.162C842.741 716.872 828.861 721.562 815.241 726.272C801.961 731.152 789.161 736.082 776.921 741.092C765.281 746.322 754.311 751.672 744.061 757.162C734.541 762.922 725.761 768.842 717.711 774.942C710.421 781.332 703.812 787.922 697.852 794.692C692.582 801.742 687.861 808.962 683.631 816.352C679.971 823.952 676.681 831.672 673.691 839.462C671.131 847.372 668.751 855.292 666.471 863.142C664.481 870.982 662.491 878.662 660.441 886.112C658.541 893.372 656.501 900.292 654.271 906.802C650.871 915.762 642.681 930.092 637.751 935.192C632.381 938.712 619.731 941.202 612.441 940.252C607.381 938.952 601.961 937.072 596.221 934.682C590.391 932.062 584.241 929.092 577.781 925.862C571.261 922.702 564.452 919.472 557.362 916.282C550.232 913.442 542.841 910.842 535.201 908.562C527.541 906.882 519.652 905.662 511.542 904.952C503.422 904.992 495.102 905.592 486.582 906.772C478.072 908.672 469.471 911.062 460.811 913.852C452.151 917.192 443.441 920.772 434.691 924.482C425.951 928.442 417.172 932.342 408.362 936.042C399.582 939.692 390.781 942.952 381.971 945.732C373.191 948.162 364.412 949.962 355.642 951.072C346.912 951.652 338.201 951.442 329.531 950.442C320.901 948.832 312.331 946.412 303.811 943.232C295.361 939.462 286.992 934.982 278.702 929.852C270.512 924.262 262.422 918.132 254.452 911.542C246.592 904.662 238.872 897.462 231.312 890.002C223.872 882.462 216.601 874.792 209.521 867.082C202.571 859.452 195.822 851.882 189.292 844.412C182.892 837.172 176.702 830.112 170.742 823.252C164.912 816.702 159.302 810.382 153.902 804.312C148.622 798.572 143.552 793.082 138.682 787.802C133.882 782.852 129.271 778.102 124.831 773.512C118.291 767.112 105.861 755.102 99.8915 749.332C93.9115 743.752 82.1215 732.352 76.2715 726.402C72.2815 722.402 68.3415 718.242 64.4515 713.882C60.4815 709.512 56.5715 704.932 52.7415 700.142C48.8615 695.302 45.0915 690.242 41.4615 684.952C37.8215 679.612 34.3615 674.042 31.1015 668.262C27.8715 662.422 24.8915 656.362 22.1515 650.102C19.5015 643.792 17.1215 637.282 15.0215 630.592C13.0215 623.852 11.3115 616.942 9.8715 609.872C8.5115 602.762 7.4215 595.512 6.5615 588.122C5.7415 580.702 5.1215 573.162 4.6915 565.502C4.2215 557.822 3.8915 550.042 3.6715 542.152C3.3715 534.262 3.1315 526.282 2.9615 518.212C2.6615 510.132 2.4115 501.972 2.2115 493.742C1.8715 485.512 1.6115 477.302 1.4215 469.112C1.1515 460.932 1.0015 452.772 1.0015 444.652C0.981499 436.522 1.1615 428.422 1.5515 420.352C1.9815 412.282 2.6815 404.242 3.6515 396.222C4.7115 388.202 6.0715 380.212 7.7315 372.252C9.4915 364.272 11.5515 356.332 13.8915 348.412C16.3115 340.482 19.0015 332.582 21.9315 324.712C24.9015 316.832 28.0715 308.982 31.4215 301.172C34.7615 293.352 38.2415 285.572 41.8415 277.842C45.3815 270.112 49.0115 262.432 52.7115 254.812C56.3215 247.212 59.9915 239.682 63.7015 232.232C67.3315 224.812 71.0215 217.482 74.7615 210.272C78.4315 203.102 82.1815 196.062 86.0215 189.172C89.8215 182.342 93.7415 175.672 97.7815 169.172C101.851 162.772 106.062 156.552 110.451 150.552C114.911 144.652 119.561 138.972 124.411 133.522C129.381 128.202 134.561 123.112 139.971 118.272C145.521 113.562 151.301 109.102 157.311 104.892C163.471 100.792 169.852 96.9323 176.462 93.3223C183.202 89.7923 190.162 86.4922 197.312 83.4122C204.582 80.3722 212.041 77.5222 219.661 74.8522C227.381 72.1922 235.242 69.6722 243.242 67.2722C251.312 64.8222 259.492 62.4722 267.762 60.2022C276.092 57.8322 284.501 55.5122 292.971 53.2422C301.471 50.8222 310.031 48.4222 318.632 46.0422C327.252 43.5022 335.902 40.9722 344.572 38.4622C353.262 35.7922 361.961 33.1422 370.691 30.5322C379.411 27.7922 388.151 25.1222 396.911 22.5322C405.661 19.8722 414.432 17.3322 423.202 14.9522C431.982 12.5622 440.772 10.3823 449.582 8.42225C458.382 6.53225 467.202 4.92225 476.022 3.62225C484.842 2.45225 493.671 1.62225 502.501 1.16225" stroke="url(#paint0_linear_42_3012)" stroke-opacity="0.05" stroke-linecap="round" stroke-dasharray="11 2"/>
<path opacity="0.93" d="M498.629 32.1287C506.594 32.0273 514.38 32.2915 521.977 32.9011C529.549 33.6901 536.924 34.8143 544.069 36.2729C551.201 37.8912 558.096 39.8037 564.743 42.0001C571.358 44.3057 577.716 46.855 583.799 49.6175C589.831 52.4388 595.578 55.433 601.031 58.5799C608.945 63.3387 623.083 73.2342 629.259 78.2598C634.989 83.1542 644.682 92.7888 648.675 97.5098C655.295 106.418 663.173 119.448 665.435 123.806C667.958 128.14 673.762 137.268 677.362 142.139C681.928 147.174 693.816 158.194 701.449 164.216C707.377 168.375 713.92 172.75 721.088 177.33C728.964 182.008 737.484 186.902 746.67 192.012C756.493 197.219 766.921 202.63 777.925 208.257C789.426 213.975 801.362 219.884 813.674 225.973C826.234 232.158 838.949 238.507 851.721 245.018C864.401 251.596 876.867 258.309 888.981 265.143C900.613 272.035 911.602 279.021 921.799 286.098C931.124 293.212 939.388 300.391 946.45 307.629C952.321 314.877 956.8 322.161 959.779 329.478C961.397 336.801 961.454 344.134 959.901 351.468C957.017 358.798 952.593 366.13 946.728 373.466C939.754 380.775 931.559 388.093 922.274 395.393C912.359 402.698 901.744 409.986 890.618 417.281C879.493 424.576 868.318 431.87 857.332 439.168C847.037 446.484 837.381 453.805 828.606 461.129C821.12 468.494 814.874 475.861 810.019 483.242C806.873 490.666 805.32 498 805.359 505.253C807.127 512.549 810.389 519.753 815.013 526.85C821.097 533.984 828.255 541.005 836.305 547.918C845.295 554.834 854.779 561.622 864.526 568.277C874.593 574.93 884.484 581.439 894.009 587.789C903.224 594.12 911.673 600.283 919.195 606.282C925.918 612.262 931.425 618.071 935.646 623.718C939.539 632.057 938.203 647.949 933.012 655.542C927.895 660.566 921.5 665.488 913.937 670.311C905.393 675.18 895.88 679.994 885.539 684.748C874.514 689.604 862.9 694.436 850.836 699.277C838.428 704.259 825.809 709.276 813.088 714.35C800.343 719.604 787.706 724.941 775.276 730.393C763.082 736.041 751.224 741.827 739.783 747.743C728.756 753.88 718.217 760.159 708.203 766.582C698.695 773.207 689.734 779.966 681.31 786.848C673.432 793.893 666.072 801.022 659.191 808.203C652.827 815.486 646.894 822.761 641.352 829.995C636.25 837.23 631.471 844.333 626.967 851.273C622.805 858.091 618.841 864.644 615.024 870.881C611.464 876.864 607.974 882.449 604.505 887.574C599.562 894.443 589.503 904.725 584.23 907.975C578.861 909.882 567.156 909.93 560.737 908.209C554.041 905.542 539.333 898.063 531.3 893.661C525.82 890.784 520.07 887.899 514.069 885.069C508.029 882.597 501.723 880.33 495.171 878.346C488.585 876.891 481.76 875.81 474.694 875.164C467.602 875.147 460.279 875.585 452.744 876.487C445.194 878.009 437.523 879.929 429.755 882.176C421.985 884.903 414.139 887.828 406.221 890.882C398.326 894.186 390.372 897.449 382.391 900.581C374.441 903.724 366.467 906.566 358.503 909.048C350.574 911.301 342.668 913.044 334.796 914.248C326.994 915.044 319.227 915.201 311.527 914.708C303.91 913.718 296.379 912.03 288.926 909.673C281.585 906.82 274.34 903.308 267.22 899.189C260.202 894.623 253.327 889.52 246.595 883.92C239.98 878.003 233.526 871.68 227.239 865.042C221.078 858.206 215.082 851.154 209.28 843.927C203.589 836.663 198.091 829.314 192.793 821.95C187.593 814.668 182.581 807.44 177.768 800.298C173.04 793.328 168.499 786.493 164.134 779.812C159.834 773.373 155.699 767.098 151.709 761.006C147.764 755.166 143.944 749.499 140.26 744.006C136.56 738.752 132.976 733.651 129.479 728.672C124.204 721.578 113.878 708.037 108.79 701.468C103.588 695.086 93.2346 682.254 88.0963 675.704C82.8693 669.102 72.7001 655.304 67.8295 648.05C64.5907 643.148 61.4958 638.089 58.5654 632.854C55.6552 627.61 52.9193 622.2 50.378 616.605C47.8869 611.001 45.6003 605.223 43.5478 599.28C41.556 593.308 39.7882 587.182 38.2546 580.892C36.7711 574.593 35.5019 568.129 34.4561 561.531C33.441 554.904 32.6291 548.151 31.9908 541.253C31.3629 534.346 30.8981 527.312 30.5865 520.152C30.2349 512.991 30.0265 505.703 29.9408 498.309C29.8054 490.903 29.7827 483.39 29.8925 475.781C29.9422 468.17 30.1224 460.542 30.4329 452.907C30.7231 445.282 31.1635 437.651 31.7636 430.033C32.3639 422.406 33.1539 414.793 34.1439 407.185C35.1639 399.578 36.4033 391.997 37.8626 384.421C39.3717 376.856 41.1204 369.308 43.0886 361.784C45.1065 354.272 47.3541 346.776 49.8206 339.325C52.3173 331.865 55.003 324.45 57.8779 317.069C60.7523 309.708 63.7859 302.382 66.958 295.119C70.0898 287.864 73.3501 280.673 76.6989 273.545C79.9769 266.444 83.3429 259.426 86.7769 252.489C90.11 245.59 93.5105 238.793 96.9585 232.097C100.315 225.459 103.718 218.951 107.189 212.566C110.567 206.258 114.022 200.092 117.552 194.099C121.031 188.173 124.595 182.431 128.275 176.881C131.942 171.42 135.734 166.163 139.661 161.12C143.616 156.167 147.745 151.438 152.029 146.933C156.39 142.531 160.936 138.343 165.676 134.4C170.513 130.539 175.555 126.904 180.802 123.493C186.167 120.146 191.747 117.014 197.522 114.087C203.436 111.194 209.535 108.485 215.84 105.952C222.266 103.411 228.877 101.025 235.655 98.7733C242.565 96.4849 249.622 94.2901 256.826 92.1991C264.143 90.0108 271.578 87.8955 279.141 85.8435C286.788 83.6534 294.534 81.5059 302.36 79.3803C310.269 77.1068 318.247 74.855 326.286 72.6047C334.378 70.2157 342.52 67.8279 350.692 65.4609C358.907 62.945 367.151 60.4697 375.405 58.0347C383.691 55.4905 391.985 53.0265 400.276 50.6525C408.579 48.2287 416.879 45.9349 425.155 43.7906C433.441 41.6665 441.701 39.7319 449.927 38.0264C458.15 36.4009 466.336 35.0346 474.456 33.9567C482.582 33.0189 490.639 32.4096 498.619 32.1285" stroke="url(#paint1_linear_42_3012)" stroke-opacity="0.05" stroke-width="2" stroke-linecap="round" stroke-dasharray="21 10"/>
<path opacity="0.86" d="M484.587 62.1676C491.584 62.2064 498.384 62.5758 504.968 63.2648C511.533 64.1231 517.873 65.3006 523.976 66.7867C530.063 68.4121 535.905 70.3157 541.503 72.4974C549.727 76.0417 564.864 84.2965 571.763 88.9061C578.354 93.6706 590.251 103.646 595.572 108.768C600.668 113.808 609.84 123.828 614.018 128.772C618.167 133.525 626.181 142.856 630.217 147.463C634.58 151.926 644.184 160.916 649.651 165.514C653.725 168.551 658.074 171.681 662.749 174.918C667.855 178.127 673.345 181.475 679.248 184.963C685.632 188.456 692.469 192.111 699.777 195.93C707.585 199.784 715.854 203.821 724.605 208.033C733.814 212.297 743.454 216.753 753.505 221.4C763.903 226.104 774.622 231.004 785.603 236.078C796.761 241.211 808.05 246.53 819.381 252.002C830.649 257.54 841.79 263.223 852.683 269.043C863.243 274.916 873.358 280.898 882.905 287.002C891.831 293.124 899.992 299.339 907.267 305.629C913.662 311.916 919.012 318.27 923.218 324.668C926.364 331.053 928.266 337.465 928.876 343.904C928.366 350.316 926.554 356.734 923.44 363.157C919.296 369.558 913.96 375.95 907.504 382.336C900.268 388.703 892.12 395.065 883.203 401.419C873.894 407.773 864.105 414.132 854.016 420.487C844.036 426.858 834.105 433.241 824.404 439.645C815.341 446.092 806.868 452.567 799.134 459.07C792.499 465.627 786.893 472.226 782.437 478.862C779.399 485.579 777.664 492.251 777.232 498.888C778.249 505.597 780.5 512.257 783.905 518.865C788.548 525.535 794.145 532.152 800.537 538.689C807.809 545.269 815.594 551.766 823.705 558.178C832.235 564.601 840.771 570.924 849.131 577.139C857.431 583.36 865.257 589.458 872.479 595.425C879.199 601.398 885.056 607.237 889.968 612.939C895.571 621.429 899.63 637.811 897.952 645.748C895.436 651.019 891.773 656.213 887.011 661.342C881.336 666.515 874.692 671.65 867.148 676.761C858.869 681.944 849.85 687.131 840.208 692.337C830.051 697.638 819.441 702.985 808.479 708.386C797.249 713.913 785.826 719.51 774.309 725.173C762.745 730.984 751.217 736.887 739.815 742.866C728.536 748.971 717.484 755.168 706.699 761.418C696.178 767.792 685.986 774.202 676.153 780.629C666.667 787.135 657.553 793.608 648.831 800.052C640.49 806.484 632.525 812.815 624.937 819.004C617.703 825.111 610.83 831.016 604.26 836.676C598.039 842.162 592.084 847.332 586.387 852.144C580.973 856.7 575.76 860.835 570.71 864.528C563.542 869.317 549.962 875.808 543.392 877.442C536.996 878.014 524.12 876.2 517.524 873.958C510.879 871.084 496.921 863.879 489.541 859.876C481.971 856.074 465.86 849.273 457.303 846.603C451.497 845.362 445.496 844.431 439.297 843.852C433.063 843.791 426.639 844.111 420.037 844.783C413.399 845.983 406.675 847.5 399.868 849.273C393.05 851.466 386.164 853.826 379.233 856.293C372.309 859.002 365.356 861.688 358.388 864.294C351.447 866.951 344.517 869.389 337.6 871.557C330.74 873.588 323.92 875.23 317.16 876.454C310.466 877.382 303.846 877.812 297.313 877.707C290.87 877.215 284.534 876.168 278.308 874.535C272.182 872.497 266.184 869.885 260.324 866.729C254.574 863.178 248.969 859.124 243.529 854.587C238.195 849.725 233.022 844.441 228.017 838.794C223.104 832.912 218.366 826.738 213.81 820.323C209.331 813.772 205.021 807.048 200.887 800.204C196.815 793.322 192.915 786.389 189.157 779.433C185.457 772.53 181.895 765.664 178.47 758.845C175.059 752.157 171.775 745.545 168.605 739.039C165.417 732.702 162.324 726.48 159.314 720.372C156.265 714.463 153.281 708.657 150.36 702.974C147.351 697.467 144.397 692.064 141.488 686.752C136.976 679.057 127.946 664.189 123.412 656.934C118.73 649.832 109.414 635.68 104.824 628.542C100.183 621.422 91.2798 606.82 87.0998 599.292C83.0337 591.69 75.7119 575.895 72.5061 567.705C70.4682 562.197 68.6269 556.558 66.982 550.799C65.3874 545.032 63.9896 539.135 62.7881 533.118C61.637 527.093 60.6721 520.947 59.914 514.672C59.1858 508.398 58.6439 502.003 58.2782 495.486C57.9426 488.972 57.7732 482.335 57.789 475.597C57.8054 468.85 57.997 462.001 58.3744 455.041C58.7513 448.091 59.3 441.11 60.0189 434.127C60.7579 427.145 61.6776 420.152 62.7676 413.158C63.887 406.175 65.1768 399.191 66.6663 392.216C68.1852 385.253 69.894 378.3 71.792 371.366C73.7194 364.443 75.8356 357.55 78.1311 350.676C80.4356 343.822 82.9184 337.008 85.5695 330.231C88.2095 323.475 91.0074 316.766 93.9327 310.113C96.8269 303.479 99.8381 296.911 102.956 290.409C106.012 283.943 109.155 277.552 112.363 271.254C115.499 264.982 118.691 258.814 121.926 252.757C125.07 246.737 128.248 240.838 131.48 235.072C134.599 229.35 137.76 223.781 140.965 218.344C144.067 212.981 147.23 207.773 150.445 202.737C155.188 195.384 164.993 181.686 170.104 175.373C175.329 169.376 186.447 158.456 192.4 153.537C198.609 148.891 211.992 140.547 219.187 136.801C226.716 133.202 242.824 126.617 251.388 123.55C257.258 121.48 263.296 119.468 269.481 117.524C275.77 115.485 282.208 113.484 288.765 111.508C295.417 109.417 302.188 107.352 309.06 105.292C316.027 103.106 323.075 100.925 330.202 98.7575C337.395 96.4533 344.658 94.1724 351.97 91.9141C359.337 89.5384 366.743 87.2046 374.165 84.9318C381.632 82.571 389.115 80.3012 396.582 78.1307C404.092 75.9223 411.574 73.8527 419.019 71.9414C426.502 70.062 433.925 68.37 441.298 66.8856C448.677 65.4917 455.993 64.345 463.206 63.4734C470.432 62.7327 477.563 62.2876 484.577 62.1671" stroke="url(#paint2_linear_42_3012)" stroke-opacity="0.05" stroke-width="2" stroke-linecap="round" stroke-dasharray="31 23"/>
<path opacity="0.8" d="M468.27 91.1424C477.309 91.4988 494.445 93.9262 502.524 95.9757C510.387 98.5104 525.134 104.991 532.023 108.876C538.71 113.048 551.217 122.258 557.084 127.2C562.834 132.224 573.823 142.554 579.135 147.806C584.524 152.973 595.366 163.262 600.959 168.374C606.875 173.34 619.612 183.22 626.572 188.164C631.555 191.385 636.766 194.644 642.234 197.961C648.017 201.213 654.096 204.536 660.479 207.943C667.196 211.304 674.249 214.751 681.633 218.313C689.351 221.839 697.401 225.491 705.772 229.267C714.445 233.036 723.408 236.937 732.632 240.977C742.086 245.025 751.74 249.218 761.554 253.544C771.466 257.897 781.449 262.385 791.421 267.003C801.342 271.648 811.143 276.423 820.734 281.314C830.083 286.226 839.083 291.243 847.644 296.367C855.764 301.488 863.305 306.706 870.179 312.005C876.402 317.284 881.837 322.636 886.396 328.041C891.556 336.13 895.559 352.424 894.255 360.6C892.154 366.018 889.02 371.439 884.873 376.864C879.976 382.263 874.176 387.665 867.544 393.064C860.391 398.455 852.596 403.847 844.259 409.25C835.732 414.647 826.901 420.083 817.898 425.535C809.094 431.013 800.398 436.528 791.928 442.101C784.057 447.708 776.671 453.392 769.923 459.134C764.093 464.944 759.098 470.838 755.031 476.81C752.12 482.87 750.261 488.938 749.464 495.025C749.844 501.201 751.236 507.382 753.57 513.564C756.951 519.834 761.136 526.084 766.033 532.328C771.707 538.64 777.875 544.918 784.407 551.154C791.377 557.442 798.48 563.68 805.559 569.857C812.734 576.07 819.655 582.205 826.21 588.271C832.514 594.339 838.252 600.335 843.315 606.25C847.875 612.167 851.62 618.003 854.508 623.755C857.313 632.349 857.014 649.184 853.886 657.473C850.715 662.991 846.643 668.483 841.722 673.93C836.106 679.426 829.74 684.895 822.681 690.363C815.048 695.878 806.853 701.391 798.146 706.916C789.043 712.491 779.569 718.089 769.792 723.694C759.782 729.352 749.579 735.025 739.276 740.701C728.88 746.42 718.474 752.128 708.1 757.819C697.785 763.514 687.574 769.167 677.539 774.753C667.636 780.308 657.941 785.769 648.486 791.097C639.239 796.341 630.264 801.414 621.555 806.297C613.088 811.028 604.899 815.518 596.993 819.729C589.341 823.748 581.964 827.438 574.844 830.785C567.964 833.879 561.323 836.591 554.912 838.908C548.703 840.93 542.706 842.546 536.871 843.723C528.474 844.849 512.548 844.598 504.904 843.293C497.468 841.362 482.838 835.853 475.549 832.499C468.275 829.066 453.449 822.169 445.836 818.971C438.111 816.346 422.084 812.628 413.761 811.694C408.132 811.603 402.391 811.804 396.538 812.288C390.653 813.211 384.739 814.382 378.79 815.752C372.814 817.48 366.827 819.348 360.834 821.305C354.845 823.484 348.866 825.653 342.91 827.784C336.969 829.986 331.07 832.031 325.234 833.89C316.55 836.428 299.693 839.648 291.564 840.131C283.649 839.769 268.58 836.243 261.468 833.063C254.618 828.919 241.82 817.982 235.871 811.319C232.03 806.508 228.334 801.368 224.799 795.949C221.307 790.352 217.963 784.526 214.765 778.5C211.594 772.376 208.544 766.1 205.633 759.715C202.714 753.309 199.9 746.83 197.2 740.31C194.467 733.818 191.824 727.332 189.261 720.853C186.642 714.459 184.09 708.101 181.584 701.796C179.01 695.596 176.462 689.459 173.959 683.384C171.355 677.443 168.768 671.563 166.204 665.766C163.521 660.079 160.853 654.464 158.191 648.91C155.41 643.467 152.646 638.065 149.897 632.725C147.022 627.465 144.174 622.248 141.355 617.043C138.43 611.92 135.544 606.81 132.699 601.683C128.344 594.096 119.918 578.864 115.911 571.183C111.975 563.497 104.772 547.875 101.558 539.913C98.5493 531.886 93.4925 515.462 91.4857 507.048C90.2635 501.411 89.2383 495.688 88.42 489.881C87.6523 484.067 87.0908 478.179 86.7369 472.196C86.4429 466.217 86.355 460.164 86.4748 454.015C86.6445 447.871 87.031 441.642 87.6237 435.339C88.2663 429.039 89.1098 422.735 90.1535 416.435C91.237 410.139 92.5201 403.857 93.9933 397.58C95.5057 391.315 97.2068 385.075 99.0874 378.848C100.997 372.633 103.086 366.442 105.341 360.293C107.606 354.155 110.039 348.06 112.618 342.006C115.197 335.962 117.912 329.978 120.753 324.054C123.572 318.148 126.507 312.301 129.537 306.531C132.515 300.778 135.587 295.111 138.723 289.53C141.787 283.973 144.904 278.511 148.083 273.154C151.159 267.829 154.268 262.606 157.418 257.508C161.984 249.978 171.072 235.627 175.582 228.835C179.955 222.263 188.719 209.964 193.147 204.259C197.518 198.79 206.556 188.727 211.252 184.135C216.034 179.74 226.189 171.747 231.596 168.111C237.216 164.581 249.246 158.072 255.692 155.025C262.399 151.968 276.7 146.07 284.278 143.168C289.463 141.15 294.787 139.152 300.239 137.184C305.78 135.102 311.431 133.029 317.201 130.974C323.039 128.805 328.987 126.643 335.014 124.507C341.118 122.267 347.292 120.042 353.532 117.873C359.829 115.597 366.172 113.385 372.55 111.245C378.982 109.05 385.428 106.936 391.885 104.943C398.373 102.932 404.851 101.061 411.317 99.3492C417.8 97.679 424.25 96.1868 430.654 94.9018C437.071 93.708 443.42 92.7498 449.701 92.0372C455.972 91.4542 462.162 91.1559 468.26 91.1416" stroke="url(#paint3_linear_42_3012)" stroke-opacity="0.05" stroke-width="2" stroke-linecap="round" stroke-dasharray="7 9"/>
<path opacity="0.73" d="M457.791 119.766C468.439 120.319 478.613 121.99 488.322 124.7C497.977 127.938 507.186 132.125 515.988 137.167C524.81 142.512 533.322 148.539 541.608 155.117C550.071 161.732 558.486 168.735 566.951 176.034C575.829 183.133 584.979 190.411 594.558 197.831C604.791 204.945 615.665 212.174 627.281 219.527C639.752 226.564 653.111 233.77 667.364 241.176C682.455 248.354 698.373 255.796 714.974 263.537C732.044 271.125 749.429 279.065 766.791 287.345C783.823 295.511 800.156 304.03 815.304 312.842C829.048 321.523 840.795 330.468 850.053 339.595C856.936 348.544 860.719 357.636 861.149 366.805C858.845 375.76 853.199 384.782 844.343 393.846C833.471 402.758 820.24 411.755 805.228 420.865C790.004 429.985 774.476 439.335 759.473 448.959C746.53 458.789 735.596 469.032 727.312 479.71C722.749 490.76 721.518 502.054 723.475 513.536C728.861 525.391 736.646 537.376 746.172 549.444C757.494 561.743 769.159 574.025 780.412 586.206C791.406 598.462 800.697 610.567 807.788 622.462C813.062 634.336 815.443 645.991 814.833 657.417C811.814 668.803 805.831 679.983 797.125 690.961C786.313 701.889 773.298 712.636 758.508 723.146C742.421 733.566 725.226 743.704 707.375 753.465C689.099 762.963 670.714 771.937 652.559 780.22C634.627 787.983 617.246 794.857 600.586 800.657C584.475 805.688 569.172 809.473 554.718 811.906C540.872 813.485 527.784 813.713 515.403 812.605C503.498 810.861 492.123 808.034 481.199 804.308C470.524 800.516 460.103 796.288 449.849 791.895C439.637 788.2 429.44 784.848 419.188 782.043C408.834 780.565 398.354 779.938 387.736 780.192C376.986 781.86 366.361 784.194 355.922 786.978C345.424 790.551 335.179 794.008 325.275 797.067C315.417 800.07 305.986 802.122 297.053 803.017C288.246 803.15 279.997 801.822 272.341 798.986C264.83 795.109 257.913 789.713 251.599 782.911C245.357 775.181 239.648 766.248 234.45 756.331C229.188 745.845 224.308 734.654 219.779 722.965C215.018 711.092 210.462 698.968 206.087 686.752C201.31 674.636 196.598 662.567 191.936 650.603C186.795 638.903 181.662 627.334 176.562 615.93C171.013 604.792 165.532 593.782 160.193 582.866C154.54 572.17 149.134 561.508 144.07 550.851C138.9 540.354 134.209 529.785 130.068 519.14C126.048 508.597 122.705 497.911 120.1 487.088C117.76 476.321 116.241 465.386 115.564 454.283C115.244 443.216 115.785 431.984 117.246 420.593C119.036 409.235 121.669 397.991 125.078 386.916C128.726 375.874 133.07 365.003 138.056 354.346C143.126 343.748 148.715 333.393 154.748 323.324C160.673 313.324 166.908 303.637 173.388 294.326C179.556 285.104 185.856 276.277 192.232 267.901C198.166 259.62 204.144 251.807 210.129 244.516C215.664 237.312 221.247 230.634 226.887 224.485C232.19 218.393 237.643 212.808 243.296 207.736C248.772 202.626 254.567 197.95 260.711 193.69C266.863 189.261 273.465 185.148 280.524 181.291C287.734 177.139 295.449 173.157 303.663 169.306C312.097 165.064 321.026 160.903 330.388 156.825C339.981 152.358 349.962 148.02 360.257 143.864C370.728 139.455 381.439 135.361 392.288 131.693C403.236 128.045 414.243 125.006 425.225 122.728C436.205 120.761 447.081 119.739 457.781 119.765" stroke="url(#paint4_linear_42_3012)" stroke-opacity="0.05" stroke-width="2" stroke-linecap="round" stroke-dasharray="8 21"/>
<path opacity="0.66" d="M458.783 149.215C468.342 149.899 477.724 151.589 486.925 154.253C496.096 157.388 505.134 161.423 514.081 166.273C523.077 171.452 532.087 177.318 541.164 183.777C550.428 190.36 559.897 197.392 569.642 204.791C579.74 212.114 590.257 219.71 601.243 227.507C612.708 235.101 624.757 242.86 637.373 250.75C650.496 258.381 664.176 266.152 678.353 274.056C692.847 281.688 707.643 289.478 722.531 297.421C737.33 305.11 751.846 312.966 765.758 320.969C778.936 328.727 790.987 336.627 801.541 344.652C810.638 352.403 817.726 360.265 822.49 368.169C825.282 375.805 825.468 383.488 822.949 391.205C818.457 398.664 811.439 406.17 802.074 413.744C791.469 421.163 779.235 428.72 765.859 436.457C752.632 444.213 739.327 452.271 726.571 460.69C715.572 469.32 706.155 478.439 698.79 488.078C694.361 498.085 692.489 508.443 693.086 519.12C696.471 530.146 701.786 541.455 708.609 552.953C717.114 564.701 726.152 576.547 735.175 588.421C744.418 600.394 752.683 612.294 759.543 624.058C765.393 635.766 769.21 647.28 770.824 658.528C770.774 669.628 768.362 680.432 763.686 690.882C757.304 701.117 748.875 710.956 738.67 720.33C727.172 729.41 714.311 737.947 700.437 745.874C685.821 753.375 670.631 760.148 655.162 766.091C639.482 771.463 623.86 775.895 608.489 779.29C593.26 782.028 578.478 783.693 564.23 784.235C550.29 784.171 536.923 783.071 524.163 780.988C511.697 778.569 499.757 775.41 488.325 771.659C477.069 768.031 466.203 764.18 455.676 760.281C445.175 757.06 434.906 754.161 424.831 751.719C414.661 750.364 404.61 749.669 394.674 749.653C384.597 750.769 374.859 752.401 365.479 754.39C355.992 757.071 346.904 759.702 338.251 762.084C329.569 764.533 321.353 766.316 313.667 767.257C305.988 767.736 298.851 767.104 292.264 765.301C285.693 762.724 279.642 758.902 274.103 753.884C268.531 748.076 263.392 741.153 258.647 733.262C253.758 724.748 249.17 715.435 244.834 705.479C240.221 695.165 235.755 684.396 231.41 673.31C226.678 662.095 221.988 650.703 217.328 639.235C212.251 627.795 207.173 616.364 202.141 604.97C196.729 593.71 191.4 582.51 186.211 571.399C180.793 560.43 175.597 549.54 170.733 538.731C165.814 528.046 161.342 517.408 157.397 506.825C153.611 496.343 150.458 485.88 148.026 475.446C145.908 465.082 144.577 454.716 144.1 444.367C144.029 434.078 144.846 423.78 146.577 413.505C148.703 403.29 151.666 393.322 155.39 383.629C159.411 373.984 164.092 364.614 169.36 355.548C174.755 346.519 180.613 337.81 186.854 329.431C193.008 321.092 199.431 313.108 206.047 305.512C212.388 297.932 218.822 290.746 225.295 283.968C231.373 277.201 237.439 270.856 243.483 264.932C249.096 258.984 254.687 253.456 260.287 248.333C265.505 243.131 270.785 238.31 276.162 233.844C281.276 229.224 286.575 224.9 292.101 220.855C297.508 216.554 303.221 212.463 309.274 208.555C315.318 204.314 321.76 200.193 328.611 196.194C335.527 191.83 342.874 187.57 350.617 183.441C358.461 178.992 366.685 174.731 375.241 170.714C383.889 166.527 392.823 162.708 401.991 159.352C411.193 156.051 420.579 153.377 430.095 151.425C439.573 149.781 449.153 149.016 458.773 149.214" stroke="url(#paint5_linear_42_3012)" stroke-opacity="0.05" stroke-width="2" stroke-linecap="round" stroke-dasharray="21 30"/>
<path opacity="0.59" d="M472.486 180.622C481.315 181.427 490.186 183.159 499.086 185.774C507.954 188.8 516.906 192.677 525.965 197.32C535.057 202.28 544.331 207.915 553.807 214.157C563.41 220.56 573.301 227.461 583.486 234.771C593.892 242.084 604.642 249.731 615.76 257.626C627.099 265.393 638.801 273.366 650.785 281.483C662.924 289.38 675.267 297.4 687.668 305.498C700.008 313.335 712.206 321.241 724.054 329.186C735.48 336.845 746.246 344.525 756.099 352.219C765.079 359.6 772.795 366.983 778.988 374.338C783.912 381.39 787.021 388.402 788.164 395.38C787.836 402.056 785.447 408.714 781.008 415.347C775.271 421.743 767.708 428.178 758.527 434.672C748.679 441.035 737.776 447.553 726.173 454.279C714.919 461.047 703.738 468.13 693.037 475.588C683.81 483.269 675.773 491.432 669.266 500.119C665.021 509.158 662.694 518.556 662.226 528.305C663.933 538.382 667.164 548.749 671.634 559.354C677.583 570.202 684.127 581.2 690.887 592.241C698.147 603.387 704.929 614.482 710.92 625.458C716.496 636.371 720.761 647.056 723.545 657.436C725.315 667.634 725.364 677.441 723.701 686.798C720.818 695.859 716.256 704.384 710.156 712.314C702.962 719.856 694.443 726.723 684.812 732.856C674.41 738.529 663.19 743.391 651.381 747.396C639.147 750.871 626.591 753.459 613.912 755.117C601.089 756.259 588.32 756.499 575.747 755.847C563.212 754.808 550.966 752.992 539.067 750.481C527.262 747.821 515.813 744.67 504.764 741.154C493.762 737.857 483.111 734.452 472.8 731.067C462.469 728.286 452.411 725.779 442.622 723.626C432.742 722.35 423.072 721.559 413.631 721.259C404.045 721.857 394.897 722.834 386.173 724.088C377.341 725.922 368.935 727.75 360.977 729.422C352.947 731.236 345.38 732.593 338.276 733.363C331.12 733.872 324.438 733.583 318.213 732.412C311.936 730.718 306.079 728.045 300.631 724.402C295.084 720.138 289.873 714.923 284.986 708.837C279.902 702.175 275.068 694.731 270.418 686.597C265.518 678.041 260.732 668.936 256.054 659.382C251.06 649.568 246.117 639.428 241.228 629.054C236.014 618.559 230.86 607.933 225.769 597.224C220.428 586.498 215.201 575.759 210.151 565.047C204.972 554.386 200.049 543.774 195.446 533.25C190.882 522.803 186.75 512.442 183.128 502.187C179.713 492.035 176.911 481.975 174.777 472.046C173.006 462.192 171.985 452.461 171.773 442.862C171.993 433.349 173.056 423.952 174.995 414.708C177.36 405.528 180.511 396.699 184.394 388.244C188.584 379.834 193.4 371.772 198.758 364.064C204.274 356.391 210.232 349.067 216.529 342.108C222.806 335.155 229.323 328.553 236.018 322.311C242.504 316.048 249.089 310.133 255.701 304.577C261.999 298.953 268.287 293.671 274.545 288.718C280.425 283.658 286.268 278.906 292.078 274.442C297.538 269.824 302.999 265.459 308.486 261.331C313.691 256.988 318.988 252.841 324.411 248.865C329.633 244.616 335.047 240.497 340.706 236.506C346.237 232.212 352.057 228.023 358.182 223.95C364.26 219.587 370.674 215.346 377.416 211.275C384.163 206.973 391.237 202.912 398.653 199.135C406.042 195.263 413.765 191.795 421.769 188.815C429.741 185.911 437.984 183.624 446.474 182.041C454.905 180.723 463.575 180.23 472.476 180.621" stroke="url(#paint6_linear_42_3012)" stroke-opacity="0.05" stroke-width="2" stroke-linecap="round" stroke-dasharray="32 10"/>
<path opacity="0.53" d="M495.403 214.393C503.677 215.324 512.068 217.088 520.575 219.634C529.053 222.52 537.669 226.172 546.436 230.53C555.213 235.175 564.163 240.449 573.296 246.294C582.48 252.32 591.862 258.828 601.425 265.754C611.049 272.731 620.856 280.056 630.791 287.636C640.744 295.169 650.784 302.9 660.8 310.768C670.73 318.49 680.531 326.311 690.07 334.177C699.335 341.811 708.159 349.47 716.378 357.103C724.068 364.46 730.932 371.773 736.794 379.011C741.875 385.959 745.753 392.817 748.287 399.58C749.839 406.037 749.913 412.417 748.461 418.69C746 424.704 742.046 430.658 736.619 436.555C730.423 442.266 723.008 447.985 714.506 453.757C705.766 459.445 696.359 465.281 686.557 471.29C677.211 477.359 667.978 483.712 659.142 490.399C651.49 497.285 644.707 504.599 639.012 512.368C635.02 520.437 632.406 528.81 631.144 537.463C631.547 546.409 633.093 555.607 635.613 564.987C639.363 574.584 643.685 584.282 648.315 594.014C653.568 603.845 658.681 613.601 663.417 623.199C668.139 632.754 672.103 642.064 675.162 651.032C677.733 659.832 679.172 668.199 679.419 676.071C678.933 683.662 677.208 690.679 674.276 697.057C670.585 703.078 665.777 708.404 659.963 712.984C653.509 717.166 646.195 720.578 638.191 723.188C629.729 725.392 620.748 726.804 611.377 727.426C601.744 727.697 591.882 727.248 581.9 726.097C571.794 724.732 561.678 722.785 551.631 720.334C541.533 717.883 531.549 715.076 521.738 712.037C511.883 709.243 502.202 706.388 492.717 703.569C483.185 701.248 473.813 699.118 464.648 697.248C455.387 696.042 446.292 695.159 437.393 694.605C428.373 694.741 419.733 695.137 411.477 695.712C403.108 696.765 395.124 697.814 387.524 698.759C379.821 699.888 372.509 700.701 365.574 701.103C358.544 701.407 351.892 701.127 345.594 700.22C339.202 698.981 333.14 697.019 327.384 694.308C321.501 691.159 315.897 687.236 310.514 682.58C304.985 677.483 299.632 671.675 294.453 665.228C289.077 658.401 283.821 651.006 278.682 643.123C273.318 634.958 268.057 626.384 262.893 617.492C257.538 608.415 252.275 599.099 247.156 589.606C241.909 580.029 236.846 570.333 231.994 560.592C227.124 550.838 222.54 541.074 218.312 531.362C214.192 521.67 210.516 512.055 207.329 502.547C204.382 493.112 202.015 483.79 200.301 474.623C198.928 465.536 198.269 456.606 198.347 447.867C198.848 439.213 200.137 430.748 202.224 422.485C204.724 414.294 207.946 406.505 211.831 399.098C216.031 391.745 220.806 384.768 226.082 378.164C231.54 371.572 237.412 365.337 243.621 359.435C249.86 353.539 256.339 347.949 263.004 342.687C269.546 337.372 276.209 332.353 282.925 327.607C289.422 322.782 295.936 318.203 302.438 313.866C308.658 309.399 314.852 305.14 321.011 301.077C326.885 296.843 332.743 292.758 338.604 288.836C344.198 284.695 349.832 280.672 355.526 276.772C361 272.619 366.598 268.57 372.328 264.635C377.892 260.437 383.65 256.345 389.617 252.391C395.462 248.212 401.551 244.199 407.9 240.383C414.163 236.421 420.705 232.721 427.515 229.342C434.27 225.933 441.308 222.93 448.629 220.402C455.888 217.986 463.422 216.147 471.249 214.948C479.01 214.011 487.05 213.794 495.393 214.392" stroke="url(#paint7_linear_42_3012)" stroke-opacity="0.05" stroke-width="2" stroke-linecap="round" stroke-dasharray="33 24"/>
<path opacity="0.46" d="M520.467 249.868C528.14 250.92 535.899 252.662 543.719 255.059C551.499 257.754 559.365 261.088 567.301 265.029C575.202 269.197 583.182 273.932 591.194 279.164C599.192 284.566 607.235 290.405 615.263 296.619C623.245 302.905 631.194 309.511 639.042 316.362C646.78 323.201 654.358 330.232 661.683 337.395C668.815 344.459 675.592 351.613 681.916 358.789C687.912 365.816 693.32 372.827 698.054 379.793C702.307 386.56 705.741 393.243 708.263 399.843C710.192 406.201 711.11 412.457 710.95 418.598C710.154 424.507 708.235 430.312 705.217 436.007C701.605 441.51 696.958 446.937 691.332 452.309C685.345 457.546 678.562 462.786 671.111 468.054C663.657 473.281 655.825 478.615 647.783 484.08C640.195 489.616 632.729 495.36 625.568 501.36C619.323 507.525 613.675 514.015 608.758 520.825C605.084 527.898 602.36 535.162 600.584 542.587C600.033 550.26 600.299 558.078 601.281 565.989C603.257 574.081 605.703 582.217 608.497 590.301C611.88 598.494 615.319 606.566 618.652 614.452C622.192 622.33 625.357 629.938 628.042 637.194C630.597 644.342 632.489 651.08 633.633 657.331C634.425 666.132 631.177 680.483 627.177 685.888C621.765 690.201 606.983 695.089 597.97 695.716C591.52 695.728 584.687 695.162 577.552 694.067C570.23 692.893 562.671 691.273 554.964 689.276C547.131 687.346 539.177 685.157 531.178 682.785C523.081 680.648 514.957 678.444 506.844 676.233C498.642 674.412 490.45 672.694 482.303 671.109C474.056 670.013 465.855 669.1 457.71 668.361C449.473 668.124 441.484 668.029 433.749 668.037C425.919 668.413 418.35 668.76 411.044 669.018C403.659 669.463 396.526 669.674 389.653 669.611C382.7 669.531 375.992 669.053 369.53 668.114C362.988 667.016 356.676 665.383 350.568 663.199C344.38 660.754 338.373 657.714 332.554 654.099C326.631 650.188 320.857 645.695 315.243 640.663C309.514 635.342 303.917 629.517 298.454 623.23C292.886 616.708 287.462 609.776 282.176 602.514C276.816 595.065 271.625 587.333 266.633 579.376C261.619 571.323 256.835 563.091 252.32 554.741C247.874 546.354 243.758 537.901 240 529.438C236.417 520.97 233.265 512.539 230.592 504.163C228.175 495.829 226.309 487.596 225.032 479.482C224.087 471.435 223.776 463.537 224.145 455.807C224.895 448.164 226.334 440.691 228.496 433.425C231.033 426.225 234.209 419.399 237.966 412.925C242.027 406.513 246.604 400.429 251.642 394.683C256.87 388.956 262.485 383.541 268.428 378.417C274.444 373.287 280.722 368.425 287.193 363.816C293.631 359.169 300.211 354.735 306.885 350.534C313.446 346.239 320.052 342.126 326.693 338.194C333.156 334.134 339.62 330.218 346.086 326.444C352.34 322.505 358.602 318.68 364.852 314.965C370.905 311.067 376.969 307.263 383.064 303.557C388.975 299.651 394.947 295.849 400.989 292.153C406.875 288.272 412.87 284.505 418.986 280.896C424.968 277.147 431.108 273.572 437.406 270.224C443.609 266.795 450.001 263.639 456.582 260.807C463.09 257.99 469.804 255.563 476.723 253.585C483.579 251.716 490.668 250.364 497.974 249.596C505.23 249.033 512.714 249.107 520.455 249.876" stroke="url(#paint8_linear_42_3012)" stroke-opacity="0.05" stroke-width="2" stroke-linecap="round" stroke-dasharray="19 11"/>
<path opacity="0.39" d="M539.45 285.435C546.33 286.523 553.176 288.167 559.974 290.334C566.721 292.726 573.423 295.63 580.057 299.011C586.639 302.575 593.138 306.592 599.524 311.014C605.848 315.575 612.04 320.486 618.047 325.714C623.974 331.026 629.678 336.595 635.117 342.38C640.418 348.185 645.397 354.143 649.988 360.227C654.385 366.267 658.324 372.376 661.764 378.516C664.916 384.569 667.493 390.624 669.434 396.637C671.488 405.434 671.404 422.473 669.147 430.656C667.019 435.935 664.13 441.132 660.484 446.229C656.565 451.222 651.982 456.156 646.767 461.027C641.452 465.845 635.649 470.644 629.467 475.439C623.394 480.248 617.124 485.115 610.746 490.05C604.77 495.066 598.889 500.206 593.22 505.497C588.215 510.929 583.598 516.553 579.448 522.376C576.159 528.384 573.497 534.475 571.459 540.615C570.272 546.94 569.651 553.301 569.535 559.654C570.151 566.165 571.138 572.626 572.414 578.99C574.211 585.452 576.136 591.758 578.086 597.865C581.383 606.926 587.123 623.478 589.161 630.775C588.756 649.268 579.084 659.421 573.817 659.983C567.8 659.963 553.598 657.881 545.578 656.03C540.005 654.788 534.182 653.336 528.142 651.712C521.995 650.288 515.664 648.771 509.185 647.18C502.606 645.894 495.897 644.598 489.068 643.327C482.16 642.406 475.138 641.532 468.045 640.703C460.869 640.234 453.791 639.788 446.82 639.366C439.78 639.206 432.854 638.989 426.053 638.678C419.204 638.53 412.468 638.203 405.883 637.664C399.245 637.175 392.735 636.397 386.371 635.293C379.958 634.137 373.682 632.602 367.548 630.669C361.371 628.612 355.321 626.134 349.412 623.216C343.456 620.144 337.642 616.632 331.964 612.7C326.257 608.587 320.691 604.075 315.285 599.179C309.861 594.136 304.602 588.73 299.524 583.027C294.467 577.186 289.613 571.082 284.998 564.747C280.441 558.332 276.154 551.722 272.158 544.963C268.28 538.18 264.747 531.281 261.586 524.323C258.609 517.367 256.049 510.382 253.94 503.397C252.078 496.459 250.71 489.552 249.861 482.711C249.316 475.93 249.334 469.246 249.934 462.665C250.855 456.156 252.383 449.777 254.525 443.537C256.987 437.38 260.002 431.494 263.514 425.905C267.293 420.357 271.522 415.086 276.164 410.073C280.993 405.093 286.179 400.348 291.671 395.837C297.276 391.321 303.141 387.018 309.208 382.905C315.304 378.757 321.573 374.793 327.972 370.981C334.333 367.109 340.784 363.382 347.308 359.783C353.743 356.082 360.232 352.506 366.739 349.027C373.137 345.441 379.555 341.952 385.984 338.547C392.286 335.021 398.61 331.582 404.941 328.247C411.148 324.781 417.383 321.414 423.643 318.166C429.792 314.82 435.994 311.599 442.243 308.533C448.393 305.403 454.614 302.464 460.918 299.738C467.125 296.991 473.435 294.512 479.831 292.331C486.166 290.187 492.609 288.385 499.164 286.989C505.656 285.691 512.273 284.832 519.006 284.451C525.69 284.243 532.501 284.556 539.43 285.43" stroke="url(#paint9_linear_42_3012)" stroke-opacity="0.05" stroke-width="2" stroke-linecap="round" stroke-dasharray="23 21"/>
<path opacity="0.32" d="M545.738 318.998C557.372 321.249 568.388 325.117 578.649 330.412C588.693 336.272 597.881 343.389 606.01 351.506C613.756 359.907 620.226 369.067 625.149 378.669C629.456 388.258 631.967 398.092 632.473 407.9C632.176 417.493 629.76 426.981 625.211 436.214C620.023 445.201 612.951 454.009 604.262 462.6C595.666 471.154 586.143 479.698 576.201 488.27C567.491 497.145 559.249 506.294 551.893 515.731C546.797 525.733 543.194 535.629 541.01 545.258C540.823 555.354 541.516 564.993 542.697 573.931C544.971 583.034 547 591.156 548.427 598.072C548.778 613.309 534.362 621.578 524.204 619.972C516.61 618.956 507.888 617.262 498.204 615.054C488.208 613.664 477.349 612.014 465.764 610.137C453.947 609.212 442.034 608.016 430.202 606.458C418.232 605.443 406.397 603.699 394.832 601.136C383.203 598.618 371.873 594.97 360.97 590.171C350.09 585.12 339.674 578.815 329.883 571.389C320.254 563.654 311.358 554.867 303.393 545.255C295.82 535.484 289.363 525.058 284.247 514.231C279.828 503.457 276.954 492.458 275.842 481.463C275.688 470.682 277.434 460.013 281.232 449.639C286.037 439.522 292.582 430.147 300.587 421.526C309.268 413.046 319.133 405.187 329.892 397.948C340.908 390.671 352.591 383.854 364.673 377.498C376.712 370.946 389.024 364.743 401.433 358.925C413.637 352.859 425.935 347.157 438.213 341.935C450.257 336.54 462.358 331.727 474.452 327.676C486.346 323.678 498.312 320.657 510.27 318.841C522.073 317.389 533.933 317.375 545.728 318.996" stroke="url(#paint10_linear_42_3012)" stroke-opacity="0.05" stroke-width="2" stroke-linecap="round" stroke-dasharray="18 34"/>
<path opacity="0.25" d="M536.537 348.839C545.721 350.758 553.994 353.771 561.293 357.736C568.413 362.077 574.47 367.282 579.381 373.162C584.028 379.279 587.409 385.944 589.446 392.957C591.135 400.06 591.389 407.393 590.189 414.795C588.631 422.179 585.655 429.58 581.317 436.877C576.828 444.153 571.206 451.36 564.644 458.437C558.349 465.6 551.511 472.735 544.408 479.816C538.151 487.135 532.073 494.525 526.394 501.933C522.075 509.715 518.549 517.189 515.811 524.262C514.311 531.662 513.341 538.578 512.732 544.878C513.043 554.222 513.369 568.94 512.37 573.968C510.586 578.057 502.15 581.678 495.317 581.521C490.208 581.476 484.118 580.822 477.117 579.6C469.907 578.901 461.821 577.769 452.958 576.189C443.919 575.194 434.585 573.773 425.136 571.914C415.616 570.451 406.027 568.387 396.56 565.703C387.103 563.167 377.822 559.859 368.866 555.802C360.02 551.724 351.584 546.815 343.714 541.152C336.088 535.433 329.129 528.967 323.013 521.906C317.298 514.823 312.554 507.204 308.949 499.23C305.908 491.32 304.136 483.145 303.782 474.838C304.11 466.693 305.94 458.492 309.374 450.348C313.53 442.406 319.04 434.898 325.715 427.863C332.915 420.955 341.103 414.449 350.064 408.369C359.328 402.322 369.213 396.616 379.515 391.277C389.919 385.904 400.648 380.851 411.515 376.159C422.367 371.41 433.322 367.034 444.222 363.109C455.056 359.197 465.849 355.804 476.47 353.058C487.002 350.442 497.383 348.585 507.487 347.636C517.501 346.973 527.237 347.334 536.537 348.839Z" stroke="url(#paint11_linear_42_3012)" stroke-opacity="0.05" stroke-width="2" stroke-linecap="round" stroke-dasharray="28 5"/>
<path opacity="0.19" d="M513.758 374.348C523.209 376.887 537.476 385.358 542.168 391.012C545.676 397.316 547.592 411.596 546.041 419.269C544.602 424.477 542.283 429.789 539.161 435.094C536.091 440.468 532.356 445.857 528.061 451.198C524.015 456.648 519.618 462.083 514.978 467.454C510.846 472.982 506.674 478.497 502.571 483.929C497.634 492.233 490.327 507.34 487.702 513.981C484.192 525.498 477.96 537.693 474.639 539.809C470.731 541.554 459.788 542.595 452.674 542.012C447.62 541.74 441.941 541.014 435.677 539.814C429.327 538.923 422.718 537.586 416.014 535.842C409.258 534.334 402.448 532.359 395.725 529.929C389.022 527.642 382.462 524.854 376.166 521.583C369.983 518.389 364.134 514.69 358.751 510.529C353.566 506.407 348.917 501.834 344.943 496.872C339.769 489.322 334.079 472.822 333.911 464.105C334.563 458.362 336.291 452.49 339.162 446.574C342.473 440.793 346.754 435.227 351.86 429.937C357.307 424.763 363.499 419.819 370.281 415.171C377.294 410.584 384.816 406.249 392.689 402.2C400.703 398.204 409.001 394.475 417.437 391.08C425.936 387.716 434.522 384.682 443.056 382.05C451.605 379.476 460.084 377.33 468.347 375.682C476.593 374.155 484.599 373.171 492.246 372.809C499.855 372.634 507.069 373.132 513.758 374.348Z" stroke="url(#paint12_linear_42_3012)" stroke-opacity="0.05" stroke-width="2" stroke-linecap="round" stroke-dasharray="8 22"/>
<path opacity="0.12" d="M483.291 396.463C494.442 400.262 504.24 414.399 503.244 423.611C501.903 430.145 498.715 437.091 494.069 444.043C489.994 451.272 485 458.571 479.43 465.572C475.036 472.968 470.682 479.396 466.514 484.705C461.442 492.579 449.784 502.408 442.042 504.132C436.477 505.216 429.72 504.982 421.904 503.221C413.906 502 405.709 499.362 397.863 495.619C390.083 492.213 382.966 487.554 377.091 481.93C371.617 476.525 367.711 470.128 365.916 463.069C364.816 456.233 366.083 448.82 370.073 441.152C374.926 433.773 382.023 426.874 390.632 420.715C399.801 414.776 410.208 409.548 421.062 405.283C432.162 401.227 443.461 398.177 454.176 396.397C464.919 394.943 474.887 394.884 483.291 396.463Z" stroke="url(#paint13_linear_42_3012)" stroke-opacity="0.05" stroke-linecap="round" stroke-dasharray="16 11"/>
<defs>
<linearGradient id="paint0_linear_42_3012" x1="49653.1" y1="1" x2="49653.1" y2="95040.2" gradientUnits="userSpaceOnUse">
<stop stop-color="#21A89A"/>
<stop offset="1" stop-color="#21A89A" stop-opacity="0"/>
</linearGradient>
<linearGradient id="paint1_linear_42_3012" x1="46407.3" y1="1176.84" x2="44195.3" y2="89875" gradientUnits="userSpaceOnUse">
<stop stop-color="#21A89A"/>
<stop offset="1" stop-color="#21A89A" stop-opacity="0"/>
</linearGradient>
<linearGradient id="paint2_linear_42_3012" x1="43219.5" y1="2194.76" x2="39111.8" y2="84499.6" gradientUnits="userSpaceOnUse">
<stop stop-color="#21A89A"/>
<stop offset="1" stop-color="#21A89A" stop-opacity="0"/>
</linearGradient>
<linearGradient id="paint3_linear_42_3012" x1="39948.9" y1="3049.75" x2="34268.2" y2="78854.2" gradientUnits="userSpaceOnUse">
<stop stop-color="#21A89A"/>
<stop offset="1" stop-color="#21A89A" stop-opacity="0"/>
</linearGradient>
<linearGradient id="paint4_linear_42_3012" x1="36714.5" y1="3747.63" x2="29779.3" y2="73054.9" gradientUnits="userSpaceOnUse">
<stop stop-color="#21A89A"/>
<stop offset="1" stop-color="#21A89A" stop-opacity="0"/>
</linearGradient>
<linearGradient id="paint5_linear_42_3012" x1="33383" y1="4274.96" x2="25514.8" y2="67061.8" gradientUnits="userSpaceOnUse">
<stop stop-color="#21A89A"/>
<stop offset="1" stop-color="#21A89A" stop-opacity="0"/>
</linearGradient>
<linearGradient id="paint6_linear_42_3012" x1="30071.3" y1="4641.69" x2="21592.5" y2="60894.9" gradientUnits="userSpaceOnUse">
<stop stop-color="#21A89A"/>
<stop offset="1" stop-color="#21A89A" stop-opacity="0"/>
</linearGradient>
<linearGradient id="paint7_linear_42_3012" x1="26722.4" y1="4838.66" x2="17958.1" y2="54543.4" gradientUnits="userSpaceOnUse">
<stop stop-color="#21A89A"/>
<stop offset="1" stop-color="#21A89A" stop-opacity="0"/>
</linearGradient>
<linearGradient id="paint8_linear_42_3012" x1="23334.7" y1="4861.58" x2="14612.3" y2="48008.6" gradientUnits="userSpaceOnUse">
<stop stop-color="#21A89A"/>
<stop offset="1" stop-color="#21A89A" stop-opacity="0"/>
</linearGradient>
<linearGradient id="paint9_linear_42_3012" x1="19897.1" y1="4703.38" x2="11538.8" y2="41323.8" gradientUnits="userSpaceOnUse">
<stop stop-color="#21A89A"/>
<stop offset="1" stop-color="#21A89A" stop-opacity="0"/>
</linearGradient>
<linearGradient id="paint10_linear_42_3012" x1="16419.4" y1="4360.72" x2="8745.85" y2="34496.8" gradientUnits="userSpaceOnUse">
<stop stop-color="#21A89A"/>
<stop offset="1" stop-color="#21A89A" stop-opacity="0"/>
</linearGradient>
<linearGradient id="paint11_linear_42_3012" x1="12934.2" y1="3836.77" x2="6246.61" y2="27606.1" gradientUnits="userSpaceOnUse">
<stop stop-color="#21A89A"/>
<stop offset="1" stop-color="#21A89A" stop-opacity="0"/>
</linearGradient>
<linearGradient id="paint12_linear_42_3012" x1="9469.5" y1="3136.81" x2="4055.64" y2="20688.1" gradientUnits="userSpaceOnUse">
<stop stop-color="#21A89A"/>
<stop offset="1" stop-color="#21A89A" stop-opacity="0"/>
</linearGradient>
<linearGradient id="paint13_linear_42_3012" x1="6153.43" y1="2301.53" x2="2271.01" y2="13857" gradientUnits="userSpaceOnUse">
<stop stop-color="#21A89A"/>
<stop offset="1" stop-color="#21A89A" stop-opacity="0"/>
</linearGradient>
</defs>
</svg>
