<svg width="26" height="32" viewBox="0 0 26 32" fill="none" xmlns="http://www.w3.org/2000/svg">
<path d="M11.7055 31.3544C2.34919 18.1894 0.612488 16.8383 0.612488 12C0.612488 5.37256 6.14785 0 12.9761 0C19.8044 0 25.3398 5.37256 25.3398 12C25.3398 16.8383 23.6031 18.1894 14.2467 31.3544C13.6327 32.2152 12.3194 32.2152 11.7055 31.3544ZM12.9761 17C15.8212 17 18.1276 14.7614 18.1276 12C18.1276 9.23856 15.8212 7 12.9761 7C10.131 7 7.82461 9.23856 7.82461 12C7.82461 14.7614 10.131 17 12.9761 17Z" fill="#FEFEFE"/>
</svg>
