<svg width="194" height="64" viewBox="0 0 194 64" fill="none" xmlns="http://www.w3.org/2000/svg">
<g clip-path="url(#clip0_35_376)">
<path d="M39.6668 63.1301C37.4696 63.6065 35.1896 63.855 32.8681 63.855C15.2494 63.855 0.719229 49.1288 0.926507 31.5236C1.15451 14.0841 15.3738 0 32.8681 0C35.1896 0 37.4696 0.248544 39.6668 0.724919C42.2785 1.28414 43.0454 4.68091 40.8897 6.25502C33.0339 12.0751 27.9348 21.3955 27.9348 31.9172C27.9348 42.4388 33.0546 51.7799 40.9105 57.6C43.0454 59.1948 42.2785 62.5709 39.6668 63.1301Z" fill="#FEFEFE"/>
<path d="M58.6536 56.6677V35.3965H62.7162L72.6448 51.5104H71.6706V35.3965H75.6089V56.6677H71.5255L61.6384 40.5331H62.6126V56.6677H58.6536Z" fill="#FEFEFE"/>
<path d="M79.3606 39.311V35.3965H83.4232V39.311H79.3606ZM79.485 56.6677V41.6308H83.2781V56.6677H79.485Z" fill="#FEFEFE"/>
<path d="M93.3519 63.1918C91.1133 63.1918 89.3514 62.7983 88.0456 62.0112C86.7605 61.2242 86.0972 60.1265 86.0972 58.718C86.0972 58.5938 86.0972 58.4488 86.1179 58.2831C86.1386 58.1174 86.1594 57.9517 86.2008 57.786L90.4086 55.1556L91.362 56.2326L89.4343 58.5731C89.4136 58.6352 89.4136 58.6766 89.4136 58.718C89.4136 58.7595 89.4136 58.8009 89.4136 58.8423C89.4136 59.4015 89.766 59.8572 90.4915 60.1472C91.1962 60.4578 92.1497 60.6028 93.3312 60.6028C94.3261 60.6028 95.093 60.4786 95.6112 60.23C96.1502 59.9815 96.3989 59.6087 96.3989 59.1116C96.3989 58.8423 96.3367 58.6352 96.1916 58.4695C96.0465 58.3038 95.8185 58.1795 95.4869 58.076C95.1552 57.9724 94.7407 57.8896 94.2225 57.8067C93.7043 57.7239 93.0824 57.641 92.3362 57.5375C91.4035 57.4339 90.4915 57.2475 89.5794 56.9782C88.6881 56.709 87.9419 56.2947 87.3408 55.7562C86.7605 55.2177 86.4495 54.4928 86.4495 53.6022C86.4495 52.8151 86.719 52.0902 87.2786 51.4274C87.8383 50.7646 88.543 50.2261 89.4551 49.7912L91.2791 51.2617C90.7195 51.3446 90.3256 51.531 90.0355 51.821C89.766 52.1109 89.6209 52.4423 89.6209 52.8358C89.6209 53.1672 89.7453 53.4158 90.0147 53.6229C90.2842 53.8093 90.6573 53.9543 91.1547 54.0578C91.6522 54.1614 92.2326 54.2443 92.8959 54.3271C93.9323 54.4721 94.8858 54.6171 95.777 54.7828C96.6683 54.9485 97.4353 55.1763 98.0986 55.4663C98.7619 55.7562 99.2593 56.1705 99.6324 56.6676C99.9848 57.1854 100.171 57.8274 100.171 58.6559C100.171 60.1472 99.5702 61.2656 98.3888 62.0527C97.228 62.7983 95.5491 63.1918 93.3519 63.1918ZM93.041 52.463C91.7766 52.463 90.678 52.2145 89.7245 51.7381C88.7711 51.2617 88.0456 50.5989 87.5067 49.7912C86.9677 48.9627 86.719 48.01 86.719 46.9329C86.719 45.8145 86.9885 44.841 87.5688 43.9918C88.1285 43.1426 88.8747 42.5006 89.8282 42.0242C90.7817 41.5478 91.818 41.32 92.9373 41.32C94.0359 41.32 95.0516 41.5478 96.0051 42.0242C96.9585 42.5006 97.7047 43.1634 98.2851 44.0333C98.8655 44.9032 99.1557 45.918 99.1557 47.0779C99.1557 48.1756 98.8862 49.1284 98.368 49.9362C97.8498 50.7439 97.1244 51.3653 96.2123 51.821C95.3003 52.2352 94.2432 52.463 93.041 52.463ZM92.9373 49.4598C93.7457 49.4598 94.3676 49.2112 94.7614 48.7142C95.1552 48.2171 95.3625 47.6164 95.3625 46.8915C95.3625 46.1666 95.1552 45.5659 94.7199 45.1103C94.2847 44.6546 93.7043 44.4268 92.9581 44.4268C92.2119 44.4268 91.6108 44.6546 91.1755 45.131C90.7402 45.6074 90.5122 46.1873 90.5122 46.8915C90.5122 47.5957 90.7195 48.2171 91.1133 48.7142C91.5278 49.2112 92.129 49.4598 92.9373 49.4598ZM98.0986 44.7996L95.3832 43.0391L98.8655 40.2637L100.793 42.6041L98.0986 44.7996Z" fill="#FEFEFE"/>
<path d="M102.928 56.6677V35.3965H106.742V45.0483L106.1 45.1311C106.369 44.2198 106.763 43.4742 107.281 42.9149C107.799 42.3557 108.4 41.9415 109.084 41.6929C109.768 41.4444 110.452 41.3201 111.136 41.3201C112.836 41.3201 114.183 41.7965 115.158 42.7699C116.132 43.7434 116.609 45.0897 116.609 46.8502V56.6677H112.795V48.2379C112.795 46.9745 112.567 46.0632 112.131 45.4832C111.675 44.9033 110.991 44.6133 110.017 44.6133C108.939 44.6133 108.131 45.0068 107.571 45.7732C107.012 46.5395 106.742 47.7822 106.742 49.4599V56.6677H102.928Z" fill="#FEFEFE"/>
<path d="M118.598 44.5919V41.6301H128.465V44.5919H118.598ZM125.895 56.9777C125.086 56.9777 124.319 56.8327 123.635 56.522C122.951 56.2113 122.392 55.7143 121.977 55.0308C121.562 54.3473 121.355 53.4152 121.355 52.2554V38.1091L125.211 36.0586V51.199C125.211 52.069 125.335 52.7317 125.563 53.1874C125.791 53.6431 126.268 53.8502 126.952 53.8502C127.159 53.8502 127.387 53.8295 127.636 53.788C127.884 53.7466 128.175 53.6845 128.486 53.6016V56.5013C128.05 56.667 127.636 56.7706 127.2 56.8534C126.744 56.9363 126.33 56.9777 125.895 56.9777Z" fill="#FEFEFE"/>
<path d="M66.157 29.6592C63.7733 29.6592 61.8042 29.0379 60.2703 27.7951C58.7364 26.5524 57.8037 24.8955 57.472 22.8243L61.5347 21.8301C61.7627 23.1971 62.3224 24.2327 63.1722 24.9369C64.022 25.6204 65.0792 25.9725 66.3228 25.9725C66.9861 25.9725 67.5872 25.8689 68.1054 25.6411C68.6236 25.4133 69.0589 25.0819 69.3698 24.6469C69.6807 24.212 69.8466 23.6942 69.8466 23.0728C69.8466 22.5136 69.6807 22.0372 69.3698 21.623C69.0382 21.2087 68.5614 20.8359 67.8981 20.4838C67.2349 20.1317 66.4265 19.7796 65.4315 19.4275C64.0013 18.8683 62.8198 18.2676 61.8663 17.6463C60.9129 17.0042 60.1874 16.2793 59.7107 15.4301C59.2339 14.5809 59.0059 13.6074 59.0059 12.4683C59.0059 11.267 59.2961 10.19 59.8972 9.27863C60.4983 8.34659 61.3274 7.62167 62.3845 7.08316C63.4417 6.54465 64.6853 6.27539 66.1155 6.27539C67.6287 6.27539 68.9553 6.62749 70.1367 7.3317C71.3182 8.03591 72.251 9.07151 72.9557 10.4385L69.6185 12.4683C69.1625 11.6605 68.6236 11.0391 68.0225 10.6042C67.4007 10.19 66.7167 9.98283 65.9705 9.98283C65.4315 9.98283 64.9548 10.0864 64.5402 10.2935C64.1257 10.5006 63.794 10.7699 63.5453 11.1427C63.2966 11.4948 63.1722 11.909 63.1722 12.3854C63.1722 12.8825 63.3173 13.3175 63.6075 13.711C63.8977 14.1045 64.3744 14.4773 65.0377 14.8294C65.701 15.1815 66.5508 15.5544 67.608 15.9479C69.0174 16.4657 70.1782 17.0249 71.111 17.667C72.0437 18.2883 72.7692 19.0133 73.2666 19.8417C73.7641 20.6702 74.0128 21.6851 74.0128 22.8657C74.0128 24.1912 73.6812 25.3925 73.0179 26.4281C72.3546 27.4637 71.4426 28.2922 70.2818 28.8722C69.1004 29.3692 67.7323 29.6592 66.157 29.6592Z" fill="#FEFEFE"/>
<path d="M80.8323 29.5551C79.7337 29.5551 78.8217 29.2237 78.1169 28.5609C77.4122 27.8981 77.0598 26.8418 77.0598 25.392V6.73047H81.0396V24.6049C81.0396 25.0606 81.1432 25.3712 81.3712 25.5577C81.5785 25.7441 81.8687 25.8269 82.221 25.8269C82.3869 25.8269 82.5734 25.8062 82.76 25.7855C82.9465 25.7441 83.1538 25.7026 83.3818 25.6405V29.058C82.9258 29.2237 82.4905 29.3479 82.0345 29.4308C81.5578 29.5344 81.1639 29.5551 80.8323 29.5551Z" fill="#FEFEFE"/>
<path d="M93.2068 29.5547C91.8388 29.5547 90.6365 29.3269 89.6623 28.8712C88.6674 28.4156 87.859 27.8149 87.2165 27.0486C86.5739 26.2822 86.1179 25.4123 85.807 24.4389C85.496 23.4654 85.351 22.4298 85.351 21.3528C85.351 20.3172 85.496 19.3023 85.807 18.3288C86.1179 17.3347 86.5532 16.444 87.1543 15.657C87.7554 14.8699 88.543 14.2279 89.4965 13.7308C90.45 13.2544 91.6108 13.0059 92.9373 13.0059C94.181 13.0059 95.2796 13.213 96.1916 13.6272C97.1244 14.0415 97.8913 14.6214 98.4924 15.367C99.0935 16.1127 99.5495 16.9826 99.8604 17.956C100.171 18.9502 100.337 20.0065 100.337 21.125C100.337 21.2699 100.337 21.4771 100.316 21.7463C100.296 22.0156 100.275 22.3055 100.234 22.5955H89.3514C89.4551 23.7347 89.8903 24.6046 90.6365 25.1845C91.3827 25.7644 92.3155 26.0544 93.4348 26.0544C94.2432 26.0544 95.0516 25.9094 95.8185 25.6195C96.5854 25.3295 97.2902 24.9152 97.8913 24.3767L99.9019 27.09C99.1557 27.6699 98.4302 28.1463 97.7669 28.5191C97.1036 28.8919 96.3989 29.1405 95.6734 29.3062C94.9479 29.4926 94.1188 29.5547 93.2068 29.5547ZM96.3574 20.6279C96.3989 20.4622 96.4403 20.2758 96.4611 20.1101C96.5025 19.9444 96.5025 19.7787 96.5025 19.6337C96.5025 19.178 96.4196 18.7638 96.2538 18.3495C96.088 17.956 95.8392 17.6039 95.549 17.2932C95.2381 16.9826 94.8858 16.7547 94.4712 16.589C94.0566 16.4233 93.5799 16.3405 93.041 16.3405C92.2533 16.3405 91.5693 16.5062 91.0304 16.8169C90.4915 17.1483 90.0976 17.5625 89.8282 18.0596C89.5587 18.5567 89.3929 19.0952 89.3307 19.6337H97.7255L96.3574 20.6279Z" fill="#FEFEFE"/>
<path d="M110.68 29.5547C109.312 29.5547 108.11 29.3269 107.136 28.8712C106.141 28.4156 105.333 27.8149 104.69 27.0486C104.047 26.2822 103.591 25.4123 103.28 24.4389C102.97 23.4654 102.824 22.4298 102.824 21.3528C102.824 20.3172 102.97 19.3023 103.28 18.3288C103.591 17.3347 104.027 16.444 104.628 15.657C105.229 14.8699 106.017 14.2279 106.97 13.7308C107.924 13.2544 109.084 13.0059 110.411 13.0059C111.655 13.0059 112.753 13.213 113.665 13.6272C114.598 14.0415 115.365 14.6214 115.966 15.367C116.567 16.1127 117.023 16.9826 117.334 17.956C117.645 18.9502 117.811 20.0065 117.811 21.125C117.811 21.2699 117.811 21.4771 117.79 21.7463C117.769 22.0156 117.748 22.3055 117.707 22.5955H106.825C106.929 23.7347 107.364 24.6046 108.11 25.1845C108.856 25.7644 109.789 26.0544 110.908 26.0544C111.717 26.0544 112.525 25.9094 113.292 25.6195C114.059 25.3295 114.764 24.9152 115.365 24.3767L117.375 27.09C116.629 27.6699 115.904 28.1463 115.24 28.5191C114.577 28.8919 113.872 29.1405 113.147 29.3062C112.421 29.4926 111.592 29.5547 110.68 29.5547ZM113.831 20.6279C113.872 20.4622 113.914 20.2758 113.935 20.1101C113.976 19.9444 113.976 19.7787 113.976 19.6337C113.976 19.178 113.893 18.7638 113.727 18.3495C113.561 17.956 113.313 17.6039 113.023 17.2932C112.712 16.9826 112.359 16.7547 111.945 16.589C111.53 16.4233 111.053 16.3405 110.514 16.3405C109.727 16.3405 109.043 16.5062 108.504 16.8169C107.965 17.1483 107.571 17.5625 107.302 18.0596C107.032 18.5567 106.866 19.0952 106.804 19.6337H115.199L113.831 20.6279Z" fill="#FEFEFE"/>
<path d="M121.189 35.3142V13.3388H125.045V17.6055L124.07 17.9369C124.34 16.6734 124.775 15.6792 125.356 14.975C125.936 14.2708 126.579 13.7737 127.304 13.4838C128.03 13.1938 128.796 13.0488 129.605 13.0488C131.014 13.0488 132.217 13.4009 133.232 14.1259C134.248 14.8508 135.036 15.8242 135.574 17.0877C136.113 18.3304 136.383 19.7595 136.383 21.3543C136.383 23.0734 136.072 24.5647 135.471 25.7867C134.87 27.0294 134.041 27.9615 133.025 28.6242C131.989 29.287 130.848 29.6184 129.605 29.6184C128.755 29.6184 127.967 29.4527 127.221 29.1006C126.475 28.7485 125.832 28.2307 125.293 27.5265C124.775 26.8223 124.402 25.9317 124.216 24.8547L125.065 24.9789L125.045 33.3051L121.189 35.3142ZM128.506 25.8903C129.294 25.8903 129.978 25.7038 130.558 25.331C131.139 24.9582 131.574 24.4197 131.906 23.7362C132.237 23.0527 132.382 22.2449 132.382 21.3129C132.382 20.3602 132.217 19.5524 131.906 18.8689C131.574 18.1854 131.139 17.6469 130.558 17.2741C129.978 16.9013 129.294 16.7148 128.506 16.7148C127.739 16.7148 127.055 16.9013 126.496 17.2948C125.915 17.6883 125.48 18.2061 125.169 18.8896C124.858 19.5731 124.692 20.3809 124.692 21.3336C124.692 22.2657 124.858 23.0734 125.169 23.7569C125.48 24.4404 125.915 24.9789 126.496 25.3517C127.055 25.7038 127.719 25.8903 128.506 25.8903Z" fill="#FEFEFE"/>
<path d="M143.285 29.5551C142.187 29.5551 141.275 29.2237 140.57 28.5609C139.865 27.8981 139.513 26.8418 139.513 25.392V6.73047H143.492V24.6049C143.492 25.0606 143.596 25.3712 143.824 25.5577C144.031 25.7441 144.322 25.8269 144.674 25.8269C144.84 25.8269 145.026 25.8062 145.213 25.7855C145.399 25.7441 145.607 25.7026 145.835 25.6405V29.058C145.379 29.2237 144.943 29.3479 144.487 29.4308C144.031 29.5344 143.638 29.5551 143.285 29.5551Z" fill="#FEFEFE"/>
<path d="M155.66 29.5547C154.292 29.5547 153.089 29.3269 152.115 28.8712C151.12 28.4156 150.312 27.8149 149.669 27.0486C149.027 26.2822 148.571 25.4123 148.26 24.4389C147.949 23.4654 147.804 22.4298 147.804 21.3528C147.804 20.3172 147.949 19.3023 148.26 18.3288C148.571 17.3347 149.006 16.444 149.607 15.657C150.208 14.8699 150.996 14.2279 151.949 13.7308C152.903 13.2544 154.064 13.0059 155.39 13.0059C156.634 13.0059 157.732 13.213 158.644 13.6272C159.577 14.0415 160.344 14.6214 160.945 15.367C161.546 16.1127 162.002 16.9826 162.313 17.956C162.624 18.9502 162.79 20.0065 162.79 21.125C162.79 21.2699 162.79 21.4771 162.769 21.7463C162.749 22.0156 162.728 22.3055 162.686 22.5955H151.825C151.929 23.7347 152.364 24.6046 153.11 25.1845C153.856 25.7644 154.789 26.0544 155.908 26.0544C156.717 26.0544 157.525 25.9094 158.292 25.6195C159.059 25.3295 159.764 24.9152 160.365 24.3767L162.375 27.09C161.629 27.6699 160.904 28.1463 160.241 28.5191C159.577 28.8919 158.872 29.1405 158.147 29.3062C157.401 29.4926 156.592 29.5547 155.66 29.5547ZM158.831 20.6279C158.872 20.4622 158.914 20.2758 158.935 20.1101C158.976 19.9444 158.976 19.7787 158.976 19.6337C158.976 19.178 158.893 18.7638 158.727 18.3495C158.562 17.956 158.313 17.6039 158.023 17.2932C157.712 16.9826 157.359 16.7547 156.945 16.589C156.53 16.4233 156.054 16.3405 155.515 16.3405C154.727 16.3405 154.043 16.5062 153.504 16.8169C152.965 17.1483 152.571 17.5625 152.302 18.0596C152.032 18.5567 151.866 19.0952 151.804 19.6337H160.199L158.831 20.6279Z" fill="#FEFEFE"/>
<path d="M171.558 29.5547C170.376 29.5547 169.34 29.389 168.449 29.0369C167.558 28.6848 166.811 28.2706 166.21 27.7528C165.588 27.235 165.112 26.7379 164.739 26.2615L167.475 23.8796C167.848 24.4803 168.366 25.0395 169.05 25.5366C169.734 26.0337 170.563 26.3029 171.579 26.3029C172.366 26.3029 172.988 26.1373 173.444 25.8266C173.879 25.5159 174.107 25.1224 174.107 24.646C174.107 24.2525 173.962 23.9418 173.693 23.6932C173.403 23.4447 173.03 23.2376 172.553 23.0719C172.076 22.9062 171.558 22.7612 170.978 22.5955C170.376 22.4298 169.755 22.2227 169.112 22.0156C168.47 21.8084 167.868 21.5185 167.33 21.1664C166.791 20.8143 166.355 20.3586 166.024 19.7994C165.692 19.2402 165.526 18.536 165.526 17.7075C165.526 16.2991 166.065 15.1806 167.164 14.3107C168.262 13.4408 169.713 13.0059 171.517 13.0059C172.781 13.0059 173.942 13.2544 174.978 13.7722C176.014 14.2693 176.823 14.9942 177.424 15.947L174.937 17.9146C174.543 17.2932 174.045 16.8169 173.403 16.5062C172.76 16.1955 172.097 16.0298 171.392 16.0298C170.77 16.0298 170.252 16.1541 169.858 16.3819C169.464 16.6097 169.257 16.9411 169.257 17.3554C169.257 17.6453 169.34 17.8732 169.527 18.0596C169.713 18.246 170.003 18.4117 170.439 18.5567C170.853 18.7017 171.413 18.8466 172.097 19.033C172.739 19.178 173.403 19.3644 174.107 19.5716C174.792 19.7787 175.434 20.0686 176.035 20.4415C176.636 20.8143 177.113 21.2906 177.486 21.8913C177.859 22.4919 178.025 23.2583 178.025 24.1903C178.025 25.2466 177.756 26.1787 177.217 26.9864C176.678 27.7942 175.932 28.4156 174.957 28.8712C174.004 29.3476 172.864 29.5547 171.558 29.5547Z" fill="#FEFEFE"/>
<path d="M186.793 29.5547C185.611 29.5547 184.575 29.389 183.684 29.0369C182.792 28.6848 182.046 28.2706 181.445 27.7528C180.823 27.235 180.346 26.7379 179.973 26.2615L182.709 23.8796C183.083 24.4803 183.601 25.0395 184.285 25.5366C184.969 26.0337 185.798 26.3029 186.814 26.3029C187.601 26.3029 188.223 26.1373 188.679 25.8266C189.114 25.5159 189.342 25.1224 189.342 24.646C189.342 24.2525 189.197 23.9418 188.928 23.6932C188.638 23.4447 188.265 23.2376 187.788 23.0719C187.311 22.9062 186.793 22.7612 186.212 22.5955C185.611 22.4298 184.99 22.2227 184.347 22.0156C183.704 21.8084 183.103 21.5185 182.564 21.1664C182.025 20.8143 181.59 20.3586 181.259 19.7994C180.927 19.2402 180.761 18.536 180.761 17.7075C180.761 16.2991 181.3 15.1806 182.399 14.3107C183.497 13.4408 184.948 13.0059 186.751 13.0059C188.016 13.0059 189.177 13.2544 190.213 13.7722C191.249 14.2693 192.058 14.9942 192.659 15.947L190.171 17.9146C189.778 17.2932 189.28 16.8169 188.638 16.5062C187.995 16.1955 187.332 16.0298 186.627 16.0298C186.005 16.0298 185.487 16.1541 185.093 16.3819C184.699 16.6097 184.492 16.9411 184.492 17.3554C184.492 17.6453 184.575 17.8732 184.762 18.0596C184.948 18.246 185.238 18.4117 185.674 18.5567C186.088 18.7017 186.648 18.8466 187.332 19.033C187.974 19.178 188.638 19.3644 189.342 19.5716C190.026 19.7787 190.669 20.0686 191.27 20.4415C191.871 20.8143 192.348 21.2906 192.721 21.8913C193.094 22.4919 193.26 23.2583 193.26 24.1903C193.26 25.2466 192.99 26.1787 192.452 26.9864C191.913 27.7942 191.166 28.4156 190.192 28.8712C189.259 29.3476 188.119 29.5547 186.793 29.5547Z" fill="#FEFEFE"/>
</g>
<defs>
<clipPath id="clip0_35_376">
<rect width="192.561" height="64" fill="white" transform="translate(0.719238)"/>
</clipPath>
</defs>
</svg>
