<svg width="65" height="64" viewBox="0 0 65 64" fill="none" xmlns="http://www.w3.org/2000/svg">
<g clip-path="url(#clip0_35_248)">
<path d="M5.40076 0H59.1608C61.9981 0 64.2808 2.28267 64.2808 5.12V58.88C64.2808 61.7173 61.9981 64 59.1608 64H5.40076C2.56343 64 0.280762 61.7173 0.280762 58.88V5.12C0.280762 2.28267 2.56343 0 5.40076 0Z" fill="#FEFEFE"/>
<path d="M50.6274 45.1196V35.0076C50.6274 34.5383 50.2434 34.1543 49.7741 34.1543H46.3608C45.8914 34.1543 45.5074 34.5383 45.5074 35.0076V43.797C47.1928 44.1383 48.8994 44.5863 50.6274 45.1196Z" fill="#101010"/>
<path d="M34.8407 42.5603V17.7283C34.8407 17.259 34.4567 16.875 33.9874 16.875H30.574C30.1047 16.875 29.7207 17.259 29.7207 17.7283V42.667C31.3847 42.5603 33.0914 42.539 34.8407 42.5603Z" fill="#101010"/>
<path d="M42.7341 43.2844V27.7537C42.7341 27.2844 42.3501 26.9004 41.8808 26.9004H38.4675C37.9981 26.9004 37.6141 27.2844 37.6141 27.7537V42.6871C39.2995 42.8151 41.0061 43.0071 42.7341 43.2844Z" fill="#101010"/>
<path d="M26.9474 42.9004V27.7537C26.9474 27.2844 26.5634 26.9004 26.0941 26.9004H22.6807C22.2114 26.9004 21.8274 27.2844 21.8274 27.7537V43.6257C23.4701 43.3271 25.1767 43.0711 26.9474 42.9004Z" fill="#101010"/>
<path d="M19.0541 44.2023V35.0076C19.0541 34.5383 18.6701 34.1543 18.2007 34.1543H14.7874C14.3181 34.1543 13.9341 34.5383 13.9341 35.0076V45.5463C15.5341 45.0556 17.2407 44.6076 19.0541 44.2023Z" fill="#101010"/>
</g>
<defs>
<clipPath id="clip0_35_248">
<rect x="0.280762" width="64" height="64" rx="32" fill="white"/>
</clipPath>
</defs>
</svg>
