<svg width="466" height="271" viewBox="0 0 466 271" fill="none" xmlns="http://www.w3.org/2000/svg">
<mask id="mask0_663_4150" style="mask-type:luminance" maskUnits="userSpaceOnUse" x="0" y="0" width="466" height="271">
<path d="M0 0H466V271H0V0Z" fill="white"/>
</mask>
<g mask="url(#mask0_663_4150)">
<path d="M382.786 9.67871H416.072C424.899 9.67871 433.367 11.7181 439.608 15.3483C445.849 18.9785 449.358 23.902 449.358 29.0359V48.393" stroke="#E5E9E7" stroke-width="7.37498" stroke-linecap="round" stroke-linejoin="round"/>
<path d="M16.6426 48.393V29.0359C16.6426 23.902 20.1495 18.9785 26.3917 15.3483C32.634 11.7181 41.1003 9.67871 49.9283 9.67871H83.214" stroke="#E5E9E7" stroke-width="7.37498" stroke-linecap="round" stroke-linejoin="round"/>
<path d="M183.071 9.67871H282.928" stroke="#E5E9E7" stroke-width="7.37498" stroke-linecap="round" stroke-linejoin="round"/>
<path d="M449.357 106.465V164.536" stroke="#E5E9E7" stroke-width="7.37498" stroke-linecap="round" stroke-linejoin="round"/>
<path d="M16.6426 106.465V164.536" stroke="#E5E9E7" stroke-width="7.37498" stroke-linecap="round" stroke-linejoin="round"/>
<path d="M382.786 261.323H416.072C424.899 261.323 433.367 259.282 439.608 255.653C445.849 252.024 449.358 247.099 449.358 241.966V222.608" stroke="#E5E9E7" stroke-width="7.37498" stroke-linecap="round" stroke-linejoin="round"/>
<path d="M16.6426 222.608V241.966C16.6426 247.099 20.1495 252.024 26.3917 255.653C32.634 259.282 41.1003 261.323 49.9283 261.323H83.214" stroke="#E5E9E7" stroke-width="7.37498" stroke-linecap="round" stroke-linejoin="round"/>
<path d="M183.071 261.321H282.928" stroke="#E5E9E7" stroke-width="7.37498" stroke-linecap="round" stroke-linejoin="round"/>
<path d="M144.595 183.24C143.605 183.24 142.73 183.01 141.97 182.55C141.22 182.09 140.635 181.45 140.215 180.63C139.795 179.81 139.585 178.855 139.585 177.765C139.585 176.675 139.795 175.725 140.215 174.915C140.635 174.095 141.22 173.455 141.97 172.995C142.73 172.535 143.605 172.305 144.595 172.305C145.705 172.305 146.66 172.585 147.46 173.145C148.27 173.695 148.85 174.455 149.2 175.425L147.37 176.1C147.15 175.49 146.8 175.015 146.32 174.675C145.85 174.335 145.275 174.165 144.595 174.165C143.975 174.165 143.43 174.31 142.96 174.6C142.5 174.89 142.145 175.305 141.895 175.845C141.655 176.375 141.535 177.015 141.535 177.765C141.535 178.515 141.655 179.16 141.895 179.7C142.145 180.24 142.5 180.655 142.96 180.945C143.43 181.235 143.975 181.38 144.595 181.38C145.275 181.38 145.85 181.21 146.32 180.87C146.8 180.53 147.15 180.055 147.37 179.445L149.2 180.105C148.85 181.075 148.27 181.84 147.46 182.4C146.66 182.96 145.705 183.24 144.595 183.24Z" fill="white"/>
<path d="M150.15 183V172.545H152.025V177.285L151.71 177.33C151.84 176.88 152.03 176.52 152.28 176.25C152.54 175.97 152.835 175.77 153.165 175.65C153.505 175.52 153.845 175.455 154.185 175.455C155.025 175.455 155.68 175.695 156.15 176.175C156.63 176.645 156.87 177.31 156.87 178.17V183H154.995V178.86C154.995 178.24 154.885 177.79 154.665 177.51C154.445 177.22 154.1 177.075 153.63 177.075C153.1 177.075 152.7 177.265 152.43 177.645C152.16 178.025 152.025 178.63 152.025 179.46V183H150.15ZM161.607 183.15C160.887 183.15 160.247 182.985 159.687 182.655C159.127 182.325 158.682 181.87 158.352 181.29C158.032 180.7 157.872 180.035 157.872 179.295C157.872 178.545 158.032 177.885 158.352 177.315C158.672 176.735 159.112 176.28 159.672 175.95C160.242 175.62 160.887 175.455 161.607 175.455C162.317 175.455 162.952 175.62 163.512 175.95C164.072 176.28 164.512 176.735 164.832 177.315C165.152 177.885 165.312 178.545 165.312 179.295C165.312 180.035 165.152 180.695 164.832 181.275C164.512 181.855 164.072 182.315 163.512 182.655C162.952 182.985 162.317 183.15 161.607 183.15ZM161.607 181.515C161.987 181.515 162.312 181.425 162.582 181.245C162.862 181.065 163.072 180.81 163.212 180.48C163.362 180.15 163.437 179.755 163.437 179.295C163.437 178.825 163.362 178.43 163.212 178.11C163.072 177.78 162.862 177.53 162.582 177.36C162.312 177.18 161.987 177.09 161.607 177.09C161.217 177.09 160.882 177.18 160.602 177.36C160.322 177.53 160.107 177.78 159.957 178.11C159.807 178.43 159.732 178.825 159.732 179.295C159.732 179.755 159.807 180.15 159.957 180.48C160.107 180.81 160.322 181.065 160.602 181.245C160.882 181.425 161.217 181.515 161.607 181.515ZM166.386 183V175.605H168.246V183H166.386ZM166.326 174.465V172.545H168.321V174.465H166.326ZM172.242 183.15C171.692 183.15 171.212 183.07 170.802 182.91C170.392 182.75 170.042 182.55 169.752 182.31C169.472 182.07 169.247 181.84 169.077 181.62L170.352 180.51C170.522 180.79 170.762 181.05 171.072 181.29C171.392 181.52 171.787 181.635 172.257 181.635C172.627 181.635 172.912 181.565 173.112 181.425C173.322 181.275 173.427 181.09 173.427 180.87C173.427 180.69 173.362 180.545 173.232 180.435C173.102 180.315 172.927 180.22 172.707 180.15C172.487 180.07 172.242 179.995 171.972 179.925C171.692 179.845 171.402 179.755 171.102 179.655C170.802 179.555 170.527 179.425 170.277 179.265C170.027 179.095 169.822 178.88 169.662 178.62C169.512 178.36 169.437 178.035 169.437 177.645C169.437 176.995 169.692 176.47 170.202 176.07C170.712 175.66 171.387 175.455 172.227 175.455C172.817 175.455 173.352 175.575 173.832 175.815C174.312 176.045 174.692 176.38 174.972 176.82L173.817 177.735C173.637 177.445 173.397 177.23 173.097 177.09C172.807 176.94 172.497 176.865 172.167 176.865C171.877 176.865 171.637 176.92 171.447 177.03C171.267 177.14 171.177 177.29 171.177 177.48C171.177 177.61 171.217 177.72 171.297 177.81C171.387 177.9 171.527 177.98 171.717 178.05C171.917 178.11 172.177 178.18 172.497 178.26C172.797 178.33 173.107 178.415 173.427 178.515C173.747 178.615 174.047 178.75 174.327 178.92C174.607 179.09 174.832 179.315 175.002 179.595C175.172 179.875 175.257 180.23 175.257 180.66C175.257 181.15 175.132 181.585 174.882 181.965C174.632 182.335 174.282 182.625 173.832 182.835C173.382 183.045 172.852 183.15 172.242 183.15ZM178.918 183.15C178.368 183.15 177.888 183.07 177.478 182.91C177.068 182.75 176.718 182.55 176.427 182.31C176.148 182.07 175.923 181.84 175.753 181.62L177.028 180.51C177.198 180.79 177.438 181.05 177.748 181.29C178.068 181.52 178.463 181.635 178.933 181.635C179.303 181.635 179.588 181.565 179.788 181.425C179.998 181.275 180.103 181.09 180.103 180.87C180.103 180.69 180.038 180.545 179.908 180.435C179.778 180.315 179.603 180.22 179.383 180.15C179.163 180.07 178.918 179.995 178.648 179.925C178.368 179.845 178.078 179.755 177.778 179.655C177.478 179.555 177.203 179.425 176.953 179.265C176.703 179.095 176.498 178.88 176.338 178.62C176.188 178.36 176.113 178.035 176.113 177.645C176.113 176.995 176.368 176.47 176.878 176.07C177.388 175.66 178.063 175.455 178.903 175.455C179.493 175.455 180.028 175.575 180.508 175.815C180.988 176.045 181.368 176.38 181.648 176.82L180.493 177.735C180.313 177.445 180.073 177.23 179.773 177.09C179.483 176.94 179.173 176.865 178.843 176.865C178.553 176.865 178.313 176.92 178.123 177.03C177.943 177.14 177.853 177.29 177.853 177.48C177.853 177.61 177.893 177.72 177.973 177.81C178.063 177.9 178.203 177.98 178.393 178.05C178.593 178.11 178.853 178.18 179.173 178.26C179.473 178.33 179.783 178.415 180.103 178.515C180.423 178.615 180.723 178.75 181.003 178.92C181.283 179.09 181.508 179.315 181.678 179.595C181.848 179.875 181.933 180.23 181.933 180.66C181.933 181.15 181.808 181.585 181.558 181.965C181.308 182.335 180.958 182.625 180.508 182.835C180.058 183.045 179.528 183.15 178.918 183.15ZM183.013 183V175.605H184.873V183H183.013ZM182.953 174.465V172.545H184.948V174.465H182.953ZM186.304 183V175.605H188.179V177.615L187.894 177.645C187.924 177.215 188.054 176.835 188.284 176.505C188.514 176.175 188.794 175.92 189.124 175.74C189.464 175.55 189.809 175.455 190.159 175.455C190.409 175.455 190.644 175.49 190.864 175.56C191.094 175.62 191.329 175.725 191.569 175.875L190.669 177.555C190.559 177.495 190.419 177.44 190.249 177.39C190.079 177.34 189.909 177.315 189.739 177.315C189.539 177.315 189.344 177.35 189.154 177.42C188.974 177.49 188.809 177.6 188.659 177.75C188.519 177.9 188.404 178.1 188.314 178.35C188.274 178.49 188.239 178.67 188.209 178.89C188.189 179.1 188.179 179.41 188.179 179.82V183H186.304ZM198.398 183.15C197.798 183.15 197.293 183.03 196.883 182.79C196.483 182.55 196.183 182.21 195.983 181.77C195.793 181.33 195.698 180.815 195.698 180.225V175.605H197.558V179.76C197.558 180.1 197.598 180.405 197.678 180.675C197.758 180.935 197.898 181.145 198.098 181.305C198.308 181.455 198.593 181.53 198.953 181.53C199.393 181.53 199.723 181.405 199.943 181.155C200.173 180.905 200.328 180.56 200.408 180.12C200.498 179.67 200.543 179.145 200.543 178.545V175.605H202.403V183H200.543V181.395L200.798 181.545C200.578 182.115 200.253 182.525 199.823 182.775C199.393 183.025 198.918 183.15 198.398 183.15ZM203.854 183V175.605H205.729V177.285L205.429 177.315C205.559 176.865 205.749 176.505 205.999 176.235C206.249 175.965 206.539 175.77 206.869 175.65C207.199 175.52 207.539 175.455 207.889 175.455C208.729 175.455 209.384 175.695 209.854 176.175C210.334 176.645 210.574 177.31 210.574 178.17V183H208.699V178.86C208.699 178.24 208.589 177.79 208.369 177.51C208.149 177.22 207.804 177.075 207.334 177.075C206.974 177.075 206.674 177.16 206.434 177.33C206.204 177.49 206.029 177.745 205.909 178.095C205.789 178.445 205.729 178.9 205.729 179.46V183H203.854ZM215.988 183V177.06H214.653V175.605H216.003V174.825C216.003 174.185 216.108 173.69 216.318 173.34C216.528 172.99 216.808 172.745 217.158 172.605C217.518 172.465 217.903 172.395 218.313 172.395C218.623 172.395 218.888 172.425 219.108 172.485C219.338 172.535 219.558 172.61 219.768 172.71L219.168 174.135C219.068 174.085 218.963 174.045 218.853 174.015C218.743 173.975 218.633 173.955 218.523 173.955C218.283 173.955 218.113 174.035 218.013 174.195C217.913 174.355 217.863 174.57 217.863 174.84V175.605H219.438V177.06H217.863V183H215.988ZM220.071 183V175.605H221.931V183H220.071ZM220.011 174.465V172.545H222.006V174.465H220.011ZM226.618 183.15C226.018 183.15 225.493 183.045 225.043 182.835C224.603 182.615 224.228 182.325 223.918 181.965C223.618 181.605 223.393 181.195 223.243 180.735C223.093 180.275 223.018 179.795 223.018 179.295C223.018 178.805 223.093 178.33 223.243 177.87C223.393 177.41 223.618 177 223.918 176.64C224.228 176.28 224.603 175.995 225.043 175.785C225.493 175.565 226.018 175.455 226.618 175.455C227.368 175.455 228.018 175.635 228.568 175.995C229.118 176.355 229.528 176.9 229.798 177.63L228.178 178.275C228.058 177.925 227.873 177.64 227.623 177.42C227.383 177.19 227.048 177.075 226.618 177.075C226.218 177.075 225.888 177.185 225.628 177.405C225.368 177.615 225.178 177.89 225.058 178.23C224.938 178.57 224.878 178.925 224.878 179.295C224.878 179.665 224.938 180.025 225.058 180.375C225.178 180.715 225.368 180.995 225.628 181.215C225.888 181.425 226.218 181.53 226.618 181.53C227.048 181.53 227.383 181.42 227.623 181.2C227.873 180.97 228.058 180.675 228.178 180.315L229.798 180.96C229.528 181.7 229.118 182.25 228.568 182.61C228.018 182.97 227.368 183.15 226.618 183.15ZM230.8 183V172.545H232.675V177.285L232.36 177.33C232.49 176.88 232.68 176.52 232.93 176.25C233.19 175.97 233.485 175.77 233.815 175.65C234.155 175.52 234.495 175.455 234.835 175.455C235.675 175.455 236.33 175.695 236.8 176.175C237.28 176.645 237.52 177.31 237.52 178.17V183H235.645V178.86C235.645 178.24 235.535 177.79 235.315 177.51C235.095 177.22 234.75 177.075 234.28 177.075C233.75 177.075 233.35 177.265 233.08 177.645C232.81 178.025 232.675 178.63 232.675 179.46V183H230.8ZM238.852 183V175.605H240.712V183H238.852ZM238.792 174.465V172.545H240.787V174.465H238.792ZM245.443 183.15C244.803 183.15 244.253 183.045 243.793 182.835C243.333 182.625 242.953 182.345 242.653 181.995C242.363 181.635 242.148 181.23 242.008 180.78C241.868 180.32 241.798 179.84 241.798 179.34C241.798 178.86 241.868 178.39 242.008 177.93C242.148 177.47 242.358 177.055 242.638 176.685C242.918 176.315 243.278 176.02 243.718 175.8C244.168 175.57 244.703 175.455 245.323 175.455C245.903 175.455 246.408 175.555 246.838 175.755C247.268 175.945 247.623 176.215 247.903 176.565C248.183 176.905 248.393 177.305 248.533 177.765C248.683 178.225 248.758 178.715 248.758 179.235C248.758 179.305 248.753 179.405 248.743 179.535C248.743 179.655 248.733 179.785 248.713 179.925H243.658C243.708 180.455 243.903 180.855 244.243 181.125C244.593 181.395 245.028 181.53 245.548 181.53C245.928 181.53 246.298 181.465 246.658 181.335C247.018 181.195 247.338 181 247.618 180.75L248.548 182.01C248.198 182.28 247.868 182.5 247.558 182.67C247.248 182.84 246.923 182.96 246.583 183.03C246.253 183.11 245.873 183.15 245.443 183.15ZM246.913 178.995C246.933 178.915 246.948 178.835 246.958 178.755C246.978 178.675 246.988 178.6 246.988 178.53C246.988 178.32 246.948 178.125 246.868 177.945C246.788 177.755 246.678 177.59 246.538 177.45C246.398 177.31 246.228 177.205 246.028 177.135C245.838 177.055 245.618 177.015 245.368 177.015C244.998 177.015 244.688 177.09 244.438 177.24C244.188 177.39 243.998 177.585 243.868 177.825C243.748 178.055 243.673 178.295 243.643 178.545H247.543L246.913 178.995ZM249.859 183V175.605H251.734V177.615L251.449 177.645C251.479 177.215 251.609 176.835 251.839 176.505C252.069 176.175 252.349 175.92 252.679 175.74C253.019 175.55 253.364 175.455 253.714 175.455C253.964 175.455 254.199 175.49 254.419 175.56C254.649 175.62 254.884 175.725 255.124 175.875L254.224 177.555C254.114 177.495 253.974 177.44 253.804 177.39C253.634 177.34 253.464 177.315 253.294 177.315C253.094 177.315 252.899 177.35 252.709 177.42C252.529 177.49 252.364 177.6 252.214 177.75C252.074 177.9 251.959 178.1 251.869 178.35C251.829 178.49 251.794 178.67 251.764 178.89C251.744 179.1 251.734 179.41 251.734 179.82V183H249.859ZM264.082 183L263.932 181.89V178.335C263.932 177.895 263.792 177.57 263.512 177.36C263.242 177.14 262.872 177.03 262.402 177.03C262.012 177.03 261.612 177.11 261.202 177.27C260.802 177.42 260.447 177.635 260.137 177.915L259.192 176.64C259.712 176.22 260.242 175.92 260.782 175.74C261.332 175.55 261.922 175.455 262.552 175.455C263.572 175.455 264.367 175.71 264.937 176.22C265.507 176.73 265.792 177.435 265.792 178.335V183H264.082ZM261.847 183.15C261.307 183.15 260.822 183.05 260.392 182.85C259.972 182.65 259.637 182.365 259.387 181.995C259.147 181.625 259.027 181.2 259.027 180.72C259.027 180.29 259.112 179.925 259.282 179.625C259.462 179.315 259.697 179.08 259.987 178.92C260.237 178.77 260.512 178.665 260.812 178.605C261.122 178.545 261.452 178.515 261.802 178.515H264.097V179.895H262.072C261.912 179.895 261.752 179.91 261.592 179.94C261.442 179.96 261.312 180.015 261.202 180.105C261.102 180.175 261.027 180.265 260.977 180.375C260.927 180.475 260.902 180.59 260.902 180.72C260.902 181 261.012 181.225 261.232 181.395C261.452 181.565 261.747 181.65 262.117 181.65C262.447 181.65 262.747 181.58 263.017 181.44C263.297 181.29 263.517 181.09 263.677 180.84C263.847 180.58 263.932 180.285 263.932 179.955L264.427 180.945C264.297 181.465 264.097 181.89 263.827 182.22C263.567 182.54 263.267 182.775 262.927 182.925C262.587 183.075 262.227 183.15 261.847 183.15ZM261.862 174.675L259.702 172.545H261.682L263.242 174.675H261.862ZM270.612 183V175.605H272.472V183H270.612ZM270.552 174.465V172.545H272.547V174.465H270.552ZM273.903 183V175.605H275.778V177.525L275.373 177.84C275.443 177.37 275.563 176.98 275.733 176.67C275.903 176.36 276.103 176.12 276.333 175.95C276.573 175.77 276.818 175.645 277.068 175.575C277.328 175.495 277.583 175.455 277.833 175.455C278.223 175.455 278.593 175.53 278.943 175.68C279.293 175.82 279.598 176.065 279.858 176.415C280.118 176.765 280.298 177.245 280.398 177.855L279.288 178.26C279.438 177.56 279.653 177.005 279.933 176.595C280.223 176.185 280.553 175.895 280.923 175.725C281.303 175.545 281.703 175.455 282.123 175.455C282.753 175.455 283.263 175.595 283.653 175.875C284.043 176.155 284.328 176.515 284.508 176.955C284.698 177.385 284.793 177.845 284.793 178.335V183H282.933V178.785C282.933 178.415 282.883 178.105 282.783 177.855C282.693 177.595 282.558 177.4 282.378 177.27C282.198 177.14 281.963 177.075 281.673 177.075C281.373 177.075 281.118 177.155 280.908 177.315C280.698 177.475 280.538 177.715 280.428 178.035C280.328 178.355 280.278 178.765 280.278 179.265V183H278.418V178.755C278.418 178.195 278.313 177.775 278.103 177.495C277.903 177.215 277.608 177.075 277.218 177.075C276.908 177.075 276.643 177.155 276.423 177.315C276.213 177.475 276.053 177.715 275.943 178.035C275.833 178.355 275.778 178.765 275.778 179.265V183H273.903ZM286.145 186.06V175.605H288.005V177.585L287.555 177.735C287.685 177.145 287.88 176.685 288.14 176.355C288.41 176.025 288.715 175.795 289.055 175.665C289.395 175.525 289.75 175.455 290.12 175.455C290.77 175.455 291.33 175.625 291.8 175.965C292.28 176.295 292.645 176.75 292.895 177.33C293.145 177.91 293.27 178.57 293.27 179.31C293.27 180.11 293.13 180.8 292.85 181.38C292.57 181.95 292.19 182.39 291.71 182.7C291.23 183 290.7 183.15 290.12 183.15C289.73 183.15 289.36 183.07 289.01 182.91C288.66 182.75 288.36 182.51 288.11 182.19C287.87 181.86 287.705 181.445 287.615 180.945L288.005 181.005V186.06H286.145ZM289.61 181.44C289.98 181.44 290.295 181.355 290.555 181.185C290.825 181.005 291.035 180.755 291.185 180.435C291.335 180.115 291.41 179.74 291.41 179.31C291.41 178.87 291.335 178.49 291.185 178.17C291.035 177.85 290.825 177.605 290.555 177.435C290.295 177.255 289.98 177.165 289.61 177.165C289.25 177.165 288.935 177.255 288.665 177.435C288.405 177.615 288.2 177.865 288.05 178.185C287.91 178.495 287.84 178.87 287.84 179.31C287.84 179.74 287.91 180.115 288.05 180.435C288.2 180.755 288.405 181.005 288.665 181.185C288.935 181.355 289.25 181.44 289.61 181.44ZM297.748 183.15C297.028 183.15 296.388 182.985 295.828 182.655C295.268 182.325 294.823 181.87 294.493 181.29C294.173 180.7 294.013 180.035 294.013 179.295C294.013 178.545 294.173 177.885 294.493 177.315C294.813 176.735 295.253 176.28 295.813 175.95C296.383 175.62 297.028 175.455 297.748 175.455C298.458 175.455 299.093 175.62 299.653 175.95C300.213 176.28 300.653 176.735 300.973 177.315C301.293 177.885 301.453 178.545 301.453 179.295C301.453 180.035 301.293 180.695 300.973 181.275C300.653 181.855 300.213 182.315 299.653 182.655C299.093 182.985 298.458 183.15 297.748 183.15ZM297.748 181.515C298.128 181.515 298.453 181.425 298.723 181.245C299.003 181.065 299.213 180.81 299.353 180.48C299.503 180.15 299.578 179.755 299.578 179.295C299.578 178.825 299.503 178.43 299.353 178.11C299.213 177.78 299.003 177.53 298.723 177.36C298.453 177.18 298.128 177.09 297.748 177.09C297.358 177.09 297.023 177.18 296.743 177.36C296.463 177.53 296.248 177.78 296.098 178.11C295.948 178.43 295.873 178.825 295.873 179.295C295.873 179.755 295.948 180.15 296.098 180.48C296.248 180.81 296.463 181.065 296.743 181.245C297.023 181.425 297.358 181.515 297.748 181.515ZM302.542 183V175.605H304.417V177.615L304.132 177.645C304.162 177.215 304.292 176.835 304.522 176.505C304.752 176.175 305.032 175.92 305.362 175.74C305.702 175.55 306.047 175.455 306.397 175.455C306.647 175.455 306.882 175.49 307.102 175.56C307.332 175.62 307.567 175.725 307.807 175.875L306.907 177.555C306.797 177.495 306.657 177.44 306.487 177.39C306.317 177.34 306.147 177.315 305.977 177.315C305.777 177.315 305.582 177.35 305.392 177.42C305.212 177.49 305.047 177.6 304.897 177.75C304.757 177.9 304.642 178.1 304.552 178.35C304.512 178.49 304.477 178.67 304.447 178.89C304.427 179.1 304.417 179.41 304.417 179.82V183H302.542ZM311.349 183.15C310.949 183.15 310.579 183.075 310.239 182.925C309.899 182.775 309.624 182.53 309.414 182.19C309.214 181.85 309.114 181.395 309.114 180.825V173.88L311.004 172.875V180.315C311.004 180.745 311.059 181.07 311.169 181.29C311.289 181.51 311.519 181.62 311.859 181.62C311.959 181.62 312.069 181.61 312.189 181.59C312.319 181.57 312.459 181.54 312.609 181.5V182.925C312.399 183.005 312.189 183.06 311.979 183.09C311.769 183.13 311.559 183.15 311.349 183.15ZM307.764 177.06V175.605H312.609V177.06H307.764ZM316.79 183.15C316.15 183.15 315.6 183.045 315.14 182.835C314.68 182.625 314.3 182.345 314 181.995C313.71 181.635 313.495 181.23 313.355 180.78C313.215 180.32 313.145 179.84 313.145 179.34C313.145 178.86 313.215 178.39 313.355 177.93C313.495 177.47 313.705 177.055 313.985 176.685C314.265 176.315 314.625 176.02 315.065 175.8C315.515 175.57 316.05 175.455 316.67 175.455C317.25 175.455 317.755 175.555 318.185 175.755C318.615 175.945 318.97 176.215 319.25 176.565C319.53 176.905 319.74 177.305 319.88 177.765C320.03 178.225 320.105 178.715 320.105 179.235C320.105 179.305 320.1 179.405 320.09 179.535C320.09 179.655 320.08 179.785 320.06 179.925H315.005C315.055 180.455 315.25 180.855 315.59 181.125C315.94 181.395 316.375 181.53 316.895 181.53C317.275 181.53 317.645 181.465 318.005 181.335C318.365 181.195 318.685 181 318.965 180.75L319.895 182.01C319.545 182.28 319.215 182.5 318.905 182.67C318.595 182.84 318.27 182.96 317.93 183.03C317.6 183.11 317.22 183.15 316.79 183.15ZM318.26 178.995C318.28 178.915 318.295 178.835 318.305 178.755C318.325 178.675 318.335 178.6 318.335 178.53C318.335 178.32 318.295 178.125 318.215 177.945C318.135 177.755 318.025 177.59 317.885 177.45C317.745 177.31 317.575 177.205 317.375 177.135C317.185 177.055 316.965 177.015 316.715 177.015C316.345 177.015 316.035 177.09 315.785 177.24C315.535 177.39 315.345 177.585 315.215 177.825C315.095 178.055 315.02 178.295 314.99 178.545H318.89L318.26 178.995ZM321.206 183V175.605H323.081V177.615L322.796 177.645C322.826 177.215 322.956 176.835 323.186 176.505C323.416 176.175 323.696 175.92 324.026 175.74C324.366 175.55 324.711 175.455 325.061 175.455C325.311 175.455 325.546 175.49 325.766 175.56C325.996 175.62 326.231 175.725 326.471 175.875L325.571 177.555C325.461 177.495 325.321 177.44 325.151 177.39C324.981 177.34 324.811 177.315 324.641 177.315C324.441 177.315 324.246 177.35 324.056 177.42C323.876 177.49 323.711 177.6 323.561 177.75C323.421 177.9 323.306 178.1 323.216 178.35C323.176 178.49 323.141 178.67 323.111 178.89C323.091 179.1 323.081 179.41 323.081 179.82V183H321.206Z" fill="#E5E9E7"/>
</g>
<path d="M262.5 100.333V115.444C262.5 117.448 261.809 119.37 260.58 120.787C259.351 122.204 257.683 123 255.944 123H210.056C208.317 123 206.649 122.204 205.42 120.787C204.191 119.37 203.5 117.448 203.5 115.444V100.333" stroke="#21A89A" stroke-width="13.4681" stroke-linecap="round" stroke-linejoin="round"/>
<path d="M216.611 81.4443L233 100.333L249.389 81.4443" stroke="#21A89A" stroke-width="13.4681" stroke-linecap="round" stroke-linejoin="round"/>
<path d="M233 100.333V55" stroke="#21A89A" stroke-width="13.4681" stroke-linecap="round" stroke-linejoin="round"/>
</svg>
