<svg width="466" height="271" viewBox="0 0 466 271" fill="none" xmlns="http://www.w3.org/2000/svg">
<g clip-path="url(#clip0_1_21)">
<mask id="mask0_1_21" style="mask-type:luminance" maskUnits="userSpaceOnUse" x="0" y="0" width="466" height="271">
<path d="M0 0H466V271H0V0Z" fill="white"/>
</mask>
<g mask="url(#mask0_1_21)">
<path d="M382.786 9.67871H416.072C424.899 9.67871 433.367 11.7181 439.608 15.3483C445.849 18.9785 449.358 23.902 449.358 29.0359V48.393" stroke="#E5E9E7" stroke-width="7.37498" stroke-linecap="round" stroke-linejoin="round"/>
<path d="M16.6426 48.393V29.0359C16.6426 23.902 20.1495 18.9785 26.3917 15.3483C32.634 11.7181 41.1003 9.67871 49.9283 9.67871H83.214" stroke="#E5E9E7" stroke-width="7.37498" stroke-linecap="round" stroke-linejoin="round"/>
<path d="M183.071 9.67871H282.928" stroke="#E5E9E7" stroke-width="7.37498" stroke-linecap="round" stroke-linejoin="round"/>
<path d="M449.357 106.465V164.536" stroke="#E5E9E7" stroke-width="7.37498" stroke-linecap="round" stroke-linejoin="round"/>
<path d="M16.6426 106.465V164.536" stroke="#E5E9E7" stroke-width="7.37498" stroke-linecap="round" stroke-linejoin="round"/>
<path d="M382.786 261.322H416.072C424.899 261.322 433.367 259.282 439.608 255.652C445.849 252.023 449.358 247.099 449.358 241.965V222.608" stroke="#E5E9E7" stroke-width="7.37498" stroke-linecap="round" stroke-linejoin="round"/>
<path d="M16.6426 222.608V241.965C16.6426 247.099 20.1495 252.023 26.3917 255.652C32.634 259.282 41.1003 261.322 49.9283 261.322H83.214" stroke="#E5E9E7" stroke-width="7.37498" stroke-linecap="round" stroke-linejoin="round"/>
<path d="M183.071 261.321H282.928" stroke="#E5E9E7" stroke-width="7.37498" stroke-linecap="round" stroke-linejoin="round"/>
<path d="M121.475 183.24C120.515 183.24 119.67 183.01 118.94 182.55C118.21 182.09 117.635 181.45 117.215 180.63C116.795 179.81 116.585 178.855 116.585 177.765C116.585 176.675 116.795 175.725 117.215 174.915C117.635 174.095 118.22 173.455 118.97 172.995C119.73 172.535 120.605 172.305 121.595 172.305C122.705 172.305 123.66 172.585 124.46 173.145C125.27 173.695 125.85 174.455 126.2 175.425L124.37 176.1C124.15 175.49 123.8 175.015 123.32 174.675C122.85 174.335 122.275 174.165 121.595 174.165C120.975 174.165 120.43 174.31 119.96 174.6C119.5 174.89 119.145 175.305 118.895 175.845C118.655 176.375 118.535 177.015 118.535 177.765C118.535 178.515 118.655 179.16 118.895 179.7C119.145 180.24 119.5 180.655 119.96 180.945C120.43 181.235 120.975 181.38 121.595 181.38C121.915 181.38 122.245 181.335 122.585 181.245C122.925 181.155 123.235 181 123.515 180.78C123.805 180.55 124.035 180.235 124.205 179.835C124.385 179.435 124.475 178.925 124.475 178.305V177.705L124.91 179.055H121.91V177.315H126.2V183H124.49L124.22 181.305L124.55 181.56C124.37 181.93 124.125 182.24 123.815 182.49C123.505 182.74 123.15 182.925 122.75 183.045C122.36 183.175 121.935 183.24 121.475 183.24ZM129.27 183.15C128.76 183.15 128.34 182.995 128.01 182.685C127.68 182.375 127.515 181.885 127.515 181.215V172.545H129.36V180.855C129.36 181.065 129.41 181.215 129.51 181.305C129.61 181.385 129.74 181.425 129.9 181.425C129.98 181.425 130.065 181.42 130.155 181.41C130.245 181.39 130.34 181.365 130.44 181.335V182.925C130.23 183.005 130.02 183.06 129.81 183.09C129.61 183.13 129.43 183.15 129.27 183.15ZM131.305 183V175.605H133.165V183H131.305ZM131.245 174.465V172.545H133.24V174.465H131.245ZM137.162 183.15C136.612 183.15 136.132 183.07 135.722 182.91C135.312 182.75 134.962 182.55 134.672 182.31C134.392 182.07 134.167 181.84 133.997 181.62L135.272 180.51C135.442 180.79 135.682 181.05 135.992 181.29C136.312 181.52 136.707 181.635 137.177 181.635C137.547 181.635 137.832 181.565 138.032 181.425C138.242 181.275 138.347 181.09 138.347 180.87C138.347 180.69 138.282 180.545 138.152 180.435C138.022 180.315 137.847 180.22 137.627 180.15C137.407 180.07 137.162 179.995 136.892 179.925C136.612 179.845 136.322 179.755 136.022 179.655C135.722 179.555 135.447 179.425 135.197 179.265C134.947 179.095 134.742 178.88 134.582 178.62C134.432 178.36 134.357 178.035 134.357 177.645C134.357 176.995 134.612 176.47 135.122 176.07C135.632 175.66 136.307 175.455 137.147 175.455C137.737 175.455 138.272 175.575 138.752 175.815C139.232 176.045 139.612 176.38 139.892 176.82L138.737 177.735C138.557 177.445 138.317 177.23 138.017 177.09C137.727 176.94 137.417 176.865 137.087 176.865C136.797 176.865 136.557 176.92 136.367 177.03C136.187 177.14 136.097 177.29 136.097 177.48C136.097 177.61 136.137 177.72 136.217 177.81C136.307 177.9 136.447 177.98 136.637 178.05C136.837 178.11 137.097 178.18 137.417 178.26C137.717 178.33 138.027 178.415 138.347 178.515C138.667 178.615 138.967 178.75 139.247 178.92C139.527 179.09 139.752 179.315 139.922 179.595C140.092 179.875 140.177 180.23 140.177 180.66C140.177 181.15 140.052 181.585 139.802 181.965C139.552 182.335 139.202 182.625 138.752 182.835C138.302 183.045 137.772 183.15 137.162 183.15ZM143.837 183.15C143.287 183.15 142.807 183.07 142.397 182.91C141.987 182.75 141.637 182.55 141.347 182.31C141.067 182.07 140.842 181.84 140.672 181.62L141.947 180.51C142.117 180.79 142.357 181.05 142.667 181.29C142.987 181.52 143.382 181.635 143.852 181.635C144.222 181.635 144.507 181.565 144.707 181.425C144.917 181.275 145.022 181.09 145.022 180.87C145.022 180.69 144.957 180.545 144.827 180.435C144.697 180.315 144.522 180.22 144.302 180.15C144.082 180.07 143.837 179.995 143.567 179.925C143.287 179.845 142.997 179.755 142.697 179.655C142.397 179.555 142.122 179.425 141.872 179.265C141.622 179.095 141.417 178.88 141.257 178.62C141.107 178.36 141.032 178.035 141.032 177.645C141.032 176.995 141.287 176.47 141.797 176.07C142.307 175.66 142.982 175.455 143.822 175.455C144.412 175.455 144.947 175.575 145.427 175.815C145.907 176.045 146.287 176.38 146.567 176.82L145.412 177.735C145.232 177.445 144.992 177.23 144.692 177.09C144.402 176.94 144.092 176.865 143.762 176.865C143.472 176.865 143.232 176.92 143.042 177.03C142.862 177.14 142.772 177.29 142.772 177.48C142.772 177.61 142.812 177.72 142.892 177.81C142.982 177.9 143.122 177.98 143.312 178.05C143.512 178.11 143.772 178.18 144.092 178.26C144.392 178.33 144.702 178.415 145.022 178.515C145.342 178.615 145.642 178.75 145.922 178.92C146.202 179.09 146.427 179.315 146.597 179.595C146.767 179.875 146.852 180.23 146.852 180.66C146.852 181.15 146.727 181.585 146.477 181.965C146.227 182.335 145.877 182.625 145.427 182.835C144.977 183.045 144.447 183.15 143.837 183.15ZM151.247 183.15C150.607 183.15 150.057 183.045 149.597 182.835C149.137 182.625 148.757 182.345 148.457 181.995C148.167 181.635 147.952 181.23 147.812 180.78C147.672 180.32 147.602 179.84 147.602 179.34C147.602 178.86 147.672 178.39 147.812 177.93C147.952 177.47 148.162 177.055 148.442 176.685C148.722 176.315 149.082 176.02 149.522 175.8C149.972 175.57 150.507 175.455 151.127 175.455C151.707 175.455 152.212 175.555 152.642 175.755C153.072 175.945 153.427 176.215 153.707 176.565C153.987 176.905 154.197 177.305 154.337 177.765C154.487 178.225 154.562 178.715 154.562 179.235C154.562 179.305 154.557 179.405 154.547 179.535C154.547 179.655 154.537 179.785 154.517 179.925H149.462C149.512 180.455 149.707 180.855 150.047 181.125C150.397 181.395 150.832 181.53 151.352 181.53C151.732 181.53 152.102 181.465 152.462 181.335C152.822 181.195 153.142 181 153.422 180.75L154.352 182.01C154.002 182.28 153.672 182.5 153.362 182.67C153.052 182.84 152.727 182.96 152.387 183.03C152.057 183.11 151.677 183.15 151.247 183.15ZM152.717 178.995C152.737 178.915 152.752 178.835 152.762 178.755C152.782 178.675 152.792 178.6 152.792 178.53C152.792 178.32 152.752 178.125 152.672 177.945C152.592 177.755 152.482 177.59 152.342 177.45C152.202 177.31 152.032 177.205 151.832 177.135C151.642 177.055 151.422 177.015 151.172 177.015C150.802 177.015 150.492 177.09 150.242 177.24C149.992 177.39 149.802 177.585 149.672 177.825C149.552 178.055 149.477 178.295 149.447 178.545H153.347L152.717 178.995ZM155.272 183V181.755L159.367 176.655L159.517 177.15H155.437V175.605H161.227V176.94L157.177 182.055L157.027 181.455H161.227V183H155.272ZM168.429 183.15C167.829 183.15 167.324 183.03 166.914 182.79C166.514 182.55 166.214 182.21 166.014 181.77C165.824 181.33 165.729 180.815 165.729 180.225V175.605H167.589V179.76C167.589 180.1 167.629 180.405 167.709 180.675C167.789 180.935 167.929 181.145 168.129 181.305C168.339 181.455 168.624 181.53 168.984 181.53C169.424 181.53 169.754 181.405 169.974 181.155C170.204 180.905 170.359 180.56 170.439 180.12C170.529 179.67 170.574 179.145 170.574 178.545V175.605H172.434V183H170.574V181.395L170.829 181.545C170.609 182.115 170.284 182.525 169.854 182.775C169.424 183.025 168.949 183.15 168.429 183.15ZM173.886 183V175.605H175.761V177.285L175.461 177.315C175.591 176.865 175.781 176.505 176.031 176.235C176.281 175.965 176.571 175.77 176.901 175.65C177.231 175.52 177.571 175.455 177.921 175.455C178.761 175.455 179.416 175.695 179.886 176.175C180.366 176.645 180.606 177.31 180.606 178.17V183H178.731V178.86C178.731 178.24 178.621 177.79 178.401 177.51C178.181 177.22 177.836 177.075 177.366 177.075C177.006 177.075 176.706 177.16 176.466 177.33C176.236 177.49 176.061 177.745 175.941 178.095C175.821 178.445 175.761 178.9 175.761 179.46V183H173.886ZM186.02 183V177.06H184.685V175.605H186.035V174.825C186.035 174.185 186.14 173.69 186.35 173.34C186.56 172.99 186.84 172.745 187.19 172.605C187.55 172.465 187.935 172.395 188.345 172.395C188.655 172.395 188.92 172.425 189.14 172.485C189.37 172.535 189.59 172.61 189.8 172.71L189.2 174.135C189.1 174.085 188.995 174.045 188.885 174.015C188.775 173.975 188.665 173.955 188.555 173.955C188.315 173.955 188.145 174.035 188.045 174.195C187.945 174.355 187.895 174.57 187.895 174.84V175.605H189.47V177.06H187.895V183H186.02ZM190.103 183V175.605H191.963V183H190.103ZM190.043 174.465V172.545H192.038V174.465H190.043ZM196.65 183.15C196.05 183.15 195.525 183.045 195.075 182.835C194.635 182.615 194.26 182.325 193.95 181.965C193.65 181.605 193.425 181.195 193.275 180.735C193.125 180.275 193.05 179.795 193.05 179.295C193.05 178.805 193.125 178.33 193.275 177.87C193.425 177.41 193.65 177 193.95 176.64C194.26 176.28 194.635 175.995 195.075 175.785C195.525 175.565 196.05 175.455 196.65 175.455C197.4 175.455 198.05 175.635 198.6 175.995C199.15 176.355 199.56 176.9 199.83 177.63L198.21 178.275C198.09 177.925 197.905 177.64 197.655 177.42C197.415 177.19 197.08 177.075 196.65 177.075C196.25 177.075 195.92 177.185 195.66 177.405C195.4 177.615 195.21 177.89 195.09 178.23C194.97 178.57 194.91 178.925 194.91 179.295C194.91 179.665 194.97 180.025 195.09 180.375C195.21 180.715 195.4 180.995 195.66 181.215C195.92 181.425 196.25 181.53 196.65 181.53C197.08 181.53 197.415 181.42 197.655 181.2C197.905 180.97 198.09 180.675 198.21 180.315L199.83 180.96C199.56 181.7 199.15 182.25 198.6 182.61C198.05 182.97 197.4 183.15 196.65 183.15ZM200.832 183V172.545H202.707V177.285L202.392 177.33C202.522 176.88 202.712 176.52 202.962 176.25C203.222 175.97 203.517 175.77 203.847 175.65C204.187 175.52 204.527 175.455 204.867 175.455C205.707 175.455 206.362 175.695 206.832 176.175C207.312 176.645 207.552 177.31 207.552 178.17V183H205.677V178.86C205.677 178.24 205.567 177.79 205.347 177.51C205.127 177.22 204.782 177.075 204.312 177.075C203.782 177.075 203.382 177.265 203.112 177.645C202.842 178.025 202.707 178.63 202.707 179.46V183H200.832ZM208.883 183V175.605H210.743V183H208.883ZM208.823 174.465V172.545H210.818V174.465H208.823ZM215.475 183.15C214.835 183.15 214.285 183.045 213.825 182.835C213.365 182.625 212.985 182.345 212.685 181.995C212.395 181.635 212.18 181.23 212.04 180.78C211.9 180.32 211.83 179.84 211.83 179.34C211.83 178.86 211.9 178.39 212.04 177.93C212.18 177.47 212.39 177.055 212.67 176.685C212.95 176.315 213.31 176.02 213.75 175.8C214.2 175.57 214.735 175.455 215.355 175.455C215.935 175.455 216.44 175.555 216.87 175.755C217.3 175.945 217.655 176.215 217.935 176.565C218.215 176.905 218.425 177.305 218.565 177.765C218.715 178.225 218.79 178.715 218.79 179.235C218.79 179.305 218.785 179.405 218.775 179.535C218.775 179.655 218.765 179.785 218.745 179.925H213.69C213.74 180.455 213.935 180.855 214.275 181.125C214.625 181.395 215.06 181.53 215.58 181.53C215.96 181.53 216.33 181.465 216.69 181.335C217.05 181.195 217.37 181 217.65 180.75L218.58 182.01C218.23 182.28 217.9 182.5 217.59 182.67C217.28 182.84 216.955 182.96 216.615 183.03C216.285 183.11 215.905 183.15 215.475 183.15ZM216.945 178.995C216.965 178.915 216.98 178.835 216.99 178.755C217.01 178.675 217.02 178.6 217.02 178.53C217.02 178.32 216.98 178.125 216.9 177.945C216.82 177.755 216.71 177.59 216.57 177.45C216.43 177.31 216.26 177.205 216.06 177.135C215.87 177.055 215.65 177.015 215.4 177.015C215.03 177.015 214.72 177.09 214.47 177.24C214.22 177.39 214.03 177.585 213.9 177.825C213.78 178.055 213.705 178.295 213.675 178.545H217.575L216.945 178.995ZM219.89 183V175.605H221.765V177.615L221.48 177.645C221.51 177.215 221.64 176.835 221.87 176.505C222.1 176.175 222.38 175.92 222.71 175.74C223.05 175.55 223.395 175.455 223.745 175.455C223.995 175.455 224.23 175.49 224.45 175.56C224.68 175.62 224.915 175.725 225.155 175.875L224.255 177.555C224.145 177.495 224.005 177.44 223.835 177.39C223.665 177.34 223.495 177.315 223.325 177.315C223.125 177.315 222.93 177.35 222.74 177.42C222.56 177.49 222.395 177.6 222.245 177.75C222.105 177.9 221.99 178.1 221.9 178.35C221.86 178.49 221.825 178.67 221.795 178.89C221.775 179.1 221.765 179.41 221.765 179.82V183H219.89ZM232.764 183.15C232.044 183.15 231.404 182.985 230.844 182.655C230.284 182.325 229.839 181.87 229.509 181.29C229.189 180.7 229.029 180.035 229.029 179.295C229.029 178.545 229.189 177.885 229.509 177.315C229.829 176.735 230.269 176.28 230.829 175.95C231.399 175.62 232.044 175.455 232.764 175.455C233.474 175.455 234.109 175.62 234.669 175.95C235.229 176.28 235.669 176.735 235.989 177.315C236.309 177.885 236.469 178.545 236.469 179.295C236.469 180.035 236.309 180.695 235.989 181.275C235.669 181.855 235.229 182.315 234.669 182.655C234.109 182.985 233.474 183.15 232.764 183.15ZM232.764 181.515C233.144 181.515 233.469 181.425 233.739 181.245C234.019 181.065 234.229 180.81 234.369 180.48C234.519 180.15 234.594 179.755 234.594 179.295C234.594 178.825 234.519 178.43 234.369 178.11C234.229 177.78 234.019 177.53 233.739 177.36C233.469 177.18 233.144 177.09 232.764 177.09C232.374 177.09 232.039 177.18 231.759 177.36C231.479 177.53 231.264 177.78 231.114 178.11C230.964 178.43 230.889 178.825 230.889 179.295C230.889 179.755 230.964 180.15 231.114 180.48C231.264 180.81 231.479 181.065 231.759 181.245C232.039 181.425 232.374 181.515 232.764 181.515ZM240.168 183.15C239.568 183.15 239.063 183.03 238.653 182.79C238.253 182.55 237.953 182.21 237.753 181.77C237.563 181.33 237.468 180.815 237.468 180.225V175.605H239.328V179.76C239.328 180.1 239.368 180.405 239.448 180.675C239.528 180.935 239.668 181.145 239.868 181.305C240.078 181.455 240.363 181.53 240.723 181.53C241.163 181.53 241.493 181.405 241.713 181.155C241.943 180.905 242.098 180.56 242.178 180.12C242.268 179.67 242.313 179.145 242.313 178.545V175.605H244.173V183H242.313V181.395L242.568 181.545C242.348 182.115 242.023 182.525 241.593 182.775C241.163 183.025 240.688 183.15 240.168 183.15Z" fill="white"/>
<path d="M252.376 183.15C251.776 183.15 251.251 183.045 250.801 182.835C250.361 182.615 249.986 182.325 249.676 181.965C249.376 181.605 249.151 181.195 249.001 180.735C248.851 180.275 248.776 179.795 248.776 179.295C248.776 178.805 248.851 178.33 249.001 177.87C249.151 177.41 249.376 177 249.676 176.64C249.986 176.28 250.361 175.995 250.801 175.785C251.251 175.565 251.776 175.455 252.376 175.455C253.126 175.455 253.776 175.635 254.326 175.995C254.876 176.355 255.286 176.9 255.556 177.63L253.936 178.275C253.816 177.925 253.631 177.64 253.381 177.42C253.141 177.19 252.806 177.075 252.376 177.075C251.976 177.075 251.646 177.185 251.386 177.405C251.126 177.615 250.936 177.89 250.816 178.23C250.696 178.57 250.636 178.925 250.636 179.295C250.636 179.665 250.696 180.025 250.816 180.375C250.936 180.715 251.126 180.995 251.386 181.215C251.646 181.425 251.976 181.53 252.376 181.53C252.806 181.53 253.141 181.42 253.381 181.2C253.631 180.97 253.816 180.675 253.936 180.315L255.556 180.96C255.286 181.7 254.876 182.25 254.326 182.61C253.776 182.97 253.126 183.15 252.376 183.15ZM256.558 183V172.545H258.433V177.285L258.118 177.33C258.248 176.88 258.438 176.52 258.688 176.25C258.948 175.97 259.243 175.77 259.573 175.65C259.913 175.52 260.253 175.455 260.593 175.455C261.433 175.455 262.088 175.695 262.558 176.175C263.038 176.645 263.278 177.31 263.278 178.17V183H261.403V178.86C261.403 178.24 261.293 177.79 261.073 177.51C260.853 177.22 260.508 177.075 260.038 177.075C259.508 177.075 259.108 177.265 258.838 177.645C258.568 178.025 258.433 178.63 258.433 179.46V183H256.558ZM268.015 183.15C267.295 183.15 266.655 182.985 266.095 182.655C265.535 182.325 265.09 181.87 264.76 181.29C264.44 180.7 264.28 180.035 264.28 179.295C264.28 178.545 264.44 177.885 264.76 177.315C265.08 176.735 265.52 176.28 266.08 175.95C266.65 175.62 267.295 175.455 268.015 175.455C268.725 175.455 269.36 175.62 269.92 175.95C270.48 176.28 270.92 176.735 271.24 177.315C271.56 177.885 271.72 178.545 271.72 179.295C271.72 180.035 271.56 180.695 271.24 181.275C270.92 181.855 270.48 182.315 269.92 182.655C269.36 182.985 268.725 183.15 268.015 183.15ZM268.015 181.515C268.395 181.515 268.72 181.425 268.99 181.245C269.27 181.065 269.48 180.81 269.62 180.48C269.77 180.15 269.845 179.755 269.845 179.295C269.845 178.825 269.77 178.43 269.62 178.11C269.48 177.78 269.27 177.53 268.99 177.36C268.72 177.18 268.395 177.09 268.015 177.09C267.625 177.09 267.29 177.18 267.01 177.36C266.73 177.53 266.515 177.78 266.365 178.11C266.215 178.43 266.14 178.825 266.14 179.295C266.14 179.755 266.215 180.15 266.365 180.48C266.515 180.81 266.73 181.065 267.01 181.245C267.29 181.425 267.625 181.515 268.015 181.515ZM272.794 183V175.605H274.654V183H272.794ZM272.734 174.465V172.545H274.729V174.465H272.734ZM278.65 183.15C278.1 183.15 277.62 183.07 277.21 182.91C276.8 182.75 276.45 182.55 276.16 182.31C275.88 182.07 275.655 181.84 275.485 181.62L276.76 180.51C276.93 180.79 277.17 181.05 277.48 181.29C277.8 181.52 278.195 181.635 278.665 181.635C279.035 181.635 279.32 181.565 279.52 181.425C279.73 181.275 279.835 181.09 279.835 180.87C279.835 180.69 279.77 180.545 279.64 180.435C279.51 180.315 279.335 180.22 279.115 180.15C278.895 180.07 278.65 179.995 278.38 179.925C278.1 179.845 277.81 179.755 277.51 179.655C277.21 179.555 276.935 179.425 276.685 179.265C276.435 179.095 276.23 178.88 276.07 178.62C275.92 178.36 275.845 178.035 275.845 177.645C275.845 176.995 276.1 176.47 276.61 176.07C277.12 175.66 277.795 175.455 278.635 175.455C279.225 175.455 279.76 175.575 280.24 175.815C280.72 176.045 281.1 176.38 281.38 176.82L280.225 177.735C280.045 177.445 279.805 177.23 279.505 177.09C279.215 176.94 278.905 176.865 278.575 176.865C278.285 176.865 278.045 176.92 277.855 177.03C277.675 177.14 277.585 177.29 277.585 177.48C277.585 177.61 277.625 177.72 277.705 177.81C277.795 177.9 277.935 177.98 278.125 178.05C278.325 178.11 278.585 178.18 278.905 178.26C279.205 178.33 279.515 178.415 279.835 178.515C280.155 178.615 280.455 178.75 280.735 178.92C281.015 179.09 281.24 179.315 281.41 179.595C281.58 179.875 281.665 180.23 281.665 180.66C281.665 181.15 281.54 181.585 281.29 181.965C281.04 182.335 280.69 182.625 280.24 182.835C279.79 183.045 279.26 183.15 278.65 183.15ZM282.746 183V175.605H284.606V183H282.746ZM282.686 174.465V172.545H284.681V174.465H282.686ZM288.857 183.15C288.457 183.15 288.087 183.075 287.747 182.925C287.407 182.775 287.132 182.53 286.922 182.19C286.722 181.85 286.622 181.395 286.622 180.825V173.88L288.512 172.875V180.315C288.512 180.745 288.567 181.07 288.677 181.29C288.797 181.51 289.027 181.62 289.367 181.62C289.467 181.62 289.577 181.61 289.697 181.59C289.827 181.57 289.967 181.54 290.117 181.5V182.925C289.907 183.005 289.697 183.06 289.487 183.09C289.277 183.13 289.067 183.15 288.857 183.15ZM285.272 177.06V175.605H290.117V177.06H285.272ZM296.367 183.15C295.857 183.15 295.437 182.995 295.107 182.685C294.777 182.375 294.612 181.885 294.612 181.215V172.545H296.457V180.855C296.457 181.065 296.507 181.215 296.607 181.305C296.707 181.385 296.837 181.425 296.997 181.425C297.077 181.425 297.162 181.42 297.252 181.41C297.342 181.39 297.437 181.365 297.537 181.335V182.925C297.327 183.005 297.117 183.06 296.907 183.09C296.707 183.13 296.527 183.15 296.367 183.15ZM301.716 183.15C301.076 183.15 300.526 183.045 300.066 182.835C299.606 182.625 299.226 182.345 298.926 181.995C298.636 181.635 298.421 181.23 298.281 180.78C298.141 180.32 298.071 179.84 298.071 179.34C298.071 178.86 298.141 178.39 298.281 177.93C298.421 177.47 298.631 177.055 298.911 176.685C299.191 176.315 299.551 176.02 299.991 175.8C300.441 175.57 300.976 175.455 301.596 175.455C302.176 175.455 302.681 175.555 303.111 175.755C303.541 175.945 303.896 176.215 304.176 176.565C304.456 176.905 304.666 177.305 304.806 177.765C304.956 178.225 305.031 178.715 305.031 179.235C305.031 179.305 305.026 179.405 305.016 179.535C305.016 179.655 305.006 179.785 304.986 179.925H299.931C299.981 180.455 300.176 180.855 300.516 181.125C300.866 181.395 301.301 181.53 301.821 181.53C302.201 181.53 302.571 181.465 302.931 181.335C303.291 181.195 303.611 181 303.891 180.75L304.821 182.01C304.471 182.28 304.141 182.5 303.831 182.67C303.521 182.84 303.196 182.96 302.856 183.03C302.526 183.11 302.146 183.15 301.716 183.15ZM303.186 178.995C303.206 178.915 303.221 178.835 303.231 178.755C303.251 178.675 303.261 178.6 303.261 178.53C303.261 178.32 303.221 178.125 303.141 177.945C303.061 177.755 302.951 177.59 302.811 177.45C302.671 177.31 302.501 177.205 302.301 177.135C302.111 177.055 301.891 177.015 301.641 177.015C301.271 177.015 300.961 177.09 300.711 177.24C300.461 177.39 300.271 177.585 300.141 177.825C300.021 178.055 299.946 178.295 299.916 178.545H303.816L303.186 178.995ZM310.198 183V177.06H308.863V175.605H310.213V174.825C310.213 174.185 310.318 173.69 310.528 173.34C310.738 172.99 311.018 172.745 311.368 172.605C311.728 172.465 312.113 172.395 312.523 172.395C312.833 172.395 313.098 172.425 313.318 172.485C313.548 172.535 313.768 172.61 313.978 172.71L313.378 174.135C313.278 174.085 313.173 174.045 313.063 174.015C312.953 173.975 312.843 173.955 312.733 173.955C312.493 173.955 312.323 174.035 312.223 174.195C312.123 174.355 312.073 174.57 312.073 174.84V175.605H313.648V177.06H312.073V183H310.198ZM314.281 183V175.605H316.141V183H314.281ZM314.221 174.465V172.545H316.216V174.465H314.221ZM320.828 183.15C320.228 183.15 319.703 183.045 319.253 182.835C318.813 182.615 318.438 182.325 318.128 181.965C317.828 181.605 317.603 181.195 317.453 180.735C317.303 180.275 317.228 179.795 317.228 179.295C317.228 178.805 317.303 178.33 317.453 177.87C317.603 177.41 317.828 177 318.128 176.64C318.438 176.28 318.813 175.995 319.253 175.785C319.703 175.565 320.228 175.455 320.828 175.455C321.578 175.455 322.228 175.635 322.778 175.995C323.328 176.355 323.738 176.9 324.008 177.63L322.388 178.275C322.268 177.925 322.083 177.64 321.833 177.42C321.593 177.19 321.258 177.075 320.828 177.075C320.428 177.075 320.098 177.185 319.838 177.405C319.578 177.615 319.388 177.89 319.268 178.23C319.148 178.57 319.088 178.925 319.088 179.295C319.088 179.665 319.148 180.025 319.268 180.375C319.388 180.715 319.578 180.995 319.838 181.215C320.098 181.425 320.428 181.53 320.828 181.53C321.258 181.53 321.593 181.42 321.833 181.2C322.083 180.97 322.268 180.675 322.388 180.315L324.008 180.96C323.738 181.7 323.328 182.25 322.778 182.61C322.228 182.97 321.578 183.15 320.828 183.15ZM325.01 183V172.545H326.885V177.285L326.57 177.33C326.7 176.88 326.89 176.52 327.14 176.25C327.4 175.97 327.695 175.77 328.025 175.65C328.365 175.52 328.705 175.455 329.045 175.455C329.885 175.455 330.54 175.695 331.01 176.175C331.49 176.645 331.73 177.31 331.73 178.17V183H329.855V178.86C329.855 178.24 329.745 177.79 329.525 177.51C329.305 177.22 328.96 177.075 328.49 177.075C327.96 177.075 327.56 177.265 327.29 177.645C327.02 178.025 326.885 178.63 326.885 179.46V183H325.01ZM333.062 183V175.605H334.922V183H333.062ZM333.002 174.465V172.545H334.997V174.465H333.002ZM339.654 183.15C339.014 183.15 338.464 183.045 338.004 182.835C337.544 182.625 337.164 182.345 336.864 181.995C336.574 181.635 336.359 181.23 336.219 180.78C336.079 180.32 336.009 179.84 336.009 179.34C336.009 178.86 336.079 178.39 336.219 177.93C336.359 177.47 336.569 177.055 336.849 176.685C337.129 176.315 337.489 176.02 337.929 175.8C338.379 175.57 338.914 175.455 339.534 175.455C340.114 175.455 340.619 175.555 341.049 175.755C341.479 175.945 341.834 176.215 342.114 176.565C342.394 176.905 342.604 177.305 342.744 177.765C342.894 178.225 342.969 178.715 342.969 179.235C342.969 179.305 342.964 179.405 342.954 179.535C342.954 179.655 342.944 179.785 342.924 179.925H337.869C337.919 180.455 338.114 180.855 338.454 181.125C338.804 181.395 339.239 181.53 339.759 181.53C340.139 181.53 340.509 181.465 340.869 181.335C341.229 181.195 341.549 181 341.829 180.75L342.759 182.01C342.409 182.28 342.079 182.5 341.769 182.67C341.459 182.84 341.134 182.96 340.794 183.03C340.464 183.11 340.084 183.15 339.654 183.15ZM341.124 178.995C341.144 178.915 341.159 178.835 341.169 178.755C341.189 178.675 341.199 178.6 341.199 178.53C341.199 178.32 341.159 178.125 341.079 177.945C340.999 177.755 340.889 177.59 340.749 177.45C340.609 177.31 340.439 177.205 340.239 177.135C340.049 177.055 339.829 177.015 339.579 177.015C339.209 177.015 338.899 177.09 338.649 177.24C338.399 177.39 338.209 177.585 338.079 177.825C337.959 178.055 337.884 178.295 337.854 178.545H341.754L341.124 178.995ZM344.069 183V175.605H345.944V177.615L345.659 177.645C345.689 177.215 345.819 176.835 346.049 176.505C346.279 176.175 346.559 175.92 346.889 175.74C347.229 175.55 347.574 175.455 347.924 175.455C348.174 175.455 348.409 175.49 348.629 175.56C348.859 175.62 349.094 175.725 349.334 175.875L348.434 177.555C348.324 177.495 348.184 177.44 348.014 177.39C347.844 177.34 347.674 177.315 347.504 177.315C347.304 177.315 347.109 177.35 346.919 177.42C346.739 177.49 346.574 177.6 346.424 177.75C346.284 177.9 346.169 178.1 346.079 178.35C346.039 178.49 346.004 178.67 345.974 178.89C345.954 179.1 345.944 179.41 345.944 179.82V183H344.069Z" fill="#21a89a"/>
</g>
<g clip-path="url(#clip1_1_21)">
<path d="M262 105.333V120.445C262 122.448 261.309 124.37 260.08 125.787C258.851 127.204 257.183 128 255.444 128H209.556C207.817 128 206.15 127.204 204.92 125.787C203.691 124.37 203 122.448 203 120.445V105.333" stroke="#21a89a" stroke-width="13.4681" stroke-linecap="round" stroke-linejoin="round"/>
<path d="M216.111 86.4443L232.5 105.333L248.889 86.4443" stroke="#21a89a" stroke-width="13.4681" stroke-linecap="round" stroke-linejoin="round"/>
<path d="M232.5 105.333V60" stroke="#21a89a" stroke-width="13.4681" stroke-linecap="round" stroke-linejoin="round"/>
</g>
</g>
<defs>
<clipPath id="clip0_1_21">
<rect width="466" height="271" fill="white"/>
</clipPath>
<clipPath id="clip1_1_21">
<rect width="73" height="82" fill="white" transform="translate(196 53)"/>
</clipPath>
</defs>
</svg>
